<svg enable-background="new 0 0 1220 553" viewBox="0 0 1220 553" xmlns="http://www.w3.org/2000/svg"><path d="m0 0h1220v553h-1220z" fill="#73c4ee"/><g fill="#fff"><path d="m1218.1 108.9 1.7 5.9.2.7v-4l-.9-2.9z"/><path d="m35.5 553 .4-4.1-1.2-2.2-2.6-2.9-1.3-3-.3-3.5.6-1.7-1.1-.3-.6 1.9.3 3.8 1.4 3.3 2.7 3 .9 1.8-.3 3.9z"/><path d="m1217 226.3 3 6.6v-2.7l-1.9-4.3z"/><path d="m791.8 506.6-.1 1.1 39.5 3.2.1-1.1z"/><path d="m671.1 0-17.7 14.9-.8-1-25.2-13.9h-2.4l26.8 14.6 1 1.3 1.7 14 .8 7 1.3 7.8 2.1 2.8.9-.7-1.9-2.4-1.3-7.7-.7-7-.6.1.5-.1-1.7-13.8 18.9-15.9z"/><path d="m1205.7 506.1-2.1 7.8-3 8.4-2.1 9.3-5.5 19.3-.6 2.1h1.2l.5-1.8 5.5-19.3 2.1-9.3 3-8.4 2.1-7.9 1.5-5.3 2.2-15.1 2.7-6 6.8 2.3v-1.2l-6.9-2.4-2.9-1.1-.1-2.4v-1.8l1.9.6 8 2.8v-1.2l-7.6-2.7-2.4-.7-.1-.7.1-1.3 5 1.6 5.1 1.7v-1.2l-4.8-1.6-5.3-1.7.2-3.2-.3-5.7 3.6 1.1 6.6 3.9v-1.3l-6.2-3.6-4.1-1.2-.4-6.3-.1-.8 3.5.8 7.2 2.4v-1l-6.4-2.2.2-1.8v-3.6l-.6-1.2-1.3-1.8-2.1-3.1v-.7l.3-1.2.6-1 9.3-7.4v-1.4l-10.1 8-.9 1.3-.4 1.6v1.2l2.3 3.4 1.3 1.7.4.8v3.4l-.2 1.6-3.4-.8-.5-4.1-1.8-8.3-1.6-9.1-2.4-8.8-10.5-35.2h27.7v-1.1h-28l-3.5-18 31.5.7v-1.1l-31.7-.7-4.9-39.1h36.6v-1.1h-36.7l-.4-19.5 37.1 3.3v-1.1l-37.1-3.3v-16.5l2 .5 5.6.7 20.8 4.7 3.8.7 4.8 1v-1.1l-4.6-1-3.8-.7-20.8-4.8-5.6-.7-2.2-.5.1-35.1 16 18.9 13.6 15.2 7.4 5.8v-1.4l-6.6-5.2-13.5-15.1-16.8-19.9v-3.7l26.8-7.4 5.6 3.9 4.5 3.4v-1.4l-3.5-2.7.8-1.4 2.7-3.6v-1.8l-3.7 4.8-.7 1.4-5.2-3.6-10.6-21.4 20.2-5.6v-1.2l-20.7 5.7-3.4-9-1 .4 3.3 8.9-19.5 4.8-4.4-12.6-11.6-29-2.7-6.1-15.9-40.4-3.6-9-5.1-13.4-5.9-15.3-3.6-10.7-2.9-10.5 20.9-9.9 1.8 3.8 4 8.9 18 36.8-18.8 5.3-.8-.3-1.4-3-1.7-4.4-1.5-2.6-3.6-5.2-3.7-5.6-5.8-8.3-.9.6 5.8 8.3 3.7 5.6 3.5 5.2 1.4 2.4 1.6 4.3 1.6 3.5 1.4.5.2-.5.2.5 19.1-5.4 12.1 26.3 13.7 29.1.5-.2-.5.3 13.5 19.3 12.3 16.2v-1.8l-11.3-15-13.5-19.3-13.6-29-12.1-26.1 30-8 6.2 22.2 1.1-.3-6.2-22.1 5.5-1.3 5.6-4.8 1.5-1.7 1.1-1.6 2.5-1.9 2-1.4 1.1-.4v-1.2l-1.6.6-2.2 1.6-2.5 1.9-1.3 1.7-1.4 1.6-5.2 4.5-5 1.2.4-1-.8-1.7-1.3-3-1.499999999999-3.5-.7-3.3-5.1-19.3-1.5-5.8-2-7 2.5-1.6-.9-1.4-5.9-11.9 11.3-2.7.1.9.4 1.8 9.3-2.8 3.9-1 1.9-.6 3.1-.7h1.7l3 .3 1.3.2v-1.1l-1.2-.2-3-.3h-1.9l-3.3.8-1.9.6-3.9 1-8.2 2.5-.1-.5-.2-2.1-12.8 3-15.5-32.8 20.4-11h-2.3l-18.6 10.5.3.5-.3-.5-19.1 10.8-5.2 2.5-3.5 1.5-.5-.5-1.4-.5-.4-1.1-1.1-1.7-1.3-1.5.3-4.2-.6-2.5 2.8-13.5h-1.2l-2.7 13.3-.7 2.6-1.5 4.3-1.8 3.9-1.8 3.3-1.8 3.7-3.7 8.7-1.3 5.1-.9 6.3-.7 6.1-.3 5.7.3 5.4.7 6.3 2.5 10.7 2.7 10 6.1 16.3.5-.2-.5.2 6.5 16.5-.3 2.3-.4 2-.9 1.7-2.8 1.4-5.4 2.1-6.2 2.9-4.3 1.3.2.5-.3-.5-4.7 2.5-5.3 2.2-6.2 2.2-6.2 1.3-4.2.5-9.1-.5h-3.1l-7.7-.6-4.4-.7-5.4-.4-8.1-1.8h-5.1l8.9-50.1 4.2-22.4h3l3.1-1.4 1-1.1 1.8.4 1.6 1.2 1.9 1.9 1.7 2 1.5 3.2 4.3 8.4 2.2 5 .3 2.3 1.7.9 1.1.6.2 1.2 1.6.1-1.1 7.7-3.9 23.4 1.1.2 3.8-23h2.4l10.1 1.8 5.4.7-.3 2.3-1.2 3.6-1.8 7.9-1.8 8.2-2.2 3.9 1 .5 2.2-4 1.8-8.5 1.8-7.8 1.2-3.7.5-3.5-6.5-.8-10.2-1.8h-2.3l1-7.1 2.7.5.2-1.1-3.3-.6-.1.5v-.6l-1.3-.1-.1-.9-1.6-.9-1.2-.6-.3-1.8-2.3-5.2-4.3-8.4-1.5-3.3-1.9-2.2-2-2-1.8-1.3-2.8-.6-1.2 1.3-2.6 1.2h-2.6l2.3-15.2 3.8-23.8 3.4-8.9 21 23.4 10.6 11.9.8-.7-10.3-11.6 5.2-11.5 15.1 8 .5-1-15.1-8.1 7.7-16.5 18.7 8.8.5-1-18.7-8.8 5.8-12.4-1-.5-5.800000000001 12.4-24.8-12.1 2.4-4.9h-1.2l-2.2 4.4-9.4-4.4h-2.6l11.5 5.4-8.9 17.8-14.3-7.7-.1-.1-3.5.2-2.2.6-1 .2-.9-3.6-1.1.3 1 4.1 1 4.7.5 3.1 1.1 3 1.2 2.6 1.7 2.7 1.5 3.7 3.3 8.9 1-.4-3.3-8.9-1.5-3.8-1.8-2.8-1.2-2.5-1-2.9-.4-3-.9-4.2 1-.2 2.1-.6 3.1-.1 14.3 7.7-3.6 9.4-3.9 23.9-2.3 15.3-2.1-.4-8.3-3.4h-2l-1.6.2-12 3.1-27 7.7-17.6 3.7-18.4.6v.6-.6l-6.5.3-25.6.4-5.6-5.2-19.1-18.6-26.3 24.4-2-1.8-1.9-1.5-2.6-1.8-1.3-.7-2.8-.2-1.5-1-1-.4-4.5-2.4 5-3.3 6.2-7.1 6.5-8.6 1.2-1.6 3.2-4.4 4.2-8.6.6-3.6 17.3-26.9-.5-.3.5.3 7.3-11.7h-1.3l-6.7 10.5-16.4-10.5h-2.1l17.9 11.4-17 26.4-.9.4-6.2-5.1.1-3.7v-4.9l-.2-7-1-8.8-1.7-8.7h-1.1l1.8 8.8 1 8.7.2 7v4.9l-.2 4h .5l-.5.1.4 1.8v3.8l-.3 7.3v8.1l-7.6 10.1-6 6.9-5.6 3.7h-3.5l-6.7 4.1-7.9 6.7-4.4.7-9.2 2.7 2.8-15.8 5.3-9.2 6.2-9.5-.5-.3.5.3 10.1-17.2 12-18.5-.5-.3.5.3 11.2-19.2h-1.3l-10.6 18.2-27.4-16.2.9-2h-1.2l-.9 2 .5.2-.5-.2-8.4 18.5-23.7-11.6 2.7-7.6.3-1.3h-1.1l-.2 1-2.8 8-2.6 4.6-3.5 4.2-3.5 2.8-2.5 1.6-2.4 1.7-12.2-23.9h-1.2l12.3 24.5-4.5 2.7-12.8 4.6-7.8 3.3-12.2-35.1h-1.2l12.3 35.5-22.6 7.7-8.9-24.9-.3.1.3-.1-4-10.9 21-7.4h-3.4l-18.1 6.4-2.5-6.4h-1.2l2.8 6.8-21.7 7.7.7-14.5h-1.1l-.6 15.2-.6 13-5.9 30.3-5.6 2-5.6-60.5h-1.1l5.7 60.9-10 4.6.3.6-.3-.6-46.6 23.3-10.6-21.8-7.9-16.8-.1-.3h-10.9v-.3l.2-.3 3 .1c.2 0 .4-.1.5-.2s.2-.3.2-.5l.1-3.2 2.3-3.4c.1-.1.1-.2.1-.4l1-25.2-.9-12.3-.5-2.2c0-.1 0-.1-.1-.2l-1-1.6v-.2h-1.5v.5c0 .1 0 .2.1.3l1 1.7.5 2 .9 12.1-1 24.9-2.3 3.4c-.1.1-.1.2-.1.4l-.1 2.7-2.7-.1c-.2.1-.5.1-.7.3l-.3.4.7-29.5.6-19h-2.5l-.1 2.3-.3 10.1v7.3l-17.1-.6.9-19.2h-1.1l-.6 19.1-8.7-.3v-18.8h-1.1l-.1 18.8-22-.4.5-18.4h-1.1l-.6 18.9h.6-.6l-.3 19.3-.7 20.5h.6-.6v9.2l-.4 10.4h.6-.6l-.7 32.3-.6 12-3.2 1.5.3-13.5 1-32.3h-.6.6l1-54 .2-5.3.6-19h-1.1l-.6 19-.1 4.6-1.2-.4-1.6-.1-1.9.2-15.9 3.3.2 1.1 15.8-3.3 1.7-.1 1.4.1 1.4.5-1 53.6-1 32.3h.6-.6l-.3 14-4.2 2-1.8.7-10.3 4.1-9-5.8-5.8-3.6-9.9-5.1-8-3.3-5.9-.3-2.3-46.7-4-34.2-6-23.9-.8-2.8-1-3.3 5.3-.9-.1-.6.1.6 2.8-.6 9-1.1h-9-.2l-2.8.6-5.5.9-.3-1.5h-1.5l.6 2.1 1.2 4.1.7 2.5-14.5 9-3.5-4.6-14.6-13.1h-1.6l15.4 14 3.3 4.4-25.5 16.1-12.9-21.3-7.7-13.2h-1.3l7.9 13.3-1.6 1.2-5.1 3.2-1 .4-1 .9-.7.8-3.5 2.6-6.9 4.6-7.8 6-2.5 2.4-3.2 2.6-4.3 3.1-7.1 4.4-7.5-12.4-5.2-9-.2.1.2-.1-14.3-23.3 1.2-.8h-3.7l.4.7-34 21.8-16.1-22.5h-1.4l16.7 23.1-4 2.2-29.8 3.5-2.8-28.8h-1.1l2.9 28.9-28.7 3.1 1.5-32h-1.1l-1.5 32.1-27.4 2.2.1-4.3.3-2.9 1-8.4.7-3.9 4-13.1.7-1.7h-1.6l-2.4 5.7-1.9 7.8-1.2 6.4-1 10-.1 3.8-.1 1.2h.1v.1h-.1v1.8l-.6 12.3v15.3l.5 13.8.3 3.1-22.5 1.9-4.6.3-12.8 1.9-8 1.8-4.3 1 .1.5-.2-.5-8.4 2.8-8.7 4-5.8 3.4-6.7 4.2-6.7 4.8-4.1 3.5-1.1 1.4-16-9.7-8.2-5.6-5.7-5.1-.9-.3-.7-.8-1.1-1.6-.5-.7-2.2-4-1.6-2.6-1.7-2-2.7-2.7-9.2-8.6-20.3-17.7-7.4-7.7-4.3-4.7-6.7-8.3-6.6-8.2-.5-.9-1.6-2.6.3-1.8.1-2.2-.1-1.5-.6-1.3-2.6-6.8-2.3-4.9h-1.2l2.4 5.4 2.5 6.8.6-.2-.5.2.5 1.1.1 1.3-.1 2v .6l-4-6.2-4.3-7.8-1.1-2.5 1.6-.7h-3.2c-.1.1-.2.2-.3.3v.1l-3.1 1.7.3.5-.3-.5-14.1 7.8-2.5-4.1v2.2l1.5 2.5-1.5.8v1.3l2.1-1.2 10.1 16.9 13 27.5-6.9 5.9-12.5 10.1-2.3 1.8-3.5-7v2.5l2.9 5.6 6.7 14.9-1.5.6-8.1 5v1.3l8.6-5.3 1.5-.6 9.9 18-13 8.1-7 5.3v1.4l7.7-5.9 12.9-8 10.5 19-7.2 5.7-3.3 3.1-2 2-2.6 2.7-2.6 2.7-2.5 3.3-2.2 3.1-1.6 2.1-.1-.2-.5-.7-2.5-5.7-2-5-2-3.9v-.2 3.3l.7 1.5.9 2.4-1.6.5v1.2l2.1-.7 1.5 3.6 1.1 3.8 1.2 1.7-.6 1.5-2.1 3.3-2.1 4.4-1.1 2.4v2.7l2.1-4.6 2.2-4.3 2.1-3.4.5-1.2 1.4 1.6 1.3 1 2 1.6.5.4 1.1.8 11 7 .8.5 2.7 2.3.3.2 5.3 4.8 2.5 3 .6.7.5.7.7 1 1.4 1.7 1.2 1.7 1.1 1.9-3.1 3.5-4.4 5.5-5.8 12.3-4 8.8-6.1-3-14.5-8.3-3.4-2.1v1.8l2.5 1.6 14.6 8.3 6.7 3.3 5.1 2.2 1 .4.6.3v.1s0 .1.1.1v.3.2l-5.4.1h-2.2l-1.5-.1-3-.1-18.5-.1v1.5l18.5.2 3 .1h1.2l-2.5 5.8.2 2.5 6.6 8.2 1.9 1.4 2.3 3.5.5-.3-.4.4 3.5 2.9 2.6-4-2.9-1.6-3.6-1.8-.2.5v-.6h-1.1l-1.7-1.3-6.3-7.9-.1-1.9 2.6-6h7.5l28.7-.6h.5 1.9l6.2-.6 1.2-.1h.2l1.4-.1v-.4l.1.4 2.1-.4 1.2.4h.2l1 .1h.1.1l1.4-.2 1.2-.4h.1.1l1-.7c.1-.1.1-.1.2-.2l.2-.2.5-.1-.1-.4.1.4 4.8-1h1.7l25.6-6.4 2-.6 8.1 29.7 1.1-.3-8.1-29.8 2.1-.9 5.8-2.8.9-.5 5.4-2.9 6.6-4.6 1.4-1 3.3-1.8 1.4 1.1 7.3 12.5 2.9 6.5 1.8 6.2.5-.1-.5.2 1.8 3.9 2.8 4.1 3.3 3 4.8 3.6 7.4 4.7 7.2.8 3.3.2-6.1 6.6-9.7 3.4-11.6 3.6.3 1.1 11.6-3.6 9.8-3.4 7.2-7.7-.4-.4.5.3 5.8-9.6 7.6-27.8 3.3-15-.1-15.5 28.8-2.8.8 5.9.5 4.1 4 29.7-8.8.9 4.8 37.2 1.1-.1-4.7-36.1 7.7-.8 5.3 40.6 5.5 41.8.1 1.6v1.1l-.2 2.6-2-1.6-3.9-2.5-5.7-1.9-20.4-3.4h-.2l-6.2 3.2-.2-.3-.5.3-.3-.4-16.8 12.5-3-8.6-3.4-4.6-4.5-2-2.9-.8-4.2.5-13.2 3.7-4.9-1.1-4.7-3.6-.7.9 4.8 3.7 5.6 1.3 13.3-3.9 3.9-.4 2.6.7 4.2 1.9 3.1 4.1 2.9 8.2.3.9-1 5-2.5 6.3-4.5 8.3-8.5 14.2-6.6-2.1h-.2l-6.7 1.9-.7.2-2.5.7-.3.1-.3.1-2.1.6-1.7 1.2-.1.1-2 1.2-14.8 10.2-6.6 4.1-2 1-2.6 1.2-5.4 1.9-5.5 1.3-6.4 1.3-5.5 1-8.5 1.1-2.4.1h-2.8c-.2 0-.3 0-.4.1l-5.6.2-11.1-2.5-18.7-6.2-34.9-8.7-16.5-5.9 8.5-31.7 4.3-23.9-1.1-.2-4.3 23.8-8.4 31.6-1.6-.7v1.2l1.8.8.2-.5-.2.5 17 6.1 34.9 8.7 18.5 6.2 11.1 2.5 1.8 1.8-1.3 1-1.2.9-1.5-1.1-2.8-1.2-15.5-4.3-3.3-1.2-3.3-1.2-2.7-1-1.7-.6-23.8-5.9-3.4-.8-3.4-.8-3.5-1-3.5-1-4.6-1.6-9.6-4.2v1.6l9.1 3.7 4.6 1.6 7 2.1 27.5 6.8 1 .2 2 .5h.1l4.2 1.6 6.4 2.3.3.1 15.5 4.3 2.5 1.1 1.7 1.3.7.6 1.4 1.4 1 1.2 1 1.2 1 2.5.3.9.3 3.9-1.1 1.4-.4.4-8.5-1.3-.6-.1-2.4-1.2-.9-.2-1.8-.5c-.1 0-.1 0-.2 0h-2-1l-2 .5-2 .5-.7-.3-2.2-.8-6-2.8-11.1-5.1c-.4-.2-.8 0-1 .3l-1.9 3.9c-.1.2-.1.4 0 .6s.2.3.4.4l18.2 9.1-.8 3.1-.1 3v .2l.4 2.3-.1 1.7-.6 1.3-5 3.4c-.2.1-.3.4-.3.6v2.5c0 .1.1.3.1.4v.1l.9 1 1.2 1.4.1.1 4.6 3.1c.1 0 .1.1.2.1l2.7 1 2.7 1c .1 0 .2.1.3 0l3.4-.4 3.5-.4v3.5l-1.3 1.6-2.1 2.5c-.2.2-.2.6-.1.8l.6 1 1.2 2.1-.7.4-1.8 1.1-11.3 6.2-7.3 4-8.4 4.8-3.1 2-1.5 1-.2.1-8.1 5.7-3.3 2.4-7.5 5.3-18.7 14.1v1.9l4-2.9 3.3-2.4 12-8.7.4-.3 19.1-13.5 1.5-.9 3.1-2 8.3-4.7 7.3-4 11.3-6.2 2.3-1.4.9-.5c.3-.2.5-.6.3-1l-1.2-2.2-.6-1.1 2-2.4 1.3-1.5c.1-.1.2-.3.2-.5v-4.6c0-.2-.1-.4-.3-.6-.2-.1-.4-.2-.6-.2l-3.9.5-3.7.4-2.6-.9-2.6-.9-4.4-3-1.8-2.1v-1.8l4.9-3.3c.1-.1.2-.2.3-.3l.7-1.6c0-.1.1-.2.1-.3l.1-1.3.1-.6c0-.1 0-.1 0-.2l-.4-2.2v-.2l.1-2.7.9-3.6c.1-.3-.1-.7-.4-.8l-18.1-9 1.3-2.5 12.6 5.8 3.9 1.8 1.6.6 1.5.6c.1.1.3.1.4 0l2.1-.5 2.1-.5h2.7l1.2.3 1.2.3 2.4 1.2c.1 0 .1.1.2.1l.7.1 9 1.4c.3 0 .5-.1.7-.3l1.1-1.4.8-1c .1-.1.2-.3.2-.5l-.3-4.3c0-.1 0-.1 0-.2l-.3-1.1-1-2.7c0-.1-.1-.1-.1-.2l-.6-.7-1.5-1.9-1.5-1.5 1.3-.9 1.2-.9 4.2 4.1 2 9.7.3 5.2-3.4.6-5.7-.1-7.5-2.3-5.5-2-5 1.8-12.1-5.5-.5 1 11.7 5.4-2.3 2.2v7l6.2 4 5.9-1.2 16.1 1.4-.9 5-6.2-.3h-.1l-8.6 4.3-8.1.3-7.4-3.9-.5 1 7.6 4 .1.1 8.5-.3 8.7-4.3 5.9.3-1.7 6.9-2.5 5.3-8.5 6.9-4.3 2.8-26.9 15.3-6.2 3.9.3.5-.3-.5-13.7 9.5.3.5-.4-.4-2.6 2.2-4 2.5.3.5-.3-.5-8.3 6.1-6.1 4.7-5.3 3.3v1.3l5.9-3.9-.3-.5.4.5 6.1-4.7 8.3-6.1 4-2.5 2.7-2.2 13.1-9.1 1.2 2.1 3 3.7.4-.3-.4.4 7.9 8.7 7.7 9 6.5 8.1 1 2.8v1.3l-.7 1.7-.9 2-7.8 2.9-23.3 8.2-33.9 10-.9.4v1.2l1.3-.5 33.7-10.3 1.4-.5-1.7 1c-.2 0-.4 0-.5.1l-5.9 3.5-3.8 1.8-3.2 1.5-5.7 2.2-5.8 1.8-9.5 2.5-.3.1v1.6l10.3-2.6 5.8-1.8 5.9-2.3 3.8-1.9 3.2-1.6 5.2-3.1 1.3 3-13.9 6.4-9.6 1.8-10.8 2.5-1.2.6v1.2l1.6-.7 10.7-2.5 3.9-.7-16.2 6.3v1.2l22-8.6 13.9-6.4 3.6 8.2-30.4 18.1c-.3.2-.4.5-.3.8l3.2 10.7 1 3.7h1.6l-1.2-3.9-3.1-10.4 30.5-18.2 34.3-17.8 33-15.5 17-5.5 14.7-4.7 28.5-5.5 2.8-.5.9-.1 24.6-1.9 20.7.6.2 2.3.3 5-1.9-.2-3.7-.3-9.1-.5-6.3-.4-9.4.1-3 .3-1.7.7-4.2-1.4-2.8-.6h-.1l-3.5.3-6.7.6-11 1.2.1 1.1 11-1.2 5.8-.5-.6 1.4-.9 2.5-1.2 2.5-2.1-.2-4.5-.7h-3.7l-3.3.4-1.3 1.7-1.4 1.9-1.5 2.5-1.3 4-1.5 4.8-.8 2.6v1.9l.2 1.2-10.6-1-11.5 1.6-24.1-.6h-.1l-5.7 1.4-7.6 3.4.2.5-.5-.3-2.3 3.8-13.1 9.4-6.4 4.9h-1.6l-2.6 1.2-3.2 2.6-.8.9-1.4 2.3-4 4.3-5.8 5.2-4.6 4.6-1.3 2.8-1.4 3.4h1.2l1.1-2.3 5.9 2.3h3.1l-8.5-3.3.9-2 4.5-4.5 5.8-5.2 4.1-4.4 1.4-2.3.7-.8 3-2.4 2.1-1h .1l-.2.2-1.3 2.7.6 2.8 2.8.4 3.6-1.7 1.3-.1 3.5 1.2 3.7 1 6.7 1.7 1.3.6-.7.3h-4.7l-8.8.9-3 1.7-5.9 5.9-1.8 4.6.7 3.8h1.1l-.7-3.7 1.5-4 5.7-5.7 2.7-1.5 8.6-.9h4.8l2.2-.7 12.5-1.9 1.4.4 2.1 5.1 1-.4-2-4.8 6.1-2.4 2.9-.8 1.9 1.2 3.5 3.9 3.5 1.5 4.9 1.7 11 1 1.2 1.8.9-.6-1.5-2.3-11.4-1-4.7-1.6-3.1-1.3-3.5-3.9-1.2-.8 4.9-1.3h9.4l9.4-1.6 9.6.3 3-.5 2.7-3.4.4-.7.4 1.5.7 2.3-.3 10.7h1.1l.3-10.9-.8-2.4-.7-2.7 1.4-7.8 3.8-9.2 3.6 1.2 5.7 1.2 3.5 1.3 5 2.2 9.2 4.4 2.9-.6 8-4.5 3.2-1.3 4.7-.9 4.5-.6 5.6-.1h2.3l-.3 1.7-1.2 6.9-2.5 11.4-4.6 22.1-.7 3.2h1.5l.6-2.8 4.2-20.2 1.4-6.6 1.5-6.8 16 4.6 37.2 10.8 3.4 2.7 5.2 7.2.5-.3-.4.3 8.5 11.1h1.4l-8.8-11.4 4.5-4.8.5.8.5.7.4 1.3.3 1.3 8.1 10.9.9-.7-7.9-10.6-.3-1.3-.4-1.5-.7-.9-.7-1 4.9-5.4.5-.3h1.1l1 .4 16.5 17.6 4.4 4.8h1.5l-5.1-5.6-10.6-11.3-5.1-5.4-1-1-1.4-.6h-1.7l-.9.5-5.3 5.9-4.9 5.2-4.8-6.7-3.3-3.2-37.5-10.9-16.2-4.6 1.4-8.1.1-.9.5-3.2.6-5.1v-1.8l.1-3.8v-4.2l-.6-11.6-.2-1.8-.5-5.3 6.6.1 8.1 1.7 9.8 3.7 17.9 8 22.5 12.3 16.1 11.7 14.4 13.3 16.9 17.7 8.9 9.3-1.3 1.6-1.8 2.4-30.3-32.3-3.4-3.6-.8.8 33.8 36-.7.8h3.3l2.9-3.8.1.1-2.9 3.7h1.4l2.3-2.9 2.8 2.9h2.1l-4-4.1 4.6-5.4 4.7 3.5 6.8 6h1.7l-7.8-6.8-4.8-3.6 3.9-6.3 9.1-12.3 5.7-6.9 1.8-2.1 1.3 2 17 13.2 27.9 22.9h1.8l-29-23.8-16.9-13-1.5-2.2 3.2-3.7 7.7-8.6 46.9-51.1.7-.8 2.8-2.7 2.8-2.7 10.1-9.2 6.3-5.9 5.4-5 .4-.4.9-.9 2.3.3.4.1.6.1 6.9 1.2 5.9 1.7.8.2 4.2 1.6 10.9 3.7 10 3.2 1 1.2.4-.4-.2.5 3.3 1.5 5.9 2.5 3.1 1.8 1.1.6-1.8 6.2-.9 2.2-.7 1.4-.2.4-4 5.4-1.8 1.6-5.9 3.1-1.8.7-5.6 2-.8.4-2 1.1-.6.5-1.6 1.4-2.2 2.9-6.9 14.2-6.9 14.2-13.1 26.3-2.5 6.1-2.2 6.6-.6 2.4-.8 3.2-.3 3.4-.2 1.7.1 2.7h1.5l-.1-2.6.1-1 .3-3.9 1.2-4.8.2-.7 2.2-6.5 2.5-6 13.1-26.3 1.8-3.7 13.5-26.7.5-.7.5-.5 8.2-4.1 1.4-.5 3.6-1.5 2.6-1.2.6-.4.8-.6 2.6-2.3 1.3-1.6.2-.2.3-.4 1.5-2.2 1.1-2.2.4-.7.9-2.3 1.5-4.8.4-1.3 13 1.7h5.5l4.1-.3 4.7-1 2.6 2.8 13.3 26.3 14.2 29.5 5.6 14.7-3.8 2-5.2 1.8-6.4 2.5-14.3 7-6.8 3.8-3 1.5-3.9 2.1-3.7 1.9-7 3.9-3.6 1.9-14.2 7.5h2.4l5.5-2.9 6.8-3.6-.3-.5.3.5 10.5-5.8 3.7-1.9-.1-.3.1.2 3.9-2.1 3-1.5-.3-.5.3.5 6.8-3.8 14.2-7 6.4-2.5 5.3-1.8 3.7-1.9.2.8-3.4 1.1-4 1.9-1.6.6-5.1 2.3-2.5 1.1-7.5 3.6-.8.4-13.1 6.8-4.8 2.5-20.8 10.8-5.2 2.8h3.2l42.2-22.1 7.4-3.6 2.5-1.1 5-2.3 1.6-.6 4.8-1.9 3.2-1 .1.7-4.4 1.1-23.2 10.6-19.5 10.3-5 3.1-4.8 2.4-5.8 3.1-2.8 1.4h2.4l.8-.4 5.8-3.1 4.8-2.4-.3-.5.3.5 5-3.1 11-5.8 8.3-4.3 23.1-10.5 4.2-1 .9 4.2 5.1 15.1 2.3 7.2-9.9 2.8-3.6 1.3h3.3l.6-.2 9.9-2.8 1 3h1.2l-1.3-3.9-.5.2.5-.2-7.6-22.8-1-4.7-.1-1.4 7.7-2.4 7.9-2.9 4.9-1 9.4-1.6 17.5-3.3 4.3 17.4 4.6 17.7 1.6 6.8-1.8 1.2c-.3.2-.4.5-.3.8l.1.3h1.5v-.1l.9-.6.2.8h1.1l-.3-1.4.9-.6 1-.6c.3-.2.5-.5.4-.9l-.4-1.5 1.9-.6 17.2-7.1 8.8-3.7 6.3-3.1c.2.1.4 0 .5 0l2.9-1.5 2 4.1 1.2 2.7c.2.4.6.5 1 .4l1.3-.6 2.5 5.2-26.5 9.2h3.4l23.6-8.2 4.1 8.2h1.2l-4.6-9.2-2.8-5.7.5-.1c.1 0 .2-.1.3-.2l.3-.1c.2-.1.4-.2.5-.4s.1-.4 0-.6l-2-3.9 1.1-.4 18.9-5.5 1.1-.3h.1l1 2.2 2.8 3.7c.1.2.3.3.5.3.3 0 .4-.1.6-.2l2-.8c.3 0 .5-.1.7-.4.1-.2.1-.5 0-.8l-2.2-3.5-.6-1.3 6.7-2.4.4-.1.2.1c.2 0 .3.1.5 0l10.4-3.9 3.7-1.5 41.3-14.7 3.8-1.5.5-.3 6-1.9.4-.1.6.2.6.8-.1 1.8c-.2.1-.3.4-.3.6v.3l.1.6-.1.6-.2.7-.5.5-.9.4c-.4.2-.5.6-.4 1l .3.7c.1.4.6.6.9.4l3-1 .5-.2v.2l-3.3 29.5-1.6 16.4h1.1l1.6-16.3 3.3-29.5.1-.8 3.4-1.4c.3-.1.5-.5.5-.8l-.6-3.5.3-2.1c.2-.1.3-.4.3-.6 0-.1 0-.3 0-.3l-.1-.4v-.6l.1-.5.3-.4 1.2-1 9.5-4.9c.1-.1.2-.2.3-.3l7.5-2.6.4.3c.2.2.5.2.7.1l20.5-8.2.3 2.8c0 .2.1.3.2.5v5.8c0 .2.1.5.3.6s.5.2.7.1l5.6-2.1c.3-.1.5-.4.5-.8l-1-8.3-.1-1.9-.1-4.9.2-.1-.2-.4.2.4 9.9-5.8 36.7-15.4 9.1 17.2 19.3 36.1-40 14.9-8.6-11.8 3.1-4.7-.9-.6-2.8 4.4-5.8-7-4.8-6.2-1.9-5-2.2-4.7-1 .5 2.2 4.7 1.9 5 5 6.4 6.1 7.3-4 13.6-1.8 21.7h.6v.6l29.8-1 5.3 10.6.6 1.3h1.2l-.5-1.1 40.2-7.8 4.8 8.9h1.3l-5.3-9.8-.5.3.5-.3-18.5-34.7 54.3-3.9 3.4 46.9.1 1.5h1.1l-.1-1 40.9-2.6.2 3.6h1.1l-.2-3.7 26.3-2-.3.8.3 4.9h1.1l-.3-4.7.3-.8 12.2 5.5h2.7l-14.5-6.5 10-21.9-.5-.2.5.2 10-23.2 26 11.6-4.8 10.7-1.5 3-6.8 16.2-4.6 10.2h1.2l4.1-9.2 9.7 4.5-3.7 4.7h1.4l3.6-4.6-.4-.3.5.2 1.7-4.5 10.3 4.5.5-1-10.3-4.5 3.4-7.8-1-.4-3.6 8.3.4.2-.4-.2-1.7 4.5-9.8-4.6 6.6-15.6 1.2-2.5 26.8 11.3 2.4 1.4.6 1.5.3 2.7-4.9 11.4h1.2l4.8-11.1.1-.1-.3-3.1-.9-2.1-2.7-1.6-14.3-6.1-12.5-5.3 4.6-10.3 91 39.7h2.8l-.9-.4-92.5-40.3 2-4.2 10.3-24 .7-3.1-.5-.1.5.1 1.3-6.2-1.1-.2-1.3 6.2-.7 3-10.2 23.9-2 4.3-26.5-11.8-42.9-19.9-.2.5.2-.5-5.7-2.2h10.3l10.2.1 8.2.3 7.7-.3h6.9l7.7-.9 7.9-1 6.1-1 3-.7 3.5-1 13.8-1.8 7.6-1.2 5.9-1.8 7.3-1.2 8.5-1.6 7.7-.4h9l10.8 2.1 14.1 3.3 11.1 2.5 7.7 1.9 10.1 2.4-.1 7.4-.9 6.2-1.2 9.3-.7 5.2-1.5 7.5-3.3 9.1-1.8 9-3 9.5-1.6 6.5-1.6 5.7h1.2l1.5-5.4 1.6-6.5 3-9.6 1.8-9 3.3-9.1 1.5-7.6.7-5.2 1.2-9.3.9-6.3.1-7.2 2.9.8.3 7.2-2.2 15zm7.3-26.9-.1.2zm-.8.5-1.7 3.8-.2-4.5zm-125.2-373h-.2zm-7.4-100.8 24.9 12.1-7.9 17 .5.2-.5-.2-5.3 11.5-20.6-22.7zm-190.7 40.5.3-7.3v-4l-.1-.3 5.4 4.4.3.2.7-.3-.4 2.5-4.1 8.4-2.1 2.9zm-858.5 195.2 3.4 1.7 1.9 1-1.3 1.9-2.4-2.1-1.7-2.6h.1zm1160.6 143.2.5-.1-.5.1 7.4 24.8 3.3 11.1 2.4 8.7 1.6 9.1 1.8 8.3.4 3.7-3.3-.8-.4-4.2-1.3-11.6-1.2-6.4-5.1-17.5-7.3-25.9-3.8-18.2 1.8.3zm10.4 71.9h-3.7l-14.3-1.5-12.4-1.2-16.2-.6h-.1l-4.5 1.3-11.4 1.2-9.8 1.5-17.6 4-7.2 2.4-5.8 1.2-8.2 2.5-6.9 2.1-7.6 1.6-5.1 1-8.6.7-6.5.3h-21.8l-4.9-.3-4-.2-4.8-.3-6.8-.3-6.6-.7-23.6-9.3-2.3-2.6-16.1-7.7-15.3-7-4.7-3.4-1.7-3.4-2.3-5.1 1.2-9.1 2.4-10 16-1.9-.1-.6.1.6 16-2.1 16.6 1.6 12.3 1.2h.2l12.5-9.6 8.8-6.9 23.6 14.7 5.5 2.6 13.2 3.3 10.4 3.6.2-.5-.2.5 9.6 3.3 18.4 4 9.1 2.7-1.1 8.3-1 5.8.5.1-.6-.1-1.5 9.8-.7 4 1.1.2.8-4 1.5-9.8.9-5.2 33.2 5.4 24.7 4.6v-.1.1l9.6 1.6 3.2.3 3.8-.3 2.6-.5 2.1-.7h2.2l1.5-.3 4.7 1.1.3 2.8zm-195.2 15.9 5.8 3.1-5.4-.9-17.3-4.4-17.4-6.1-39-18.3-3.7-2.5 6.4 1.2 13.6 5.3 23.2 10 9.9 3.3zm-71.5-33.4 1.8-1 3.4-3.9 2 4.4.5-.2-.5.2 1.8 3.6 2.2 1.6-12-4.1zm8.8-61.1 4.3-.1 4-.3 4.8-.3.1 4.1 1.3 13 1.4 16.5-15.3 1.8-1.7-13-2.2-16-.7-5.2zm-4-.5-.2-1.1v-1l17.4-1.3-.1 1.2v1l-4.8.3-4 .3-4.4.1-2.5.3zm7-136.6-3.4-5.4-3.6-4.5-2.1-4.2 2.7-.2 14.4-18.6 8.2-12.1 4.8-8.8 3.4-6.8 5.8-12.6 3.1-7v-2.2l-2.3-3.6-1-2.6-.5-1.4 2.3-1.5 4.2-13.7 5.7 1.1 6.4 1.3.1-.5-.1.6 20.5 3.3-5.3 28.1-17.6-3.5-.2 1.1 17.6 3.5-3 15.5-.1.3 22.2 23.8 2.8 1.5-13.6 13.6-6.5 6.1.4.4-.5.2 3.7 10.8 7.4 20.8.5-.2-.5.2 9.7 26.7-9.7.3-7.9-.9-12.3-3.4-3.2-1-17.8-6.5h-.1l-7.7.7.1.6-.1-.6-20.4 2-2.5-17.9-.7-4.6-.6.1.5-.1zm-46.3-34.6 23.7-17.1 12 36.9-20.1 14.4zm-8.8-.4 4.6-24.8 29.2-12.3-2.6 15v .1l1 4.1-24.3 17.6-8.7 5.8zm84-55.3-.3-.4-50.6 37.2-.8-3.4 2.8-15.9 2.2-8.4 8.2-9 8-9.3 7.6-8 1.4-3.3 27.6 5.4-4.1 13.2-2.4 1.5zm-76.2 56.3 15.6 34.2-3.9 3.1-.4 9.3-22.8 12.3-7.8-8.5 10.3-44.3zm25.6-18.4 50.3-37 .4 1.1 1.1 2.8 2.1 3.4v1.5l-3.1 6.9-5.8 12.6-3.4 6.8-4.7 8.7-8.2 12-14.1 18.2-2.6.2zm196.6-43.9 13.4-6.1 1.4-.7h2.6l1.8.7 1.3.2 10.6 26.9 17.6 42.9-34.4 10.2-1.9-6.3-1.1.3 1.9 6.3-25.9 7.7-11.7-29.2-.5.2.5-.2-8.8-21.1-4-9.1-2.2-2.3 2-2.8 4.1-2.7 5.1-1.9h1.7v-1.1h-1.8l-5.5 2-4.3 2.8-2.1 2.8-1.4-1.6-2-6.2-.7-3.2 9.8 1.2h7.8l6.7-1.1 9.7-3.9 4.8-2.2zm19.6-7.9.4.8-.5-.1-1.8-.7h-.7l1.4-.4.8-.5zm47.3 247.5 7.3 26 5 17.5 1.2 6.3 1.3 11.6.4 3.9-3.9-.9.7-5 .2-2.1v-5.9l-.8-3-2.7-9-3.6-12.5-7.3-25.7-.5.2.5-.2-5-17-.5-1.9 3.8-.6zm-80.9 42.3-18.4-4-9.1-3.1 3.2-37.1 26.6-3.9 3.1 19.2 39 4.6 13.4 6.6-4.8 10.8-11.4 24-32.8-5.3 1.2-8.7zm-89.9-36.5-22.3-10.3.6-2.5 12.8-3.9-.2-.5.2.5 9.1-3 14.4-5.3 11-3.7 9-3.8 9.9-3.2 3 28.6-14.6 1 .1 1.1 14.6-1 3.3 31.6-12.3-3-5.3-2.5-23.9-14.8-.3.5.3-.5zm-40.8-13 5.4 1.1 6.1 1.3 5.8 1.1-1.7 29.9-15.6-1.5zm0-2.7.2-.9 17.8 3.8-.5 2.2-5.7-1.1-6.1-1.3-4-.7-1.6-.4zm18.4 6.6 22 10.2 8.5 4.6-8.4 6.6-12.2 9.4-11.6-1.1zm3.7-94.5 2.8.9 2.9 40.7-13.8-.3-13.7-5.4-4.7-3.3 1.7-30.1zm-24.8 1.3v-7.2l6.9-.7 15.4 5.6zm30.6 41.4.6 11.2-13.1-11.5zm-1.8-41.5 11.7 3.2 7.7.8 10.5 29.2-14 4.1-13 2.8zm65.7-60.6 5.1 12.1 1.1 2-11.5 4.8-9.5 4.4-20.4-38.5 13.5-12.5 7-6.6 8.5 19.7.5-.2-.5.2zm6.9 14.3.2.5.9-.4 1-.2 5.1 12.4-24.1 10.4-4.5-12.8 9.5-4.4 12-5zm79.2 45.8-26.2 1-9.4-32 24.5-7zm .7.5v.6l21.3-.7-1.7 16.2-54.4-3.8-.7-9.8 8.1-.8 27.3-1zm19.6 137.9-1.7-.4-5.3-2.2-3.3-1.8-1.6-.7-1.4-.8 4.9-10.8 1-2.1 4.1 1.4 4 1.8 2.1 1 1 1 1.1 1 1.2 1.4h.3 1.3l3.3-.7 6.6-1.8 3.3 11.5-1.2.8-4.8 1.2-4.3 1.3-1.6.4h-1.3l-1.4-.4-.2.5.1-.6zm5.5 2-1.7 10.5-2.6-.5-2.7-.6 1.9-10.2zm-29.3-56.1 19.6-3.5 4 14.8 1 4.8-.9 1-1.9 4.4-6.2 12.9.5.2-.5-.2-.9 2-13.1-6.4.9-17.4zm1.3 12.6-.9 17.1-37.6-4.5-3-18.3 39-6.6zm33.2 28.4-3.1.7h-.9l-.9-1-1.2-1-1-1-6.4-3-3.3-1.2-.7-.2 6-12.4 1.7-4.2.9-1 8.7-2.1 7 24.6zm-8.9-25.5-.9-4.5-4-14.7 7.8-1.3.5 2 4.9 16.5zm-5.7-20.2.1.6-.1-.6-20.7 3.7-40.1 6.8-27.1 3.9-3.6-33 43.1-14.7 20.3-5.8 12.7-1.6 6.5.5 11.5-.7.4 3.2 5.4 36.3zm-137.2-75.3h32.8l6 26.6-27.3 5.6zm54.4-25 .4 3.1v6.1l.3 11.4v3l-21.5.3-8.5-25.2 24.1-10.4zm-4.8-12.5.3-.1zm6.1 36.6v.6l29.3-1 .7 10.3h.6-.6l.6 7.5-46.4 9.9-6-26.4 21.7-.3zm-16.6 28.6 1.9 11.2-.8 2 4.8 13.1 1-.4-4.7-12.7.7-1.9-2-11.5 46.2-9.8 1.7 23.6-43.1 14.7-16.5 5.6-9.9 3.2-2.1-14.4-4.6-17.1zm5.6 29.5 3.6 32.7-16 1.4-3-28.8zm95.3-28.4-.3 4.6-11.5.7-6.5-.4-12.9 1.6-19.7 5.6-1.7-23.9h-.6.6l-.5-7.4 54.2 3.8zm-55.1-65.2-3.6-12.4-6-14.7 25.8-7.7 8.3 27.9zm-4.6-12.1 3.7 12.9.5-.2-.5.2 9.5 32.3-7.9.8-29.2 1v-3l-.3-11.4v-6.2l-.4-2.8 17.4-6.2-.4-1-17.3 6.2-5.1-11.8-5.3-12.8 29.4-12.6zm-35.9-3.1-12.2-28.4 30.2-12.9 11.5 28.6zm-25.6 10.8-29.2 12-7.2-20.2-3.6-10.5 6.3-5.9 13.6-13.6zm.5 1.1 4.7 13.2 8.5 25.4h-32.9l-9.6-26.6zm-8.7 72.7 4.7 17.6 2.2 14.6-8.6 3.7-10.5 3.5-12.7-37.8 14-4.1-.2-.5.5-.2-10.6-29.4 9.4-.3zm-26 1.8 12.7 37.9-13.9 5.1-8.4 2.7-2.5-30.5-.7-12.6zm47.8 57.6 15.9-1.4-3.2 36.6-9.4-3.2zm95 36.8 1.3.8 1.6.7 3.3 1.8 3.9 1.6 1.6.6 1.3.3-2.1 11.3 3.3.7-1.7 9.6-23.4-4.4zm15.2 18.1 3.1.6 1.9-11.5.9.3h.2 1.5l1.8-.5 4.3-1.3 4.9-1.2 1.2-.7 2.5 8.3.7 2.7v5.8l-.1 2-.7 5.1-1.1.2h-2.2l-2.3.8-2.5.4-3.6.3-3.1-.3-9-1.5zm4-73.6-5.4-36.2-.4-3.1h4.7l4.9 38.7zm-1.7-61.9.6 21.5h-4.6l.3-4.4 1.2-16 1.8-17.4 1-10.1-1.1-.1-1 9.6-21.1.7-11.2-38.2 30.6-8.7 3.5-.6.3 5.8.3 4.9.1 14.8zm-3.8-64.2-30.7 8.7-8.3-27.9 34.5-10.2 4.9 12.7 3.3 16zm-93.6-73 1.9 2 4 9 8.5 20.6-30.2 12.9-9.1-20.8zm-16.5 45.4 12.4 28.8-.9.2-.6.2-1.1-2-5.1-12-6.2-14.5-5.5-12.9-3.1-7.3 1-1.2zm-11.2-20.1-7.5 7.1-13.5 12.5-2.8-1.5-21.7-23.3 3-15.2 6.3 1.1 24.5 4.6 13.3 13zm-12.1-16-24.1-4.5-6.3-1.1 5.3-28.1 29.7 5.9zm-68.6 105.3v7.7l-1.7 29.9-7-4.6-6.9-5-.9-2-3.2-24zm-1.2 38.6-.1.1zm-15.3-9.9 7.1 5.1 7.9 5.2 4.7 3.3-9.3 24.1-25.2-26.1 14-13.3zm11 39 9.6-24.8 13.2 5.2 15.1 13.1 2.5 30.5-12.5 3.8-18.7-4-.1.5v-.6l-18.3.7zm8.4 25-.2.9v1.5h-10.5l-6.5.4h-.9v-.9l.1-1.3zm-.2 3.6v32l-15 1.9-1.4-16.5-1.3-13-.1-4h .9l6.5-.4zm228.5 77.9.4 2.6-1.9-.6zm-16.9-90-1.8-.3-4.9-38.7h1.8zm11.5-148.2 10.5 21.1-26.2 7.2-.4-6.7-3.6-16.8zm-9.6-158.7-2.2 1.4 2.2 7.8 6.5 25.1.8 3.4 1.5 3.6 1.3 3 .6 1.3-.4 1.3-30.5 8.1-18.1-37-4-8.9-1.8-3.8 18.1-8.7 4.2 9.3 1.2 2.5-9.3 4.8.5 1 9.8-5zm-.5-1-18.9 8.7-1.2-2.5-4.2-9.3 18.6-8.6zm-21.7-45.3 15.4 32.6-18.6 8.6-15-30.9zm-27.7 14.7 3.9-1.6 4.7-2.3 15 30.9-18.2 8.7-11-22.4-1 .5 11 22.3-20.6 9.8-.5-3.5-.1-6.8v-5.4l.7-5.1 1.5-5.7 2.2-6 2-4.6 1.9-1.4 1.4-1.3 1.9-1.3 1.4-1.4.9-1.1 1.3-1zm-9.9 6.9.7-2.3 1.2-3.5.1-.2.7.9 1 .4 1.6.3h.1l-.2.2-1.3 1.3-1.8 1.2-1.5 1.3zm8.6-7.6.2.2-.3.2-2.2 1.7h-.9l-1.4-.3-.6-.2-.5-.6-.3-.8.2-.6h.3l.6.3h2.8l1-.3zm-3.9-4.3.8.9 1 1.5.2.6-.4.1h-2.3l-.6-.3.9-1.5zm-.3 94.8-1.9-5-6.1-16.3-2.7-9.9-2.5-10.6-.7-6.2-.3-5.3.3-5.6.7-6.1.9-6.2 1.3-5 3.7-8.6 1.8-3.7 1.8-3.3-.5-.3.5.2 1.8-3.9 1.5-4.3.2-.6.1.3-.3 4.1-.7 2.1-1.3 2.2.5.3-.5-.2-.4 1.2-.6 1.4-1.2 3.6-1.2 4-2.1 4.8-2.2 6.1-1.5 5.8-.7 5.3v5.5l.2 6.9.6 4.3.5-.1-.5.1 3 11 3.6 10.7 5.9 15.3 5.1 13.4 3.6 9.1 15.9 40.4 2.7 6.1 11.6 28.9 4.6 13.1 3.7 17.2.4 7.3v4.3l-.1 37.1v17.7h.6-.6l.4 20.1h-1.9l-.6-21.5.7-38.3-.1-14.9-.3-4.9-.3-6.4h-.6l.5-.1-3.4-16.6-.5.1.5-.2-5.1-13.2-.5.2.5-.2-12-29.2-5.8-14.2-10.7-27.2-.4.2.4-.2-.8-1.8-.7-1.5-1-2.4-1.9-4.7zm5.3 16.3-1.7.8.2-.4.5-2.3v-.4l.4.9zm-73.1 17.4 4.4.7 7.7.6v-.6.6h3.1l9.1.5 4.4-.5 6.3-1.4 6.3-2.2 5.4-2.2 4.7-2.5 4.3-1.3 6.2-3 5.4-2.1 3-1.5 3.2-1.5.6 1.4-.7.4-1.5.5-2.1 1-14.8 6.8.2.4-.2-.4-5.5 2.7-4.7 2.2-9.5 3.8-6.5 1h-7.6l-10.5-1.3-12.6-2.3zm10.1 3.2.8 3.7 2.1 6.4 1.7 2-24.8 23.6-13.2-12.9 4.6-28.1zm-162.3-90.3 18.4 17.9 5.8 5.3.2.2 26.1-.5 6.5-.3 18.5-.6 17.6-3.7 27-7.7 12-3.1 1.4-.2h1.7l8.3 3.4 2.3.5-4.2 22.3-9 50.2-30.2-6-.1.5.1-.6-21.1-3.4-6.4-1.3-6.2-1.2-28.7-5.6-.1.5v-.6l-4.4-.1-4.8-1.5-5.9-1.6-8.1-4.7-9.7-5.1-4-3.1-5.9-4.4-4.8-4.3-1.2-1.8-6.3-6.3-2-1.3-5.2-5.2-2.9-3.2zm24.6 63.4v.2zm-59.2-45.4 1.2.7 2.5 1.8 1.9 1.5 2.3 2 3.3 3.6 5.3 5.3 2 1.3 6.2 6.1 1.2 1.8 5 4.4 5.9 4.4 4.1 3.2 9.8 5.2 4.6 2.7-1.7-.4-2.6-.7-5.4-1.9-7.3-4.8-2.2-2.2-.4.4.3-.5-5-3.7-4.3-3.9-4.8-4.1-6.2-5.6-4-4-4.7-5.2-1.9-2.1-2.8-2.2-2.6-2.2-.7-.7zm-10.2-4.3 4.9 2.6.3-.5-.2.5.9.4 1.5 1 1.8 1.7 2.7 2.2 2.7 2.2 4.5 5.1 2 2.3 4 4 3.6 3.3 7.4 6.5 4.4 3.9 5 3.7 2.3 2.3 7.5 5 5.5 1.9 8.3 2.2 5.9 1.6 4.9 1.5 3.8.1-1.1 2.7-7.5 8-8 9.3-8.3 9-2.3 8.6-30.2 12.7-.3.1-4.7 25.4h.1-.1l-1.2 6.8-10.4 44.8-.1.3 8.5 9.3.4-.4.3.5 23.5-12.6-.3-.5h.6l.4-9.1 3.8-3.1 20.4-14.6 2.3 4.4 3.7 4.5 3.2 5.1 3.1 17.3h-7.1l-7.1 1-15.1 10.2-16 9.8.6.9 16.1-9.8 14.7-10 6.9-1h7.3l.7 4.1 2.5 18.4 3.2 24.3-14.4 13.7-16-17.1-.8.8 16.3 17.5.4-.4-.4.4 25.9 26.9-9.4 24.7-18.2 1.3v.6-.6l-9.7.7-6.1-16.8-1 .4 6.2 17.2.5-.2v.6l9.5-.7v1l .3 1.8 3 21.8 1.8 13.4-2.5 10.4-1.2 9.2-3.7 4.3-1.7 1 .3.5-.3-.5-1.5 1-66.1-28.5-.2.5.2-.5-17.4-7.3-.2.5.1-.6-9.9-1.7 3.6-18.5.9-3.8 1-3.8 1.5-4.7 2.4-8.2 14-65.4 2.8-11.3 1.8-6.3.5-2.3 6.4-2.2.6-.1c.2-.1.4-.2.5-.4l.3-.8c0-.1 0-.1 0-.2l.4-9.4 1.3-.7c.2-.1.4-.3.4-.6l.6-6.3 9.1-39.9.3-1.3.9-2.7 1.3-7.5 2.5-16.6c0-.2 0-.5-.2-.6l.2-.9c.3-.2.4-.5.4-.8 0-.4-.3-.7-.7-.7h-.3l-6.8-1.6c-.2-.3-.6-.5-.9-.4l-1 .3-.9.4c-.1 0-.1.1-.2.1l-.1.1c-.1.1-.2.2-.2.4l-5.3 25.7-1-.2.3-1.4 1.2-5.6 4.3-18.6.7-7 1.5-16.6v-.1l-1.9-10.6-6.8-30-5-21.3-1-8.3-.7-6.9v-5.6zm9.9 357.9-28.4 9.8-1-39.3 16.4 6.9zm-127.9 41.7-.1-.5-26.3 4.6-14.5 3-12.3 3.7-2.8.9-4.5 1.2-6.8 2.1-12.4 3.3-4 1.2-1.9.4-2.1-3.1-.8-.7-.9-1.3-1-1.1-.5-.5-3.2-2.9-2.3-1.5-34.2-20.6-2.8-1.7-1.2-.7-5-3.2-1.7-1.3-.7-.5-.8-.5-.3-.3-2.2-3.7 1.3-4.4.1-.2 11.7-37.5 2.6-8.8 2.1-6.5.3-.4 9.4 6.5h.2l1.4 1 .3-.5-.2.5 12 5.5 9.8 4.6 9.1 4.5.2-.5-.2.5 18.1 8.1-13.6 28.9.5.2-.2.5 15.1 7.6-14 28.6 1 .5 14-28.6 11.5 5.8.5-1-11.6-5.8 13.4-28.7 25.9 12.2-2.2 31.8 1.1.1 2.2-31.6 42.8 4.4 2.5.7 1.9.7 3.3 1.6 2.5 1.2 1.7 1.4 3.2 4 2.8 2.1-3.8 3.3-2.9 2.9-1.4 1-9.4 3.8-4.9 1.2-14.9 2.2zm-131.6-10.9-1.8.7-1.6.8-1.3 2-.6 1.7-1.9-3.2-2.2-5.4-.7-2.9 1.7 1.1 3.4 2.1 1.4.9zm-14.7-12.5-1.4-1.4-.1-.2.4-.2 1 1.7.5-.3-.5.3zm.3-1.8-.4-.6.7-.4zm-1.2-2-5.5-9.3-8.6-13.4-1.9-4.7-.3-1.9-.4-26.4.4-5.3h4.9l9.1.6 5.6.1 4.7.3 4.3.4 2.7 1.6 3.8 2.4-.5.7-.4.7-4.3 14.3-12.7-3.8-5.8-1.8-.3 1.1 18.5 5.6-11.3 36.9-.4.9zm-.9.6-.4.3-6-9.7-5.3-9.2-.3-.8 6.6 10.3zm-80.6-8.7 5.9.7h6.6l5.8-.4 3.8-1.4 6.9-1.8 9.1-3.7 12.3-5.3 8.5-3.3 5.8-3.1.5 1.2-33 13.2-3.8 1.5-5.8 1.9-3.2.9-3.1.7-.4.1-2.7.3-2.7.3h-1.9l-2.1-.1-2.1-.1-5.5-.9-1-.2-1-.2-.2-.1-2.9-1.2-.1-.1.2.1.2-.5-.1.5zm70.8-80.6.3-.5-7.1-4-1.9-1-1.9-1.8-1.4-2.7-1.8-4-2.2-6.8-2-6.8.1-.3 5.8-11 4.6-9.2 5.7-11.1 1.5-2.8 4.2-7.8-.5-.3.5.2 9.8-21.4.9-3.3-1.1-2.5-3.8-11.3 20.2-8.5 4.1 8 6.1 17 1 4.4-.3 6.7-.7 6.9-18.5 40.7-4.8 12.3-5 15.2-2.5 6.1-3.2 3.5-4.3-2.5-1.4-1.7zm.3 1.3h-1.5l-6.2-3.8-.5-1.2 7.6 4.2zm-34.6 1.9-3.4-1.2-10.3 4.4-10.1 4.4-.2.8-.1-1.1.1-.4.3-1.1 16.4-6.2 4.8-1.7.3-.1c.1 0 .1-.1.2-.2 0 0 0 0 .1-.1l.4-.5.3-.2 2.9-.5zm.2 5v2.3l-11 4.9-8.2 3.6-2.8-1.7-1.7-1.3.1-1.9.5-2.5 9.5-4.2 9.9-4.2 3.2 1.1zm-99.3 47.9-.4-.4-2.8 2.8-1.4 2.3h-.4l-1.3-.2 2-2.1 4-4 7.6-7.9 2.5-3.6 2-1.5 1.4-.1.4-.1-1.7 2.1-2.2 2.1-4.3 4.5-2.2 2.5-3.6 3.3zm-38.7 27.4 2.9 1 .9.6.6.6-7.4 6.9-3 2.6-4.3 5.3-5.5 6.2-4 4.8-7.1 9.3-8 9.2-7.9 7.6.4.4-.4-.4-7.7 9.3-2.1 2.5-9.8-12.2-2.5-3.5-3.2-5.7-3.6-10.3-1.3-3.2-.9-4.1-1.2-3.2 27.6-30.6 11.4-25.5h.9l47.1 7.6v-.1.1l.8.1.5.1 13.1 2.5 3.5.4-2.8 3.2-4.3 4.4-7.6 6.8-6.8 6.2-3 2.5-.7-.7-1-.7-3.2-1.1-16.9-4.2-.3 1.1zm-17 26.4-3.4 4.3 1.5-1.9zm-73.6-15.3-2.5-.6-2.7-.7h-2.6l-3-.3-1.8-.7-6-4.7-22.6-19.3-7.7-2.7 1.5-5.5 1.5-1 1.2-.3 1.6-.7 1.4-.9 5-3.9 11.1 9.6.7-.8-11-9.4 4.4-3.5 16.2-12.3 1-.5.6-.3 1.4-.1h.1l.6.1 4.7 1.2 31.5 8.8.5.2 6.7 1.2.5 1.5-22.6 30.6-.1.1.1 2.1 1.1.1.1-1.9 22.8-31-.5-1.5 7.8 1.3 12 2.3-11.1 24.9-27.3 30.3-2.1-2.5-2.7-2.9-2.9-2.6-2.8-1.8-2.4-1.7-.3.5.1-.6zm-112.1-7.8 16-25.1 33.5 5.7h.1l5.3-1h6.9l-10.4 52.6-11.1-5.5-12.3-6.7zm-.8.2-.5-.2-1.8 4-.1-.3-2.1-5.2-.4-1-1.1-3.5-1.9-3.9-.7-1.5-.4-.9-1-3.6-.1-.8.4-7.3.8-5.5.5-1.8 1.4-2.6 1.4-2.6 3.7-6.4.5-1 .9-1.3 16.2 19.7-16.1 25.4zm-62.3-19.1-10.1-18.3-7.6 4.2-1.6-13.9 35.4-16.2 15.6-7.3 3.9-1.8 3.5-.7.4-.1c0 .2.1.3.2.4.2.1.4.1.6.1l4.2-.7h2.7l4 .6 2.7.9 1.4 4 1.2 3.9 1.9 5.5.2.7 1 5.2 1.1 3.9v1.1l-.2.6-.2.7-1.2 2.3-3.7 6.4-1.4 2.7-1.4 2.7-1.1 3.5-.4 3.5-.4 3.5v3.4l.2 1.2.2 1.2-17.5 7.4.2.5-.6.1.7 6.5 1.1-.1-.7-6.1 17-7.1.9 3.3.9 1.9 1.3 2.8.9 2.3.7 2.2.4 1 2.1 5.3.3.5.5 1.3 1.9 6.2.1 1.1-6.4-.4-19.5 2.1-23.8 1.9-1.3-18h-.6l.5-.3zm-61.2-31.6v3l-.7 3.5-1.1.9-.7-1.5v-4.5l1.2-1.8.6-.6zm-.4-8.6 15.4-1.1.6 1.8 1.6 2.1 3 .3 1.9-1.6 1.4-3.7-.5-.2.5.1.4-2.6 29-11.8 22.9-10 14.7-7c .2.2.5.3.7.2l3.1-1.2 3.4-.6.5 3.3.5 3.7.9 7.9-.5 1.9-2.8 4.2-3.9 1.7-15.6 7.3-35.7 16.3-4.7-.7-25.3-3.3-7.5-1-3.8-1.4zm16.5-1.4 6.6-2.9-.3 1.9-1.3 3.4-1.3 1.1-2.1-.2-1.1-1.5zm306.1-102.5-2.3-19.5-1.9-15.3v-.2l-.8-5.9-1.4-11.5-1.9-16.6 12.1-1.9 2.5 20.6.6-.1-.6.1.7 5.9 1.1-.1-.7-5.4 21.5-3.1.4 2.4.5-.1-.5.2 2.4 8.4 4.2 9.8 8.1 22.2-1.2 4.7-12.9 2-2.7-12.4-3.5-5.4-7.3.5.1 1.1 6.7-.4 3 4.5 2.8 12.8.8 8.1 14.2-1.7 3.3 8.7-10.2 2.8-5.7 2.6-9.1 6.2-5.7 9.1-1.2 7.1-5.7 1.4-4.4 2.6-4.1-34.7-.3-4.8h-.2.2zm-9.3-12.7.4-3.7.6-4.2.1-11 .2-1.4 2.4-.2 1.7 13.8 4.3 36.2-1.6-.3-3-10.5-2.2-10.1-.5.1.5-.2zm-48.1-80.4h-.3l-.3-.1c-.1 0-.2 0-.2 0h-.3l-.6-.2c-.1-.1-.2-.1-.3-.2l-.3-.1-3.2-2.8-1.6-1.4-16.8-16-1.1-1.1-1.1-1.1-.7-.5-.5-.4-.3-.3-3.6-2.3-4.4-2.9-5.9-3.9-4.9-50.4 18.3-1.7 9.3 12.4 17.2 21.4 25.2 31.1-20.5 20-1.1 1.2c0-.2-.1-.4-.3-.5s-.4-.2-.6-.2h-.1zm.4 2-.4.5-1.2-1.1h.2l.3.1h.2.8zm-132.2-77.4 1.5 14.2.8 7.2-1.8.7-1.2.2-.7.1-1.4.1-24.3-2-2-.2-6.1-.6-16.4-5.3-.4-.1 9.8-17.8 19.1 1.8v-.3.3zm1.6-.1 27.3-2.2v-.6l.1.6 33.9-3.8 3.9 36.7-4.2-.8-2.7-.6-50.5-9.5h-.7-.7l-.5.1-1 .1-.3.1-2.2.8zm101.4-11-18.6 1.7.1.6-.1-.6-20.3 2.1.3-1.6v-5.1l-2.6-25.9 37.8-3.6zm41.2-4.1-40.2 4-3.4-32.3 16.2-2.2 1.9-.6 13.4 16.3zm51.5-6.1-6.3 4.1-3.2-3.4-6.6-7.2-.6-.8-.4-.5-1.7-2.7-1.4-2.2 9.9-5.6zm-10.2-19.4.1.2zm.9.4 17.6-10.5 8.9-4.8 4.8 8.1 4.5 8.3-22.3 13.1-3.3 4zm44.1 82 12.1 17.9-1.1 1.1-1.7 1.2-27.5 3.5-2.4-18.4h.3l1 .3h.2 1.3l8.1-1 3.5-.3 2.6-.5 1.4-.3 1-.4.5-1.7zm38.9-5.5 16.7 12.6 3.5 2.8 10.8 8.5 26.7 21.5.4.5.6.9.5.6.7 1.5.4 1.1-2.4 1.7-15.9 2.5.1.5-.1-.5-17.4 3.3.1.5-.2-.5-11.7 5-3.4-.5.3-8.3h-.6.6l-.3-14.4h-.6l.5-.2-.5-1.6-1.1-1.1-1.5-.6-6.3.5-14.4 2.4-3.4.4-2.4.4-5.2-15.6 19.6-20.2.7-.5zm96.7 32 .3.5 4.9-3.5 8.5 21.4 7.6 20.2 8 19.5-20.1 8.7-12.7-28.9-12.7-28.6 5.9-3.3 10.5-5.5zm19.1-82.3 12.2-5.1 11.5-4.6.1.5-.1 1.5c0 .2 0 .4.2.5.1.1.2.1.3.2l12.4 74-27.9 6.3-4.3-23.3-1.5-11.6-2.4-24.4-.7-5.3-.5-4.1-.4-1.8-1.1-1.8zm-3.6-.4-1.8-1.6-1.6-3.8-3.1-6.6-2.7-7.2-1-2.1 3.4.2h2.1l1.8 5.4 2.1 5.9 1.8 5.4 1.4 3.4zm47-.6 1.9.1 2 .3 1.9.1c.1.1.2.1.3.1l.4.1h.4c.1.1.3.1.4.1l1.6.1 9.4 61.2-24 5.4-12.3-73.6 1 .1h.5l10 4h .2l.5.2c.1.1.2.1.3.1zm-.3-1.6 1.7.2-1.2-.1zm6.8.8h2.1l.1.4h-.6-.5c-.1-.1-.3-.1-.4-.1h-.3c-.1-.2-.2-.2-.4-.3zm97 40.9-9.8 2.5 2.1-.9 5.4-1.4.8-.5c.1-.1.2-.2.3-.4l.1-.4c0-.1 0-.2 0-.2l-.4-18.7v-1.9l.4-.4c.1-.1.2-.3.2-.5v-4.7c0-.1 0-.3 0-.3l-.1-.6v-5.5l-.1-4.3v-4.6c0-.1-.1-.3-.2-.4l-.1-9c0-.4-.3-.7-.7-.7l-3.4-.3-3.5-.1-3.4-.3-3.4.2h-3.3l-3.4.1-9.6.9-3.2.5-12.8 4h-.2c-.1 0-.2 0-.2 0l-4.8 1.6c-.1 0-.2 0-.2 0l-1 .3-.8.4-6.1 1.8-6.5 1.2s-.2 0-.3 0l-3.2.6-1.4.2-5 .9-1.9.2-11.7.4-2.1-.1-.1-.4h6.2l5.5-.1 11.5-1.5 6-1.3 5.6-1.9 25.4-7.4 20.4-.7 11.8.7.1 21.4h.6-.6zm50.7-49.6 25.4 1.7-7.5 44.6-21.1-2.5 1.9-27.7h-.6.6zm0-1.1.9-25.6.6-13.6 3.7 1.4 3.5.8 3.6.1 2.4-.1 4.2 13.1 6.9 24.5-.2 1.2zm56.7 121.2c.2.1.4.2.6.1l1.8-.4 4.9 1.1-6.5 31.2.7.2-.7-.1-5.5 29.2-3.7-23.6v-2.5l.3-1.3.7-.7 5.1-24.5 1.9-9zm-.1-1.9.3-1.5 7.5 1.8-.2.9-5.1-1.2c-.1 0-.2 0-.3 0l-1.6.4zm-6.9 79.7-4.3 19.1-3.3 13.5-2.2 10.9v3.9l-1.5 7.5-1.6 6.8-5.2 23.9-4.8 23.6-.6 3.3-35.8-3.7 1.7-25.6-1.1-.1-1.7 25.5-38.2-3.5-40.3-3.7-15.8-6.9-13-6.5 23-35.4 11.3-17.6 5.8-6.9 48.2 23.4.2-.5.5-.1-6.5-37.2v-.2l-1.9-1.1-5.6.5-14.7 2.1-2.5-.3-1.4-1.3-1.5-2.1.1-1.6v-2.6l-.1-.6.6-1.4.7-.9 2.7-4 7.1-9.3 7.7-9.5 2.4-3.3 1.5-2.5-.5-.3.5.3 5.2-8.9 1-1.4 2.2-2.2 20.3-14.5 5.6-3.9-.3-.5.3.4 8.4-6.6 10.3-3.3 15.1 3.1 5.5.3 19.8-6.6-4.4 21.5-.4 1.8-.7.8-.3 1.6.5.1h-.6v2.6l4 25.6v2.2l-1.8 7.6zm-70.7 171.5-2.7-1.9-2.8-3.4 4.8-2.2 2.4-.8 1.9-.8.5-.3-2.2 5.4zm.8 2.9 1.5 5 .6 4.6-.8-.8-1.4-1.1-2-1.2-4.8-1.7h-.2l2.8-2.7 3.8-3.3zm2.4-13-1.7.7-2.4.8-4 1.8-1.2.6-1.5-1.2-5.9-2.9-.2.5.2-.5-2-.8-2.6-.8-43.6-4.4-26.2-12.3 19.8-40.1 40 3.7 38.2 3.5-1.4 12.8-1.9 24.2-1 9.9-1 3.6zm-157.4-88.7-22.7 3.8h-2.1l-2-3.7-1.7-6.9 5-15.1 4.7-12.3 18.6-40.8.8-7.2.3-6.8v-.1l-1.1-4.5-.5.1.5-.2-6-16.9 1-6.4 2.1-5 1.2-.6 1.7-1.1 4-3.4 3.2 4.1 1.1 1.3.2.2.2.2 5.3 14.9 1.1 2.5 2.6 7.4 4.9 14.1 3.5 10.7 4.3 12.3.1.4v.2l.4 1.6.6 3.9v1.2.1.4l-.6 5.7-1.8 14-2 15.4-46.2-8.6-.2 1.1 46.4 8.7v.4l-.4 1.6-3.6 7.8-.8 2.3-.4 1.5-.5 1.3-2.3-.2-1.7-.3-5.2-.3h-.3l-1.4-.1-1.1.1h-2.2l-6.5.7c-.2.3-.4.4-.5.5zm0 38.7v.2l-.1-.1zm-26.2-35-7.9-.8 2.8-3 2-4.8 1.4 5.5zm19.8-120.9-.8 5-3.3-6.4 5.3-2.3.5-.2zm21.3-74.9 25.1-5.6-.1-.5.1.5 4.1-1 9.3 34.7-6.2 3.9-1.7.6-3.3 1.8-12.7 8.3-2.3 1.8-2.3 1.8-4.8 3.4-11.2 8.9-2.7 2.2-3 2.7-1.8 1.5-4.3 2.9v-33.3l-7-13.5-3.7-14.7zm107-62.7v5.6l.1.7v4.3l-.4.4c-.1.1-.2.3-.2.5l.1 8 .1 3.7v4.2l.1 2.8v2.1l-5.6 1.7-2.1.9-3.9.9c-.3.1-.6.4-.6.7v1.1l-24.4 6.7-41 10.5-4 1-9.3-60.9h.8l10.9-.3 4-.3 2.2-.4 4.2-.6 3.1-.6h.3l6.1-1 6.8-2 .8-.4.8-.3h.2l4.8-1.6h.2.2l12.8-4 3.1-.4 9.5-.9 3.4-.1h3.3l3.3-.2 3.3.3 3.5.2 2.7.2.1 8.7c0 .1.1.3.1.4v4.2zm-5.6 74.1.1.5 9.3-2 .4 1.5-.6.2-7.4 1.3c-.2 0-.4.2-.5.3l-1.9.1-.3-1.3.9-.2zm-1-.3-.1-.9c.1-.1.1-.2.1-.4.1-.2.2-.4.1-.6l-.7-5.5v-1.1l-.3-2.2-.3-3.1 1.6 13.8zm-1.3 1.7.3 1.6c.1.4.4.6.8.6l3.1-.1c.3 0 .5-.2.6-.4l6.3-1.2h.4.2l.6-.2 2.9 11.1 12.3-2.7 2.5 5.4.5-.2-.5.3 6.5 10.5-2.4 1.5-.9 1.2-2 5.4-1.3 4.3-2.7 9.3-4.3 14.6-2.5 9.4.5.1-.5-.1-.6 2.2v6.6l-.1 2.7-1.4 2.4-2.4 3.2-7.7 9.5-7.2 9.4-2.6 4-.7.9-.9 1.9.2.8v2.5l-.1 1.6-14.3 15.9.4.4-.4-.4-6.1 7.3-11.3 17.7-23 35.5-22.6-11.7-4.8-1.8-5.9-1.4.6-2.6.7-2.2 3.6-7.8.3-1.1 3.9-30 .7-6.2.2-1v-.8l-.1-.4v-1.1l-.6-4.1-.4-1.7-.4-1.7-14.9-43-1.5-3.4-4.8-13.6-.2-.5-.2-.5-.1-.4c0-.1-.1-.2-.2-.3l-.1-.1-3.8-4.7-.5-1.4.5-.4 2.3-2 11.3-9.1 15.1-11 5.3-3.5 4.7-2.9 1.8-1 14.1-6.5 5.2-2.4 3.9-1.3 5.6-1.9.3-.1 8.7-2.5 14-3.3zm36.2-5.1 1.3-.3c.1 0 .3.1.4 0l4.5-1c .1 0 .2-.1.3-.2l2.1-.4h.2l7.3-1.3 4.1-.6h.3c.2 0 .3-.1.5-.2l2.8-.5c.3-.1.5-.3.6-.6l12.9-2.6c.1 0 .3-.1.4-.2h.1l.3.2c0 .1.1.1.1.2l.6.8 1.8 1.8c.1.1.2.2.3.2l1.3 1.3 1.5 1.3 3.7 3.7s.1.1.2.1c0 .1.1.1.1.2l.7.7.7.7.5.4c0 .1.1.2.2.3l10.6 10.1 5.4 5.2 2 1.8.5.7 10.5 10 1.6 1.1-1.9 9.1-20.2 6.7-5.2-.3-15.2-3.1h-.1l-10.7 3.5.2.5-.3-.4-8 6.3-17-25.6-6.6-10.6 1.6-1.3 3.4-2.2.9-1.5-.7-1.8-1.2-4.6-.2-1 1.6-.7.4-1.1zm-11.8 76.9-1.5-1.1-1.1-.7 2.4-8.9 4.3-14.5 2.7-9.3 1.3-4.3 1.2-3.3.7-1.9.6-.9 2.3-1.4 16.8 25.2-5.2 3.6-20.4 14.6-2.3 2.3-.8 1.1zm.4 1.4-3.7 6.4v-.6-6.5l.4-1.4.8.5 1.6 1.1zm11.2-73.2-2 .8.4 2 1.2 4.7.5 1.4-.4.7-3.3 2.2-1.5 1.2-2.4-5.2-4-9.8.8-.1c.2 0 .5-.2.6-.4l.3-.5.6-.1c.1.1.3.1.5 0l2.6-.6.6-.2c.1.1.3.1.5 0l2-.6 2.4-.5 1 4.5zm-3.6-5.8-1.6.5c-.1-.1-.3-.1-.5 0l-3.1.8c-.1-.1-.3-.1-.5 0l-1.3.3c-.2 0-.4.2-.5.3l-.2.4-.9.1-.7-1.8 11.4-2.3.3 1.2zm-9.1 3.9 3.9 9.5-11 2.4-2.7-10.1 4-.8c.1 0 .3-.1.4-.2l.5-.1c.1.1.3.1.5 0l1.3-.3zm-2.4-1.2-1.8.3c-.1-.1-.3-.1-.5 0l-1.3.3c-.1 0-.2.1-.3.2l-3.8.8-.4-1.5 9.2-2 .7 1.7zm-22.1 123.8 1.8 1.6 3 .3 14.8-2.1 5.2-.4 1.1.7 6.3 35.9-46.9-22.8 13.5-15zm1-122.2-1.3.3-16 2.9-6.6 1.9-6.2 1.4-8.8 2.5-5.9 2-4 1.3-2.7 1.2-7.9 2.6-9.2-34.5 40.5-10.4 24.1-6.6v.6c0 .2.1.5.3.6l.3.2.4 4 .4 3.2.3 3.5.7 6 .5 5.4.4 3.2v1.1l.7 5.3c-.1.1-.1.2-.1.4-.1.2-.2.4-.1.6zm-2.6-35.1v-.6l.3-.1.1 1.1v-.1c-.1-.1-.1-.2-.4-.3zm.7-1.6-.1-.4-.6.2v-.1l3.2-.7-2.6.7zm-110.8 253.4v-.2l.1-17.3.1-17.3 5.8-.7h4.9l5.1.3 4.8.7c.3.1.6-.1.7-.4l5.9 1.4 4.7 1.8 21.7 11.2-1.9.4-21.7 37.9-8.6-4.2-9.8-4.6-11.7-5.3zm52.5-19 2.7-.6 12.8 6.5-19.4 39.4-17.5-7.8zm-3.3 46.7 14.6 7.1-13.4 28.6-14.6-7.4zm.5-1 19.4-39.4 14.9 6.5-19.7 39.9zm180-215.7-1-.7-7.7-7.4-2.6-2.4-.5-.7-17.8-17c0-.2-.1-.3-.3-.4l-.7-.5-.6-.6-.7-.7-.1-.2c-.1-.1-.2-.3-.4-.3l-3.6-3.6-1.5-1.3-1.3-1.2-.1-.2c-.1-.2-.3-.4-.5-.4h-.1l-1.4-1.4-.3-.4c0-.2-.1-.4-.3-.5l-.5-.4c0-.1-.1-.2-.2-.3l-.1-.1c-.1-.1-.3-.2-.5-.2s-.4.1-.5.2l-.5.1c-.2 0-.4.1-.6.3l-12.9 2.6c-.3.1-.5.3-.6.6l-2.5.5c-.1 0-.2.1-.3.1l-4.2.6-6.2 1.2-.9.1s-.2 0-.3 0l-2.5.4c-.2 0-.3.1-.4.2l-3.7.9c-.2-.1-.3-.1-.5 0l-1.7.4-.3-1.2 18.1-3.5 8.7-2.2 3.6-.7 3.1-1.6 1.9-1.2 1.1-1.3 45.1 43.2zm-45.3-45.5-1.3 1.5-1.8 1.1-2.9 1.5-3.5.7-8.7 2.2-18.4 3.6.1.5-.1-.5-12.6 2.5.1.5-.1-.5-10.2 2.2.1.5-.1-.5-9.2 2-4.2-35.6 12.6-3.1 8-1.3 31.4-4.3 6.8-.1 21.5 2.6-1.4 8.4-1.6 5.3-1.2 3.3-2.1 5.2zm-60.9-53.6 48.1-1.7-1.9 27.1-6.4.1-31.5 4.3-7.4 1.2zm48.2-2.9-48.3 1.7-.1-20.8 49.6 3.5zm-183.6 84.5 6.9 13.2v33.9l-1.1.6-6.2 2.7-7.9-19.4-7.6-20.2-8.5-21.5 20.7-4.2zm-51.9 97.5-1.4-.8 2.7.1 8.9-3.5 9.7-4.4 1.9 4.7.4 1.2.3 1.6v2.7l-.1.9-.5 1.9-9.2 18.1-10.1-5.4zm-75.7 55.9-.9-4.1 6.3-2.3 14.5-3.1.1 2.9h.6-.6l1.6 17.5-10.5 1-6.6-1.3zm-42.1 13.1-.7-1.9-3.6-6v-.8l8.6 3.7zm0 1.8 2.4 1.5 7.2 4 3.2 2.3 1.7 2.9-1.7 3.8-9.2-1-6.9-1.8-.9-4.2 2.4-4.4zm-4.7-11.8-9-6.5-3.8-.8-2.8-5.5-1.1-9.4 19.3 2.1 9.2 4 6.9 3.2 1.9 1.9 2.1 6.7-4.7 2.8-8.2 5.6zm3.9-95.6 11.7-5.1.9 1.3 2 2 2.7 3.6 6.8 8.5 1.7.9 2.2.1 1.1 1.8-12.3 9-9.8 4.3 1.1-4.3zm-9.9-47.2.9-.2 11.4 24.4-9.2 3.8-.3-2.2zm-15.9 5.7.2.5 14.6-5.8 2.7 25-21.5 3.1-2.4-20.2 6.5-2.1zm-23.2-24.8-.1-.5-7.7 1.2-1.8-22.4 8.5-3.5 2.2 1.1 2 1.7.7 1.5.1.3.6 4.3 1.5 12.6.3 2.9-6.2.4zm4.5-41.1.3 5.5-1.4 4.3-2.7 4.1-2.1 1-9.1 3.7.2.5-.3-.5-10.7 6.6-25.2-31.1-17.2-21.3-8.9-11.8 40.5-4 8.1 10.7.4-.3-.4.4zm1 6.7 3.6 4.2-.3.1-1.7.5-2.6.8c-.2.1-.4.2-.4.4v.1l-1.7.5 2-3zm22.5 8.9-6.4-1.1-3.9-1.4-2.6-2.9 4.1-1.5 4.4-1.6 1.8-.8 4.4-1.7 1.5 12.3h-.4zm-11.1-1.6 4.3 1.7 6.3 1 1.2.6-23.7 2.5-.5-1.1.1-.4s0 0 0-.1c.1-.1.2-.1.2-.3l.3-1.4.6-1.6c0-.1 0-.5 0-.6l.3-1 1.6-.5 1.5-.5 3.4-1.2 1.3-.4zm-5.2-4.1-1.4.5-4.4-5.1-.2-4 7.2 8.1zm-7.3 4.7-.2.6-.3.9-.2 1.1-.4.1s0 0-.1.1l-1.5-1.3-1.6-.8 1.1-.5 3-.9zm-25.5 11.8 10.3-6.3 1.8 22-30.1 3.6-3.8 2.1 1-1.1zm26.6-4.8-.1-.7 25.5-2.7h.6l2.4 18.6-11.8 1.7-9.9 1.2-4.5.5-.2-1.3zm28.6 16.9 3.7 20.9-14.2 5.7-2.7-22.5-.1-2.4zm40 28.5-4.5 4.5-6 4-2.3 1.9-5.4 3.8-2.8 1.5-.8.9-11.3-24 30.3-11.4zm65.5 24.3.1.5 5-.9.7 20.7-34.1-3-1.6-12.1 11.9-1.6-.1-.6.1.6 18.1-3.1zm23.4 49.3 4.7-20-.5-.1h.6l.3-2.8 4.1-.5 6.7-1.4 8.5 18.6-9.7 4.4-8.7 3.4-4.4-.1zm-51.2 42.2-4.5-9.4 17.6-6.8 11.9-6.6.4 1.6 3.3 6.5 4.8 10.3-5.2 2-.2.1-5.9 9.2-1.2 2-19.8 1-.1-3h-.5l.5-.1zm-39.3 1.1 1.6 6.4-7.6.9-1.9-1.9-7.2-3.4-7.4-3.2 7-.8 5.7-.4 5 1zm-4.2-2.3v-8.7l-.3-3.1-.2-2.4-2.4-7.8 15.4-6.8 3.8 13.8 3.4 13.3-7.8 2.8-7.4.3zm16.7-15.1.3-.1zm.9.2 7.1-3.1-.4-1-7 3-3.7-13.3 11.2-4.7 12.6 25.1-10.7 4.7-5.8 2zm-10-52.9.1-3.7 2.2-2.6 3.2-2.1 4.5.8 2.4 1.9.6 5.9-.6 4.8-1.1 3.2-2.5 1.3-2.6-.1-2.9-2.9-1.4-2.5zm23.6-40.9-22.6 5.6-1.6-10.9 25.5-5.8-.3 8zm-.3 1.2-7.3 31.2-3 1.8-2.4-1.8-4.8-.9-1.4-4-3.2-20.8zm-23.3 5.2 3.2 20.7-6.7-.5-2.5 1-5.9 4.2-1.7-1.6-1-1.6-8.6-16.6.9-1.1 2.8-1.5 5.5-3.9 2.3-1.9 6-4.1 4-4zm-5.4 22.1 2.1-.8 6.8.6 1.2 3.6-3.1 2-2.6 3.1-.2 4.3 1.6 3.5h-1.2l-1.3-.6-6.7-8.3-2.3-3.1zm17.6 21.3 1.3-3.7.6-5-.6-5.9 3.1-1.8 17.9 3.2 2.6 10.3 7.8 13.1-27 13.3-6.3-14.2-2-7.9zm33.2 11.2 4.7 8.2 1 3.1 9.2 13.7-11.9 6.6-17.6 6.8-12.6-25.2zm-15.1 39.9 4.5 9.2.9 6.2-14 3-1.8-14zm21.9-29-1.1-3.1-4.7-8.2 16-7 12.2-3.6 12.6-1.7-7.7 25.7-10 5.7-8.2 5.7zm35.7-24.2-.1-.6-12.9 1.7-.3-5.9v-2.6l11.1 1.7 2.2.4 2.9 2.1-.2 2.5-2.8.1zm.5.5 2.1-.1-4.6 19.6-.1.3 1.4 1.4-3.5 1.2-2.8 2.2zm7.2-25.1-4.3-9.6 17.3-8.2 12.5 28.4-17.5 7.6zm-2.1-1 8.8 19.7-6.4 1.3-4.2.6-2.9-2.1-3.8-26.1 4.9-1.4zm-5.9 19.1-1.6-.3-.1.5.1-.6-11.7-1.8-.1.6.1-.6-3.5-.4-.7-21 14-2.1zm-17.5-1.4 3.5.4v2.8l.3 6.1-11.8 3.5-16.2 7.1-7.7-13-2.5-9.8zm-24-19-4.3-27.8 16.3-3.1 5 28zm-1.1.1-11.4 1.5-3.7-24.6 10.8-4.6zm-12.4 2.2 1.7 12.3-17.1-3 7.4-31.7 1-3.1 3.1.5zm-33.3-29.5-2.8-18.6 2.3-.4 3.4-.4 14.4-2.4 6-.4 1 .4.9.9.4 1.3.3 13.9zm-23.3 18.9 8.3 15.9-11.6 5-3.9-9.2-2.2-7.8zm14.4 45 12.4-9.1 2.9 2.9 2.8.1 2 8 6.3 14.3-11.7 4.8.2.5-.2-.5-16.1 7.1-4.6-6.5-3.7-9.5-1-7.5zm-2.1 29.1 1.9 6.3.6 1.8.4 5.3v8.4l-4.4-.9h-.1l-5.9.5-9 1-19.4-2.2 1.1-6.6 5.4-8.7 8.9-6.1 5.6-2.5 10.3-2.9zm2.8 32.8 8.4-1-1.8-7.2 6.9-.3 8.5-3 5.7-2 1.8 13.9-6.9 2.5 1 4.5-10.3 1.8-4.7-8.2-6.9 5zm24 8.4 4.3 10.3-1.2 2.6-.9.5-6.4.7-4 1.8-1-10.8-1-3.4zm22-6.9 20.4-1 1.5-2.5 5.7-8.9 5-1.9 2.8 22.5-15.4 5.9-18.4 2.9zm33.6-15.1-.6.1.5-.2-5.1-10.8-3.2-6.4-.5-1.9 8.3-5.8 10.1-5.8-.3-.5.4.4 3.9-3.2 4-1.4 2.5 1.5 2.5 16.8-19.7 39zm42.2-44.2-.1-.2-.2-.4-8.4-18.5 17.4-7.6 3.8 11.3 1 2.2-.8 2.8-9.2 20.1-.8-2.3-.2-1.1-.7-1.8zm-4.7-57.4-17.3 8.2-1.7-3.7-10.3-24.3 16.8-8.3zm-24.3-3.5 5.5 12.3-5.2 1.5-15 2.2.1.5-.1-.5-5.1.9-5-28 15.5-2.4 2.5-1.7 1.2 2.8zm-88.8-26.5-30.9 11.7-1.2.3-3.7-20.7 12.2-1.5 11.6-1.6 3.1-.5 1-.4 1-.6.2-.1.4-.3.7-.6.6-.6zm-27.6-30.3-.1-.5-8.1 1h-1.1-.1l.9-.5 5-.4 3.3-.4 4.4-.6 1.9-.2 1.1-.3.5-.2-.1.5-.4.2-3.8.7-3.4.3zm8.3-3.5-.1.2h-.4l-1.8.6-1.8.2-4.5.6-3.2.4-5.1.4-1.3.7-.7.7h-.3l-1.5-12.9 2.2-1.9 1.6-1 7.7-5.2c.1 0 .1-.1.1-.2l9.9 15.9zm-9.4-20.5-1.6-3-.2-.4 4.9-1.9 1.4-.2zm-1.1 1.1-6.8 5.7-.6.4-4.4 2.8-1.3.7-1.5.6-1.9.8-7.4 2.8-3.4 1.3-8.6-9.7-28.4-32.1 22.3-25.6.8 1.2 1 1.3.1.1 6.7 7.2 3.6 3.9 7.7 8 3.5 3.8 3.7 4.6 1.7 2 1.9 2.6 8.3 12.4c0 .2.1.3.2.4zm-42.9-53.8.3.6-22.2 25.8-7.9-10.4-.4.3.4-.4-12.4-15.1 27.5-17.6 3.4-1.8 7.3 12.4 3.3 5.2zm-112.4 17.1v4.9l-.4 1.8-33.5 3.7-3.2-32.6 34.4-3.7zm.7 7.8 20-2.1 4.9 49.5-1.1-.8-3.8-2.3-1.1-.8-3.6-1.8-5.6-2.6-1.7-.6-1.7-.6-.6-.2-1.6-.7zm74.6 81.8 29.5-3.6-.5 1.2 2.9 26.4-10.2 1.3h-.7-2l-1-.2-.7-.4-.7-.4-3.1-3.3-11.6-10.8-3.3-3.3-1.9-1.7-.1-.2-.4-.5-.1-.2c0-.1-.1-.2-.2-.2l-.4-1.4v-.2zm30.1-2.3.7-1.5 6.8-1.1v.1l3.2 27.5-7.8 1.1zm9.4-2 6.4-.8h.2l1.3 1.4.2 2.7-.8.3.8 6.2-1 1.5.8 7.1 1.8 1.9.3 2.6 1.1-.1-.3-3-1.8-1.9-.7-6.3 1-1.5-.7-5.7.7-.3-.4-3.9-1-1.1 11.1-1.3.1 2.3 2.8 22.8-6.5 2.1-12.5 1.9-1.1-9.6zm54.8 99.7-13 1.5-.6-6.5 12.7-1.9zm-39.2 47 1.1 9.2.2 1.6-.2 1v .4l-.2.9-.4 1.6-6.8 12.3-.7 1.1-.1.6-.7 2.9v3l-.1 1.1.5 1.2v.3c0 .1 0 .1.1.2l.7 1.5.3.7.3.7c0 .1.1.1.1.2l.1.1.3.7.6.5.1.1.2.3.5.4 1.7 1.5 2.7 1.8 3.4 2.5 6.3 3.3 1.7.5.6.2 2.5.7 2 .6 5.5 1.2 3.2.6 2.1.4 6 2 8.3 3.7 6.4 3.3-.4 3.9-3.6 1.5-2.5 1.3-3.7 1.6-3.8-3-9.5-4.4-9.5-3.2-5.5-2.5-18.6-10.2-8.2-8.5-5.2-8.3 7-5.4.8-2.8-4.2-19.7-4-1.8-.5-10.4 1.8.2 8.4 1.5 7.6 1.3 1.4.2 1.9-.1 1.1.2zm-20.1 61.6 23.6 3.3.2-1.1-23.6-3.3-.1.5.1-.5-6.8-.9-27.8-4.5 1.3-8.3 18 2.5.1-.6.5.1 1.5-6.2-1.1-.3-1.4 5.7-17.5-2.4 2.1-20 15 1.7 11.3 2 1.4 3.7.5-.2-.5.3 5.5 8.8.5-.3-.4.4 8.3 8.6 18.9 10.4 5.5 2.5 9.5 3.2 9.3 4.3 3.2 2.6-6.8 2.3-2.6-2.1-2.3-1.5-5.5-3-3.1-1.5-.2.5-.5-.1-1.6 6.3-1 5.4-1.2 3.7-64-10.4-5.1-.9 2.3-16.3 27.8 4.5.1-.5-.1.5zm-8.4-47.9 3.4 14.6-10.8-1.9-15.1-1.7 1-23.9 5.5-.7 6 2.3 5.1 3.2 3 3.9zm42.7 66.6 1-5.5.9-3.5.6-2 2.5 1.2 5.5 2.9 2.2 1.5 2.1 1.7-9.6 4.2-6.3 3zm5.7 1.4 10.3-4.6 8-2.7-.2-.5.2.5 4-1.8 2.5-1.3 2.1-.9-1.4 2.1-7.6 7.9-4 4-2.6 2.7h-.4l-2.6-.6-3.6-.6-3.2-.3-6.9-1.3zm-39.4-75.7 4.1 18.9-.6 2.2-6.5 5.1-1.2-3.2-3.6-15.5-1.9-4.3.6-2.8 5.6-1.9zm-10.1-.6-.6 2.4-2.4-3.1-5.4-3.4-6.4-2.4-6.2.8.1.6-.1-.5-15.3 4-1-7.6 20.5-2.8 16.6-.5h3 1.5l1 .1.5 10.5zm-37.3-.3 15.8-4.1-1 23.6-22.6-3.4-25.6-15 .3-.1.9-.2.5-.1 4-1 4.2-1.2 12.6-4.6 6.6-2.1 1.2-.3 1.6-.2.4-.1zm-8.2 17 23 3.5-2.2 20.5-1.5 9.3.6.1-.6-.1-2.4 16.8-2.8-.5-20.9-5.5-.8-.2-15.8-4.4-2-.6-1.9-.1h-.1-.5l-.6-.2-.3-.1-.5.4-1 .5-.8.4-3.9 2.6-17.4 13.9-1.8 1.4-6.4 4.2-1.4.3h-1.2l-1.4-.3-2.6-.7-31.5-11.1-14.7-4.3-14.7-2.3v-2.3l-.5-2.6-3.9-11.4-2.3-7.9 17.1-7.9 20.7-7.6-.2-.5.3.5 8-4.8.2-.1 4.1-10.6 4.7-15.2 16.6 3.9 17.9 5.2 9 1 4.2.7h.3l2.9.3h1.4l.9.1zm-85.7-12-3.9 10.2-7.1 4.2-.6-5.4-2.1-10c .1-.2.1-.3.1-.5l-.1-.4.9-9.3.3-2 1.2.2h.2l3-.4 12-1.5.9-.1zm-12.8 9.2.7 5.8-20.3 7.4-17 7.8v-.1c-.1-.2-.2-.3-.4-.4l-.7-11.5-1.7-11.5 25.6-4.5 2.3-.6 1.8-.3 1.1-.3.7-.2 5-1.2.8-.1zm-38.8 9.1.6 11.2h-.7l-3.4-.6-2.2-.3h-2.3l-4.1-3.2-.8-.9-.5-3.7-.1-1.1-.2-1.9-.9-6.5-.3-2.5 6.3-1.1 6.9-.9zm-9.6 10.6h-.1-.7l-1.9.2-.4-2.6zm-4.1.4h-.4l-2.2.5 2.2-3.3v-.1zm78.6 52.6-5.2 1-33.6-5.7-15.9-19.4 9.9 1 3.4.5 14.5 4.3 10.9 3.8 24.7 9.2-1.4 5.3zm175.7.4 3.3-3.8.5.1 1 .1-4.4 3.6-3.8 3.6zm20.9-24.4.2-2.5.1.1.7.3 1.5.6.9.2-.4.1-1.6.2zm-6 11.8 2.2-2.5 4.3-4.4 2.3-2.1 2.5-3.2.9 1.1-.5.4-5.2 4.7-4.8 4.5-1.4 1.4-2.7 2.7-1 1.2-.1-.7zm12-13.6-.3-.4c-.1-.1-.3-.2-.5-.3l-1.2-.1-1-.3-.6-.2-.3-.2-1.1-.5-2-1-3.3-1.9-2.2-.9-7.3-3.3-.3-.1-.8-.4-2.9-1-1.6-.6-1.7-.5-2.2-.4-3.2-.9-2.6-.3-2.7-.6-1.2-.4-3.2-1-2.5-1-4.7-2.3-5.2-3.4-1.9-1.3-.2-.1-1.9-1.6-1.1-1.6-.6-1.3-.7-1.5-.2-1.1-.3-.8v-3.3l.7-3 2.9-5.2 3.3-5.1 1-2.8.2-.4.1-.4.1-.4.1-.3c0-.1 0-.1.1-.2l.1-.6.6-1.8-.6-4-1.4-12 4.6-2.7 5.4-1.3 1.1 9.6 2.9 5.7-2.3 4.1-7.2 1.1.1.5-.6.1.7 6.2-2.4 5 6.6 16.9 8.5 3.5 3.2 1.4 2.9 2.5 3.7 1.5 1.3-1 7.9 3.4 3.3 1.2.4-1-3.2-1.2-8.2-3.6-.3-.1-1.3 1-2.9-1.2-2.9-2.5-3.4-1.6-6.4-2.7-1.7-.7-6.2-16 2.3-4.7 2.2-3.7 4.4-3.7-.4-.4.5.3 2.3-4.2 3.3.6 8.7 6.3v1.7l3.7 6.1.9 2.4-1.9 3.3-2.6 4.8 1.1 5 .5-.1-.1.5 7.4 1.9 10.1 1.1 2.1-4.8-.5-.2.5-.3-1.9-3.3-3.5-2.6-7.2-4-2.3-1.4 4.9-5.7 8.4-5.7 5.1-3-.3-.5.3.4 6.5-4.7 4.3 7.4 1.1 3.8 1 11.4.6-.1.2.5 4.5-2 6.5-.7 1.6-.7 1.2-2.8 6.6 1.3 10.8-1 .7 1.8 10.3 12.9-42.8 15.1.4 1.1 43.3-14.4 3.8 4v .3l-7 3.3-6.2 3.3-10.8 5-25.8 10-5.6 1.5zm-43.9-53.7-2.9 2.4-1.5 2.6-.5-4.2zm46.6 54.4 5.7-1.5 25.9-10.1 10.9-5.1 6.2-3.3 6.6-3.1.1 1.2-.3 1.6-.5.9-4.5 2.3-1.5.8-4 1.7-4 1.7-6.4 2.8-32.3 13.5-2.9-2.1-.9-1.1zm55.1-30.7-.2.7v.3l.2 3.5v.2l-3.1-3.3-10.6-13.2-.6-1.5 18.4-2.9 15.9-6.1-.2-.5.5.2 20.4-40.3 9.9 5.3-.4.9-3.9 7.9-1.9 3.6-4 7.3.1.1-.1-.1-4.6 9.8-8.2 16.8-3 .4h-.1l-.8.3c-.1 0-.1.1-.2.1l-.4.3c-.1 0-.1.1-.2.2l-.3.5-2.2.8-2.6.9-16 6-.9.4c-.1 0-.1.1-.2.2s-.2.1-.2.2zm28.4-10.4c.1-.1.2-.1.2-.2l12.2-25 1.6 5.6 1.8 5.7.5 1.2 1.8 4 1.5 2.8 1.5 1.4-4.2 1.3-6.5 2.2-8 3-4.1 1.6zm37.7 6 9.7 1 .1-.6v.6h2.5v-.6l.1.6 22.3-3.7-.1 34.3-.3 1.2-.6 1-9.3-6.5c-.1-.1-.3-.1-.4-.1l-4.2-2.6-2.8-1.6-4.7-.5-4.8-.3-5.6-.1-5-.3-4.1-.3h-4.8l.5-1.8 1.3-2.4 5.9-10zm166.4 109 5-1.2 9.4-3.8 2-.3 2.1.7 2.3.8 1.9 1.1 1.3 1 1.7 1.7-1.1 15.7-3.2 1.5-4.9 1.2h-9.3l-3.8-1-9.4-8.2-7.8-7.2zm26.9 0h-.6l.6-.1-.8-6.3-1.5-5.1-.9-1.7 2.1-4.4 2.8-7-.5-.2.5.1 1.1-3.9 1-10 1.9-24.2 1.4-12.8 36.3 3.8.1-.6v.6l1 .1-.8 4.1v6.3l.2 5.5.2 3 1.5 11.5.6 11.1.2 24.4.1 1.9-21 11.5-26.4 7.9zm44.2-72.8 5.4-26.8 5.2-23.9 1.6-6.8 1.5-7.7v-3.9l2.2-10.8 3.3-13.5 4.3-19.1v-.1l-.3-4.7 1.8-7.5-.5-.1.5.1 6.2-33.4 6.5-31.2 1.7.4c.2.1.4 0 .6-.1s.3-.3.3-.5l5.4-26.1 1-.4c.1.1.2.1.3.1l6.6 1.5-.3 1.3c-.1.3 0 .5.2.7l-2.5 16.1-1.2 6.8-1 3.3-9.4 41.3-.6 6-1.3.7c-.2.1-.4.4-.4.6l-.4 9.7-.1.2-7.2 2.5c-.2.1-.4.3-.5.5l-.6 2.6-1.8 6.3-2.8 11.3-13.9 65.4-1.8 6.3-2.1 6.6-1 3.9-.9 3.9-3.6 18.7zm9.2-313.7 4.5-.7h.2l8.1-6.9 6.4-3.9h2.3l-1.3 1.8v6l .7 7 1.1 8.4 5.1 21.4 6.8 29.9 1.9 10.5-1.5 16.5-.7 6.9-4.3 18.5.2.1-.2-.1-1.1 5.1-7.9-1.9-45.3-43.4 1-2.2 2.1-5.2 1.2-3.3 1.7-5.4 1.5-9 7.7-45.7.2-1.4zm-2.3-24-5.4 9.3-2.6 14.6-6.3-22.3-4.3-13.4 2.3-10.7 22.2 13.4zm.7-60.9 27.4 16.1-11.4 17.6-4.9-2.7-10.2-6.2-8.5-5.2-.6-1.4zm-8.9 19.6.3.7 8.8 5.4 10.3 6.2 4.8 2.7-9.5 16.4-22.4-13.6zm-36.6.5 2.6-1.7 3.7-2.9 3.6-4.4 2.4-4.3 23.6 11.7-8.3 19 .5.2-.5-.1-2.4 11.2-2.3.1-3.5-.1-3.3-.7-4.3-1.6-1.9-1.1-1.7-2.8-1.5-3.1-3.4-6.5-2.9-6.3-3-4.6zm-89.4 5.2.6-12.7 22.2-7.9 3.8 10.4-18.6 6.5-1.6 1.7-5.5 1.9.4 1.1 5.6-1.9 1.6-1.7 18.5-6.4 8.7 24.3-41.4 14.4zm-71.8 59.8.6 1.2-.7.3zm1.5 2-.2-.5.2.5 47.1-23.6 10.4-4.7 6.5-2.4 42.3-14.8 4 11.1 1-.4-4-11 23.1-7.8-.2-.5.2.5 8.3-3.5 12.9-4.6 4.6-2.7 2.9 4.5 2.8 6.3 3.4 6.5 1.5 3.2 1.9 3.1 1.9 1.1-.6 14.1-.9 25.5-50.2-3.5-12.3-1-20.6.8-24.9 7.2-2.4-22-.3-4.3-1.1.1.3 4.3 2.5 22.3-5.2 1.8-5.9 1.3-11.4 1.5-5.5.1h-6.8-3.2l-6.5-.9-2.9-.7-2.8-.9-3.2-1.2-4.4-2.1-3.9-2.1zm-2 1.8 3.6 1.9 1.2.5-2.9-1.1c-.1 0-.2-.1-.3-.1l-1.7-.1zm-29.7-42.7s0 .1 0 0l .4.4c.1.1.1.1.2.1l.2.1h-.8zm0 1.8h1.1v.1c0 .4.3.7.7.7l10.1.3 16.8 35.8-.2 2.1-24.2 9.6-1.4-3.4-1.8-5.3-2.1-5.9-1.7-5 1.7.1zm-28-12.1.7-18.9 9.2.3v-.6.6l17.7.6-.4 19-.4 10.5h.6-.6l-.9 28.5-1.3-.1v.6-.6h-2.5l-4.3-.3v.6-.6l-18.8-.4.1-19.2zm-22.4-16.7v-2.7l22 .4-.7 18.3-21.6-.5zm-.3 16.6 21.6.6-.8 18.9-21.5-.1zm-.5-.6h-.3zm-.2 29.7v-8.6l21.5.1-.2 18.6-21.7-.3zm-1.2 42.8.7-31.8 22.3.3v-.6.6l19 .4 1.2 2.6 2.7 7.2 3.1 6.7 1.6 3.9 1.6 1.5-17.9 6.9-14.4 5.8-5.8 2.3-4.9 1.9-3.7 1.6-6.1 2.3.6-11.6h-.6zm-11.3 18 3.1-1.1 12-5.3 5.9-2.5 5.4-2.1 5.4-2.1 1.4-.6 2.5-1 29.2-11 1.1 1.8.4 1.6.5 4 .7 5.3 2.4 24.4 1.5 11.6 4.4 23.4-21 4.3-6.8-6.8-3.9-3.6-40.5-26.7-4-3.6-.6-5zm-8.1 3.1 6.9-2.7-.8 4.4.5 4.2-7.9-5.3zm-2.6 1.1 9.5 6.3 4.2 3.7 40.5 26.7 3.8 3.5 6.5 6.5-4.9 3.4-10.5 5.5.3.5-.3-.5-6.4 3.6-17.4 8.5-1.2-1.6-.3-.7-1.2-1.6-.8-.9-1-1-4-3.3-32.5-25.5-13.3-10.7-4.6-3.7-.2-.2-.9-1 11.8-7.5 8.3-4.3 1.7-.7zm-33.4-18.1 7.9 3.2 9.8 5 5.8 3.6 8.3 5.4-12.9 5.1-1.1.4-1.3.5-4.5 2.3-6.1 3.8-8.7 4.5-.6-1v-.1l-.5-2.2v-.1l-.7-15.8-.9-15zm-6.1 14.7.4 11.7.1 2.7v.2l.1 1.4.2 4.3-3.2 3.3-3.1 2-1.4 1.1-.5.4-6.5 7.1-9.1 10.1-.2.3-.1.1-.1.1-12.5-18.5-10.5-16.8c0-.2.1-.3 0-.5l-.2-.4 5.6-6.9 34.8-14.5 5.3-2zm-3.3-62.7 2.3 46.9-5.7 2.1-34.8 14.5-2.9.5-5.2 2-5.1-7.6-1.7-2.6-2.2-3.4-7-9.1-6.2-6.1-4.7-4.9 6.6-4.3-.3-.5.4.4 3.6-4.4 22.2-13 .5.8-1.3.7 14.2 28.4 1.8-.2 4.4 9.9 1-.5-4.5-9.9.8-1.1-.4-.3.5-.2-6.8-13.5-7.5-14.4-1.2.6-.5-.8 13.6-7.3-.5-1-13.7 7.3-4.5-8.3-4.8-8.1 10.1-5.8 28.4-16.3 7.3-3.7zm-39.2 12 .7-.3 7 13.5 6.7 13.2-.7.9-1.2.1-13.4-26.8zm29.7-68.9 5.5 22.5-7.2 3.7-12.4-17.4zm-15.1 9.4 12.4 17.3-27.4 15.7-10.6-16.9zm-15.9 33.6-10 5.8-9.4 5-18.1 10.8-10.5 5.9-.6-.9-8.3-13.8-.4-.7 24.3-15.3 22.4-13.8zm-51.2-19 7.7-5.9 6.9-4.6 3.2-2.4.8.6 2 1.7 1.9 2.2 1.8 2.4 1.7 2.1.4 1.3.3 2.1-.7 1.8-1.2 1.3-1.4 1.1-2.5.8-2.8.4h-2.5v.6l-.2-.5-1 .3h-2.9l-3.7-.3-2.8-.3-4.2-1.7-1.9-.7-1.1-.5zm17.5 6.2-.2 1-3.4 3.5-2.5.9-2.3-.9-2.7-3.2-.5-1.5 2 .2 3.8.3h3l1.1-.3zm-27.6 2 4.3-3.1 3-2.4 1.5.8 6 2.4.7 2.1 2.9 3.6 3.1 1.3 3-1.1 3.9-4 .4-1.6 2.5-.4 2.7-.9 1.7-1.3 1.3-1.5.9-2.4-.3-2.4-.4-1.5-1.9-2.4-1.8-2.4-2-2.3-2.1-1.8-.7-.5.3-.4.7-.7 1-.4 5.2-3.3 1.6-1.1 12.6 20.8-22.4 13.8-24.3 15.3-10.6-17.6zm2.1 22.8-3.4 1.8-27.7 17.7-13-15.7 33.3-21.2zm-38.2-63.2 13.8 23-6 4.2.6.9 6-4.2 12.5 20.9-33.3 21.3-27.5-44.3zm-39.2 24.6 4.3-2.3 27.4 44.2-1.5.5-16.6 2.2-38.4 3.7-1-9.3-4.2-35.5zm-59.9 6.8 28.8-3.1 4.2 35.5 1 9.2-34.3 3.7-.3-12.1zm1.9 79.1-26.8 2.1-3.4-32 27-2.7zm-30.4-76.7 27.4-2.2-.6 33.1.3 12.2-27.1 2.7-.3-3.1-.1-1.7-.1-32.8zm-1.3 47 1.2 10.9 2.2 20.9-22.4-1.7-2.9-28.3zm-47.8 5.8 8-1.8 12.7-1.9 4.1-.3 2.8 28.2-17.9-1.6 1-2.6-14.2-19.2zm-44.2 23.5 4-3.4 6.7-4.7 6.7-4.1 5.7-3.4 8.6-4 7.9-2.7 14.1 19-1.1 2.7.5.2v.1l-.5-.3-.1-.1-10 18.2-7.7-4.5-1.8-1.1-.6-.4-1.6-.9-2.7-1.1-25.5-7.4-.7-.2-2.7-.9zm-1.7 2.4 3 1 .7.3 25.5 7.4 2.4.9 1 .6 10.6 6.1-13.1 13.8-27.9-8.1-6.8-1.9-.9-1.1v-1.2zm30.3 31.5 32.6 29.8-3.2.1-47.4-4.9-2.3-1.3zm-84.6-78.3 14.1 13.1 3.4 4.2.4.7 2.2 3.8.4.6 2.1 3.5 10.6 8.2 15.7 9.4 4.6 2.8-5.6 18.1v1.9l1.4 1.6 7.1 2 27.4 7.9-20.2 23.7-28-23.9-17.2-18.8 8-8.8 7.5-8.5 2.3-.6.7.3 1.5 1.1h1.1l1-.5.2-.7-1.1-.4-.1.2-.3.1h-.6l-1.3-1-1.2-.5-3 .8-7.7 8.7-8 8.8-1.7-1.5-2.3-1.7-3-1.8-3-1.3-1.9-1.1-2.1-1.7-1.7-2-2-3.2-4.1-9.8 14.6-10.5 7.7 10.4.4-.3.5.3 1.2-1.8-6.3-11.6-.5.3-.3-.5-3 1.9.3.5-.3-.5-14.9 10.7-10-24.4-3.3-8.6-3.9-9.5 4.9-4.9zm-31.8 83.5-3.1-6.8-2.7-5.5-3.9-7.6-1.5-2.2 18.5-13.3 14.5 34.1-11.9 3.8-7.8 3.1zm25.8-49.9-18.1 12.8-12.5-29.7 2.1-.8 7.6-2.5 7.6-2.7 3.5-1.3zm-17.6 13.9 18.1-12.9 4.1 9.7 2.1 3.3 1.9 2.2 2.3 1.8 2 1.2 3.1 1.3 2.9 1.8 2.2 1.6 1.8 1.6-.4 2.9.4 10.8.3 11.4.1 1.8-2.4-1.4-3.3-1.4-3.8-1-3.5-.4-3.1-.6h-2.9l-1.9.3-5.2.6zm20 35 1.8-.3h2.7l3 .6 3.5.4 3.7 1 3.2 1.3 2.9 1.7-.4 3.1-3.5 8.6-3.8 7.5-1.5-.5-3.4-.8h-2.9l-2 .2-.7-4.5-7.6-18zm14.6-59.7 2-1.3 5.6 10.4-.4.6zm-29.1-38.3-5.4 5.4 4.1 10.1 3.1 8.4-11 4-7.6 2.5-2.2.8-11.8-27 19.9-16.2zm-37.3-50.4 3.6 6.5 1.4 3.1h-1.7l-3-.7-2-1.9-.7-2.3-.2-3.2zm-6.6 26.8 9.7-4.5-.5-1-9.8 4.5-9.8-16.4 13.3-7.3.2 3 .8 2.7 2.4 2.3 3.4.8h2.4l2.2 2.9 4.9 7.7 1.8 2.3.2.4 4.8 6.4.3-.2-.2.2 6.2 7.1-19.7 15.8zm-9.5 46.3 15-12.1 6.7-5.7 11.6 26.6-5.1 1.6-5.8 1.5-5.6 1.3-5.5 1.2-2.4.7-2.1-.4zm17.2 33.9-.5.3.5-.3-9.8-17.8 1.5.3 2.6-.8 5.5-1.2 5.7-1.3 5.8-1.5 5.3-1.6 12.7 30-18.6 13.3zm4.7 58.8-11.9-7.5-4.8-3.6-1.2-1.5-.3-.3 2-2.5 2.2-3.1 2.5-3.2 2.5-2.7 2.5-2.8 5.2-5 7.1-5.6 1.4 2.1 3.9 7.6 2.7 5.5 3.1 6.8 2.1 5.6-5.1 2.5-5.4 3.1-5.1 3.3-2.5 2.1zm14.3 14.7-1.5-1.7-.5-.7-.7-1-1.3-1.5-.2-.3-.2-.2-1.5-1.7-2.4-2.2-4.4-3.9 2.3-1.9 5-3.3 5.3-3.1 5.5-2.7 8.3-3.2 12-3.9 7.6 18 .7 4.4-2 .3-2.8.6-3 .8-10.6 3.3-6.9 3.4-6.5 4-1-1.7zm-8.1 39.8v-.3l.7.3zm39-1.7-1.4.5-9.7.7-16.3.3h-8.3l-4.1-1.7-.8-.5-5.5-2.4 4-8.8 5.7-12.2 4.3-5.3 2.8-3.2 5.2 9 .8 1.3 2.2 3.9.7 1.1 1.8 2.8.6.6 1.5 1.8 2.1 2.1 2.3 1.8 2.5 1.4 1.3.8 4.8 2.1h.1l3.3 1.5v.1l.3.8zm1.2-3.6c0-.3-.3-.5-.5-.6l-1.7-.5-.7-.1-1.4-.3-4.5-2-4.5-2.9-3.1-2.9-2.3-2.4-1.9-3.1-7.7-13.4-1.1-1.8 6.4-4 6.8-3.4 10.5-3.3 3-.7 2.8-.6 1.9-.3 1.7 41.7-3.7 1.2zm7 2.8-4.7.9-.3-.1-.9-.6-.6-.9-.2-.4 3.9-1.2 2.9 2.2zm2-.4.1-.2h.2.1zm31.4-7.6-3.2.8-22.2 5.6h-2.7l-2.7-.3-.6-.3c-.2-.1-.4-.1-.6 0s-.3.2-.4.4l-.2.6-2.8-2.1-1.7-42 1.9-.2h2.7l3.2.7 1.8.6 16.8 14.5 3.4 2.9 3.1 2.9 2.5 3.2 1.6 3.5 1.3 3.2.7 3 .2 2.3zm24.8-13.6-2.7 1.9-5.2 3.7-5.1 2.8-1.1.6-5.8 2.8-1.8.7-.2-2.1-.8-3.2-1.3-3.3-1.7-3.7-2.6-3.3-3.1-3-20-17.2 3.8-7.5 3.6-8.8.3-2.7 44.8 37.3 2 3.2zm2-5.6-45.5-38-.1-2.6-.3-11.4-.6-10.7.3-2 16.8 18.3 28.4 24.2 2.3 24.2zm.2-21.4 2 1.1 45.6 4.7-1 .4-3.5 1.1-18.2 7.8-18.2 7.8-4.5 1.7zm60.1 35.4-7.6 27.5-5.6 9.3-4.1-.3-6.9-.7-7.3-4.7-4.7-3.5-3.2-2.9-2.6-3.9-1.8-3.8-1.8-6.2-3-6.6-7.4-12.6-1.2-1 4.3-1.6 18.2-7.8 18.2-7.8 5.5-1.8 14.1-1.8.2 15.3zm3.1-31.6-8.4 1h-.2l-33.4-30.6 13.2-13.9.4.1 7.1 2.3 9.1 2.9.9.3 30.3 2.7 1 .1 1.1.1h1 .1l2.5-.4h.2l.5-.2 1.1-.1 1.8 17.4 1.5 15.5zm31.1-6.4-3-29.7 5-1.6h.1l50.3 9.5 6.8 1.5 6.7 2.2 2.7 1.2 3.1 1.5 3.1 1.5 4.9 3.1 9.7 6.4 5.9 3.8 1.2 1 .8.6 9.5 9.1 9.5 9.1 2.8 2.5.8.8.5.4 3.9 3.7 1.7 1.7s0 .1.1.1l.9 1.1 1.9 1.8 3.3 3.3 6.2 5.8 7.2 7 .4.4 1 1 .1.1 1.5 1.5.4-.4.1.6 3.3-.4h.7l5.8-.7h.3l3.4-.5 1.4-.2 1.3-.2 3.7-.5 3.3-.5 3.2 28 .9 5.9v.3l-2.8.2v.6l-.5-.1-.3 1.9-.1 11.1-.6 4.2.6.1-.6-.1-.4 3.8-.8 2 .1 6.7-.8.9-4.6 4.4-5.2-2.4-.2.5.1-.5-3.9-.4-5.7-3.1-3.9-.5-.1.5-.1-.5-5.3 1.4-6.3-6.3-.4.4.4-.4-7.4-6 1.1-4.5-1.5-7-1.6-3-1.5-2.2-.5.3.3-.5-2.2-1.4-6.1-5-.4.4.3-.5-2.1-1.3-1.4-.2-.1.5-.2-.5-2 .8-3.8-.1-5.7-2.5-5.9-3-3.5-2.1-2.1-1.5-6.5-3.9-1.9-1.2-.3.5-.4-.4-1.1 1.2-3.2-1.1-3.8.2-2.1 1.5h-2.3l-1.2-.8-.3.5.3-.5-2.2-1.3-.3.5.1-.5-7.3-1.9-5.7-1.8-7.2-4-4.5-3.5-2.5-2.5-1.8-3.1v-3.9l.3-3.2-.5-.1.5-.1-2.1-12-4.5-11.6-.5.2.5-.3-1.1-1.7-1.8-2.6-2.5-2.5-.4.4.4-.4-5.5-5.1-17 1.7zm115.4 90.5-.6.9 3.5 2.2 7.9 6.5-2.3 3.7.5.3-.5-.2-1.7 3.9-1.6.6-2.8.5.1.6-.1-.5-4.6 1-1.8.5-2.5 1.3-6.3 5.7-13.8-8.1-4.3-2.2-3.6-.8-1.5.7-5.1-1.1-8.5-9.7-6.7-4.1-.3.5.3-.5-2.6-1.5-.6-3.5 1.5-1.9 2.2-.4 2.1.1 2.7.4 1.2-3 1.9-9.8 1-5 1.8-3.4 1.8-1.3 3.3-.1 3.3 1.2.2-.5.4.4 1-1.1 1.5.9.3-.5-.3.5 6.5 3.8 2.1 1.5 3.6 2.1 6 3 5.8 2.5.2-.5v.6l4.1.2 2.1-.9.9.1 2 1.3 6.1 5 2.1 1.4 1.4 2.1 1.5 2.8 1.4 6.6-.9 3.8-7.6-6.3-.3.4.3-.5zm-1.8 23-.5-.3-7.5 10-2.2.9-9.9-7.7-.3.4.3-.4-7-5.2-5.9-3.3.4-.2 3 .7 4.2 2.2 10.3 6.1 4.2 2.4 6.8-6.2 2.3-1.3 1.6-.4 2.6-.6-2.8 2.6zm-45.8-49h1.1l-.8 1.4zm-51.2 69.7.2-2.7.1-.3 33.8 2.8.1-1.1-33.9-2.8v-.4-.1l-5.6-42.6-5.6-42.6-4-29.7-1.3-10.1 16.6-1.7 4.9 4.5-1.4 8.9-.6 3.1-1.6 11.2-.9 3-.8 2.3-.5 2.1-.3 2.1.6.1h-.6l.3 8.2 2.8 14.7 1.1-.2-2.8-14.6-.3-8.1.3-2 .4-2 .8-2.2.9-3.1 1.6-11.2.6-3.1-.5-.1.5.1 1.3-8.1 1.7 1.7 1.8 2.5 1 1.6 4.4 11.4 2.1 11.8-.3 3.2.6.1h-.6v4h .6l-.5.3 1.9 3.3 2.7 2.7 4.6 3.6.3-.4-.3.5 7.3 4 .3-.5-.2.5 5.8 1.8 7.2 1.9 2.2 1.3 1.1.8.7 3.2-2.9 14.6-.9 2.1-1.8-.2-2.2-.1-2.7.5-2.1 2.6.8 4.3.5-.1-.3.5 2.8 1.6 6.5 4 8.6 9.7.1.1 5.6 1.2 6.7 3.8 7 5.2 10.1 7.9.2.2 3.1-1.2 7.7-10.6 4.1-3.9 2.8-.5 1.9-.7-.2-.5.5.2 1.8-4.1 2.2-3.6 7.2 5.8 6.5 6.5.4-.4.1.5 5.6-1.5 3.5.4 5.7 3.1 4.1.5 5.4 2.5.2-.5.4.4 4.9-4.8-.3-.4.4.3 1-1.2-.1-6.9.1-.4 2.5 7.2 2.2 10.1 3.2 11.2 2.6.4 1.1 9.3-3.3.5h-2.3l-13.8-.7-8.8-.6-8-.1-6.6-.6h-4-2.5l-4.9.7-7.9.8-5.7 1-3.5.3-3-.3-.1.6v-.6l-12.6.6-4.6-.3-7-1.8-15.1-4.3-13-5.9-6.3-4.9-2.3-1.6-6.2-6.4-.6.6.6-.6-3.5-3.5-.9-1.5-11.6-21.4-.7-1.1-.6-1.7-1.8-10.1-.6.1.6-.1-3.4-17.5-1.1.2 3.4 17.5 1.8 10.2.6 1.9.7 1.2 8 14.8 3.6 6.5 1 1.6 3.6 3.6 4.6 4.8 1.7 1.7 2.3 1.6 3 2.4 3.4 2.6 13.2 6 15.2 4.3 7.1 1.8 4.8.3 12.6-.6 3 .3 3.6-.3 5.7-1 7.9-.8 4.8-.7h2.4 4l6.6.6 8 .1 8.8.6 13.8.7h2.5l3.3-.5 1.1 9.5.4 4 .2 2.3-2.2.2h-.2l-4.7-.7-10.3-1.8-2.9-.4-4.1-.5h-.2l-8.4.2h-1.5l-1.8.1-6.6.2h-2.8l-6 .8-8.7.8-6.5 1v .2h-.1l-.1-.2-1.1.4-1.4.2-3.5.8-2.4.8-.7.3-1.4.6-8.5 3.1-9.1 2.9-3 .8-.5.1-2.8.5h-1.9l-2.9-.3h-.1l-10.5-1.6-4.5-.9-20.2-6-3-.9-1.1-.3-4.5-1.1-.7-.1-.8-.1h-1.8.1-1.6-.2l-13.9 1.8-2.1.2-1.1-.2zm-65.7 26.3 4.6-8.5 2.6-6.5 1-5 16.7-12.4.4.7 6.8-3.6 20.1 3.4 5.4 1.8 3.8 2.5 2.6 1.8-3.3 27-.8 5.4-.2 1.3-.1.5-.2 2.1v2.8l-1.1.1h-1.2l-3.9 1.2-1.2.4-30.1 5.2-14.6 2.4-4.3.8-.6.2-1 .2-3.2-3.1-1.2-1.4-.1-.1-.9-.8-.5-.5-.5-.5-1.1-.9h-.1l-2.3-2.3zm-98.9 43.3-1.1-1.1 2.7-.1zm1.1 1.1 2.8-2.1h2.6.2l-2.1 5.5zm4.3 4.5 2.5-6.6 1.6-.1 5.5-.6 3.5-.6 2.3-.4.9-.2 2.4-.5 1-.1 1.4-.4 5-1.1.5-.1 1.5-.3 1.6-.5 1.9-.7.5-.2 3.2-.8 1.7-1.1 1-.4 2.1-1.1 6.7-4.2 10.7-7.4 4.1-2.8 1.9-1.1 4.1-1.9 2.4-.6 3.2-.8 1.5-.3h.2l1.6-.1h.7.7l1.2.1 1.5.4 2.5 1.2 3.3 2.1 1 .9.9.9.2.2.8.6.8.9.8.9.6.9.9 1.8-14.6 6.9-22.9 9.9-29.3 11.9.2.5-.2-.5-7.9 3.5-15.8 1.1zm-.4 26.6-15.8-1.4h-.1l-5.6 1.2-5.3-3.4v-6.1l1.7-2.7 4.7-1.7 5.2 1.9 7.6 2.4 6.1.2 3.4-.6v.6l-1 1-1.4 2.2v4.9zm.4 6.9-.5-.1.5.1 1-5.9 1.8-1.5.8-3.9-.5-.1h.5v-3.4l-1.2-1.6v-.6l3.5 1.2 32.8 4.3 4.5.7 1.7 14.4-12.5 7.6-19.8 15.2-8.7-10.9-4.7-5.7-1.1-2.4zm-38.3 56.4-7.9-8.7-2.9-3.6-1.2-2.1 5.8-3.6 26.9-15.3-.3-.5.3.5 4.3-2.8-.3-.4.3.4 8.6-7-.4-.4.5.2 2-4.4.7 1.5 4.8 5.9 8.7 10.9-42.7 38zm14.2 17.2-6.2-7.7 43.1-38.4 20.2-15.5 12.8-7.7 7.4-4 9.5 17.3 10.2 17.5 1.3 17.9-24.2 3.9-17.1 4.6-22.9 8.3-19.2 7.6-3.8 2.1-2.6-1.2-3.9-1.5-2-1.4zm.5 6.9.7-1.8v-1.7l-.5-1.4 1.1.8 2.1 1.5 4.1 1.5 1 .5-3.1.3-6 1.5zm-32.4 15 6.1-3.7 16.9-5.9 8-3 7-1.8 1.9-.2-38.4 17.7zm179.5-38.5-18.3-.5-24.7 1.9-.9.1-2.8.5-28.6 5.6-14.7 4.8-17.1 5.5-33.2 15.6-33.6 17.4-3.5-8 41.3-19.1-.2-.5.3.5 3.9-2.2 19.1-7.6 22.8-8.3 17-4.6 24.6-4 24.3-1.9 19.4-2.1 6.6.3.7 6.7zm3-8.6-.2-1.3-.5-2.1-.5-2.1-.8-1.8 1.9-4.2 24.4 17.5-9.7-3.8-8.6-1.5h-5.9zm-63.9 54.9-1.5 7.9-.9 1.8-2.4 2.9-2.5.4-9.6-.3-9.4 1.6h-9.4l-6.4 1.6.1.5-.2-.5-3.2.9-6.5 2.6-1.7-.4-12.4 2-2.5-1.2-6.8-1.8-3.7-1-3.7-1.2-1.6.2-3.6 1.6-1.7-.2-.3-1.7.9-2 1.4-1.1 6.5-5 13.2-9.5 2.4-3.9 7.3-3.3 5.4-1.3 24.1.6 11.5-1.6 11.1 1 8.1 1.3 1.7.1zm22.5-4.3-4.3-1.9-3.6-1.4-5.7-1.2-4-1.3-.2.5v-.6l-2.5-.1-6.1-1-1.5-.2-.2-1.4v-1.7l2.2-7.2 1.3-3.9 1.5-2.4 1.3-1.9 1.1-1.3 3-.5h3.5l4.5.7 2.9.3 1.5-3.2.9-2.5.8-1.9 3-.3 2.7.6 3.8 1.3-4.9 19.2zm41.3-6.2-.4 2.8h-2.5l-5.7.2-4.6.6-4.9.9-3.3 1.4-5.1 2.8-2.7 1.6-2.4.5-8.6-4.1.7-13.6 5-19.3 1.5-.6 2.8-.3 9.3-.1 6.2.4 9 .5 3.7.3 2.1.2.3 2.6.2 3.9.1 1.3v.8zm124.3 41.1-1.1 1.3-1.4-1.4-24.4-25.5-14.5-13.4-16.3-11.8-22.6-12.3-18-8-9.9-3.7-8.3-1.8-6.9-.1-.4-4.5-.2-2.3h5.6l8.4 1.5 13.6 5.3 12.3 6.7 11.7 5.8 22 11.6 6.5 3.8 9.3 6.9 5.9 6.1 1.5 1.8 13 11.7 17.6 17.7-2.1 2.6zm.8 3.2-.1-.1 4.5-5.6.2.3zm5.2-6.4-.1-.2 1.3-1.6zm2-7-3.8 4.7-17.6-17.7-13-11.7-1.5-1.8-6-6.1-9.4-7-6.6-3.9-21.6-11.4 10.5-53 7.3 2.6 22.5 19.2 5.8 4.5-6.1 17.9-5.7 4.5-3.6 3.4-2.5 3.7-1 1.7-1.5 1.8.9.7 1.5-1.9 1-1.7 2.4-3.6 3.5-3.2 5.9-4.7 6.1-18 1.4.5 3.3.3h2.5l2.6.7 2.6.6 1.3.1 2.4 1.7 2.7 1.7 2.8 2.5 2.7 2.8 2.5 2.9 1.3 3.4.9 4.1 1.3 3.2 3.6 10.3 3.3 5.8 2.5 3.6.5-.3-.4.3 10 12.5-1.6 2.8-3 4.4zm16.4-18.7-10.1 12.3 7.6-9.9 3-4.5 1.2-2 .5 1.6zm3.5-6.3-.8 2.2-.4-1.3 8.1-9.7 1.9-2.3 4.6-4.5-6.2 6.9-5.9 7.3zm73.5-75.7-10.1 9.2-2.8 2.8-2.8 2.8-8.2 8.9-39.5 43-7.7 8.6-1.6 1.8.2-.7 1.3-1.4 5.9-7.3 6.8-7.5 2.6-2.6 8-9.4 11.1-13.8 9.8-11.5 10.8-10 3.3-2.5 14.6-13.1 4.7-4.4 5.2-4.3.7.1zm13.5-12.8-.6-.1h-.1l1-1.6 2-2 .1.9zm3.4.6-1.1-.2-.7-.1 1.1-1.3.1.3.5 1.2zm54 19.9-4.1-2.3-5.9-2.5-1-.5 11.1 4 .2.1zm-10-6.5 2 .5 2 1zm6.7 1.5-4.3-2.1-4.6-1-.1.5v-.6h-2.5l-9.6-3.1-9.2-3.2-1.6-.5-4.2-1.7-.8-.2-1.3-.4-1.8-.7-3.1-.9-4.6-.6-2.1-1.3-.4-.8-.3-1 1.8-2.2 4-4 4.7-4.4 5.8-5.2 2.8 2c .1.1.3.1.4.1s.2 0 .3-.1l32.7-13.7 14.4-6.2 3.1-1.6 3.1-1.6c.1-.1.2-.1.3-.3l.8-1.2c0-.1.1-.2.1-.3l.3-1.8c0-.1 0-.1 0-.2l-.1-1.2 1.1.9 3.4 2.1 20-8.9-.2-.5h.6v-2.7l-.4-3.9 4.9-1.9 8-3 6.5-2.2 4.6-1.5 1.1 2.5 6.8 4.2h2.8l4.2 2.5-4 7.1-5.9 10-1.4 2.5-.7 2.7.5.1h-.6l-.4 5.8.5 26.5.2 1.7-6 3.2-8.5 3.3-12.3 5.3-9 3.7-6.9 1.8-3.6 1.3-5.7.4h-6.5l-5.8-.7-6.1-1.2zm26.9 7-4 .3h-5.4l-12.8-1.7.1-.2.2-.8 2 .8.6.3.7.1 1.4.3 5.6.9 2.9.2 1.5.1h2l5.6-.6.4-.1 3.2-.7 3.3-.9 5.8-1.9 16.1-6.4 20.2-8 .4.9-4 1.1-3.6 1.2-6.6 2.5-19.9 8.1-10.8 3.4zm72.1 67-9.4 1.6-5 1.1-8 3-7.5 2.3-.4-1.5-.5.1.5-.2-5.8-15.1-14.3-29.5-13.3-26.5-.5.2.4-.4-2.2-2.5 10.1-3.2 19.9-8.2 6.5-2.5 3.5-1.2 4-1.1 1.6 4.1 3.9 6.8 6.3 10.3 1.6 2.6.7 1 .1.1 1.4 1.6.6.6.5.5 2.6 2.5.3.2.2.2 1 4.3 2.3 5.6 2.5 4.3 6.8 14.8 4.4 10.5 2.6 10.2zm15.8-13.8-.6.1.6-.1-4.5-10.6-6.7-14.6.9-2.5 1.1-1.7 1.3-.7 2.5-.9 25 15.1 4.3 2.6 1.9 1.2 1.7 1 .2.1 3.2 2.5 3 2.7.5.6 3.3 4.7-12.4 4.1-10.2 3.3-12.5 3.4zm57.7 40.6-.9-2-2.4-4.7c-.1-.2-.2-.3-.4-.4s-.4 0-.6 0l-3.2 1.6c-.2 0-.4 0-.5 0l-6.6 3.2-26 10.8-2.3.7c-.2 0-.5.1-.6.3s-.2.4-.1.6l.4 1.6-1.1.7-1.5-6.4-.5.1.5-.1-4.6-17.7-4.3-17.4 6.3-1.7.5-.1.9-.3 4.9-1.3 1.6-.5 1.9-.5 6-1.8 8.6-3.1 4.9-1.6 4.3 7.9 1.5 3.4 1.5 3.4 9 18.1 3.3 6.8zm106.1-37.3-.8 4.9-1.3.5-.6.2c0-.1.1-.1.1-.2l.3-1 .1-.9c0-.1 0-.2 0-.3l-.1-.4c.1-.1.2-.3.2-.5l.1-2.5c0-.2 0-.3-.1-.5l-.9-1.2c-.1-.1-.2-.2-.4-.3l-1-.3c-.1 0-.3 0-.4 0l-6.8 2.1-4.2 1.7-41.3 14.7-3.6 1.8-10.2 3.8-.2-.1c-.1 0-.3-.1-.4 0l-7.8 2.8-.5.3c-.3.2-.4.6-.3.9l.9 2 1.7 2.8-1.2.5-2.3-3-1.2-2.7c-.2-.4-.6-.5-1-.4l-20.6 6.1-1.9.7c-.2.1-.4.2-.4.4-.1.2-.1.4 0 .6l2 3.9-.2.1-7.1-14.4-2.5-5.1-2.7-5.5-1.5-3.4-1.5-3.4-.1-.2-2.3-4.2-.5-.9-1.3-2.6 1.6-.3 4-1.2 12.4-3.3 6.8-2.1 4.5-1.2 15.1-4.6 14.4-3 26-4.6 8.4 7.8 9.5 8.3.4-.4-.1.5 4 1h5 4.6l5.2-1.2 2.7-1.2zm46.5-13.1v-5.3c0-.2-.1-.4-.2-.5l-.4-3.3c0-.2-.2-.4-.4-.6-.2-.1-.4-.1-.7 0l-21 8.4-.4-.3c-.2-.2-.5-.2-.7-.1l-8.9 3.1c-.2.1-.4.3-.5.5l-8.7 4.5-.8.6-.7.7-.4.6c-.1.1-.1.2-.1.3l-.2.8v.9.2c-.1.1-.2.3-.2.4l-.3 2.6v.3l.5 3-2.1.8.7-4.3.7-9.3 26.9-8.1 20.6-11.3v1.3 2.9l1.1 9.7zm14-23-9.6 5.6-.2-13.3v-12.2l-.6-11.2-1.5-11.5-.3-8.4v-6.1l.8-4.1 9.5 1.6 1 40.5h.6-.6l.7 17.4h1.1l-.7-16.9 28.9-10 7.5 13.3zm29.9-29.7-12.5-22 64.9 28 .2-.5-.2.5 16.5 5.6 15.3 7 15.8 7.5.9 1-7.9-2.6-23.2-9.9-13.8-5.4-9.2-1.8-.1.5.1-.5-5.5-.7-16.1 1.8-17.2 5.4zm-18.8 106.6 1.7-21 3.7-12.7 8.4 11.5 14.7 21.1zm75.5 2.1-40.1 7.8-5.3-10.6-.5.2.4-.3-14.9-21.4 39.9-14.9 2 4.3.5-.2-.5.3zm-17.7-35.7-2.1-4.4-.4.2.4-.2-19.6-36.6-9-17.1 16.9-5.3 15.9-1.8 5.2.7 5.9 4 38.8 18.3 1.2 15 1.6 23.3zm54.3-27.3-1.1-14.4 16.6 5.8 17.4 4.5 8.3 1.4 1.4 23.6-41.1 2.5zm5 70.8-3.3-46.4 41.1-2.5.3 4.2h.6-.6l2.9 42zm69-4.7-26.9 2-2.9-41.1 39.6 17.5zm-22.3-65 42.4 19.7-9.8 22.7-40.2-17.7-.3-4.4h-.6.6l-1.4-23.8zm180.3-7.1-.2 2.3-5.6-1.3-12-3-25.3-5.8-10.9-2.1h-9.1l-7.8.5-8.6 1.6-7.4 1.2-5.9 1.8-7.6 1.2-9.2 1.2 3.3-1.3 17.4-4.6 7.7-2.2 9.9-1.9 10.5-.7 11.7.7 11.8.9 10.9 2.5 7.2 1.5 10.2 2.8 7.9 2.5 1.1.3zm0-3-.8-.2-7.9-2.5-10.3-2.8-7.3-1.5-10.9-2.5-11.9-.9-11.8-.7-10.6.8-10 1.9-7.7 2.2-17.4 4.6-7.7 3-3.5 1-2.9.7-6.1 1-7.9 1-7.7.9h-6.8l-7.7.3-8.2-.3-10.3-.1h-10.3l-4.4-.6-6.2-3.3 3.9.4 6.8.3 4.8.3 4 .2 4.9.3h15.3 6.6l6.6-.3 8.7-.8 5.2-1 7.6-1.6 7-2.1 8.1-2.5 5.9-1.2 7.2-2.4 17.5-4 9.8-1.5 7.4-.7 3.9-.4 15.6 2.9 15.1 3.3 13.4 3.6 7.6 2.2 3.3 1v2zm0-3.3-3-.9-7.6-2.2-13.4-3.6-15.2-3.3-13.5-2.5 2.2-.6 16.1.6 12.3 1.2 14.3 1.5h3.9l3.2.9.7 5.1zm-.4-14.3-.2-2.6 3.3.8.1 1.2.4 5.9-2.9-.9zm1 10.3.6-.1-.6-4.6 2.8.8.3 6.1-.1 2.8-2.3-.7v-4.3zm.3 12.9.2-2.5v-1.6l2.4.7v.2 2l .1 2.1zm2.4-4.9v.3l-2.2-.6v-2.1l2.2.7-.1 1.6h.6z"/><path d="m16.2 282.4.5-1-15.8-7.5-.9-3.7v4.6h.1l.3-.5-.3.5z"/><path d="m330.8 494.1-13.8 13.5.8.8 13.8-13.5 15.2-15.1-.8-.8z"/><path d="m89.7 304.4c4.8 0 7.4-2.6 9-5.2l-3.9-1.9c-.9 1.7-2.8 3.1-5.1 3.1-3.7 0-6.4-2.9-6.4-6.9s2.8-6.9 6.4-6.9c2.3 0 4.2 1.4 5.1 3.1l3.9-1.9c-1.5-2.6-4.2-5.1-9-5.1-6.2 0-11 4.4-11 10.9s4.9 10.8 11 10.8"/><path d="m88.5 315.7-10-5v4l10 4.9 9.9-4.9v-4z"/><path d="m707 122.9v-4.9h5.8c1.8 0 2.7 1.1 2.7 2.5 0 1.5-1 2.5-2.7 2.5zm0-8.7v-4.6h5.6c1.5 0 2.5 1 2.5 2.3 0 1.4-.9 2.3-2.5 2.3zm-4.5 12.5h11.4c4 0 6.1-2.5 6.1-5.7 0-2.6-1.8-4.8-4-5.2 2-.4 3.6-2.2 3.6-4.8 0-2.8-2.1-5.4-6.1-5.4h-11.1z"/><path d="m710.8 138.3-9.9-5v4l9.9 5 10-5v-4z"/><path d="m427.8 494.4 3.5 9.6h-7zm-2.8-3.8-8.1 21h4.9l1.3-3.6h9.4l1.3 3.6h4.9l-8.1-21z"/><path d="m427.8 521.4-10-4.9v3.9l10 5 9.9-5v-3.9z"/></g></svg>