<svg height="284" viewBox="0 0 227 284" width="227" xmlns="http://www.w3.org/2000/svg"><path d="m227 261.28v-238.56c0-22.72-22.7-22.72-22.7-22.72h-181.6c-22.7 0-22.7 22.72-22.7 22.72v238.56c0 22.72 22.7 22.72 22.7 22.72h181.6c22.7 0 22.7-22.72 22.7-22.72" fill="#fff"/><path d="m98.37 102.22h24.86c8.42 0 15.18 4.76 15.18 13.18 0 8.24-6.76 13-15.18 13h-24.86zm29.63-27.45h-61.07v134.46h31.44v-53.52l29.62.13c14.76 0 25.92-5.36 33.07-13.73 6.15-7.18 9.35-16.57 9.35-26.71 0-22.15-15-40.63-42.42-40.63" fill="#034ea2"/></svg>