<svg fill="#d41217" height="29" viewBox="0 0 166.9 38.92" width="124" xmlns="http://www.w3.org/2000/svg"><path d="m24.86 0h1.3v38.92h-1.3z"/><path d="m65.07 0h3.24v38.92h-3.24z"/><path d="m107.24 0h7.78v38.92h-7.78z"/><path d="m153.93 0h12.97v38.92h-12.97z"/><path d="m134.47 15.31c-2.4 0-2.88 2.21-2.88 4.2s.48 4.11 2.88 4.11 2.89-2.23 2.89-4.11-.49-4.2-2.89-4.2m-6.58 4.15c0-4.19 2.37-6.62 6.58-6.62s6.59 2.43 6.59 6.62-2.38 6.62-6.59 6.62-6.58-2.43-6.58-6.62"/><path d="m81.58 13.1h4.94l4.26 9.47.03-.03v-9.44h3.17v12.71h-4.88l-4.31-9.73h-.04v9.73h-3.17z"/><path d="m45 18.49c1.12 0 2.21-.16 2.21-1.46s-1.1-1.46-2.21-1.46h-1.39v2.92zm-1.38 7.32h-3.53v-12.71h5.91c2.14 0 4.92.58 4.92 3.28 0 1.9-1.46 2.9-3.24 3.11v.08c2.26 0 2.67 1.19 2.91 3.15a16 16 0 0 0  .57 3.09h-3.83a21.78 21.78 0 0 1 -.39-2.69c-.14-1.53-.21-2.17-2-2.17h-1.33z"/><path d="m5.58 23.35a1.38 1.38 0 1 0  .24-2.75h-2.29v2.75zm-2.05-5.2h1.78c1 0 1.57-.38 1.57-1.34a1.31 1.31 0 0 0 -1.44-1.23h-1.91zm-3.53 7.66v-12.71h6.09c2.39 0 4.4 1.09 4.4 3.33a3 3 0 0 1 -2.74 2.78 3.18 3.18 0 0 1 3.06 3.11c0 3.7-4.72 3.45-4.84 3.45z"/></svg>