<svg viewBox="0 0 176.02 47.83" xmlns="http://www.w3.org/2000/svg" xmlns:xlink="http://www.w3.org/1999/xlink"><clipPath id="a"><path d="m0 0h176.02v47.83h-176.02z"/></clipPath><g clip-path="url(#a)"><path d="m10.25 8.17h-4v4.28h4a2.1 2.1 0 0 0 2.29-2.11 2.13 2.13 0 0 0 -2.29-2.17m-8.88-4.17h9.54c4.29 0 6.63 2.88 6.63 6.34s-2.34 6.25-6.63 6.25h-4.63v6.46h-4.91z" fill="#034ea2"/></g><path d="m24.68 16.05h5.32l-2.66-7.74zm6.63 4.14h-7.92l-1 2.89h-5.31l7.17-19.08h6.17l7.2 19h-5.34z" fill="#034ea2"/><g clip-path="url(#a)"><path d="m49.24 8.17h-3.88v4.28h3.88a2.15 2.15 0 1 0 0-4.28m-1.37 8.45h-2.51v6.46h-4.91v-19.08h9.55c4.22 0 6.62 2.8 6.62 6.34a5.78 5.78 0 0 1 -3.8 5.71l3.89 7h-5.64z" fill="#034ea2"/></g><path d="m66.95 15.91-1.28 1.6v5.57h-4.92v-19.05h4.92v7.82l5.85-7.82h6.06l-7.4 8.91 7.8 10.14h-6.03z" fill="#034ea2"/><g clip-path="url(#a)"><path d="m89 8.06c-3.17 0-5.2 2.4-5.2 5.51s2 5.51 5.2 5.51 5.17-2.43 5.17-5.51-2-5.51-5.17-5.51m0-4.35c5.82 0 10.16 4.06 10.16 9.86s-4.39 9.85-10.16 9.85-10.2-4.05-10.2-9.85 4.32-9.86 10.2-9.86" fill="#034ea2"/></g><g fill="#034ea2"><path d="m100.43 4.03h5.57l4.68 13.74 4.72-13.74h5.57l-7.2 19.05h-6.17z"/><path d="m128.11 16.05h5.34l-2.69-7.74zm6.62 4.14h-7.91l-1 2.89h-5.34l7.17-19h6.17l7.2 19h-5.34z"/><path d="m148.79 11.57v11.51h-4.92v-19.05h5.06l7.71 10.97v-10.97h4.94v19.05h-4.74z"/><path d="m166.44 4.03h4.91v19.05h-4.91z"/><path d="m167.49 0-1.05 2.05h8.53l1.04-2.05z"/><path d="m129.36 0-1.05 2.05h8.53l1.05-2.05z"/><path d="m14.97 28.78-4.72 13.74-4.68-13.74h-5.57l7.17 19.06h6.17l7.2-19.06z"/></g><g clip-path="url(#a)"><path d="m42 43.75a1.7 1.7 0 0 0 1.84-1.75 1.76 1.76 0 0 0 -1.84-1.79h-5v3.54zm-.17-7.6a1.6 1.6 0 0 0 1.68-1.65 1.58 1.58 0 0 0 -1.68-1.63h-4.83v3.28zm-9.68-7.37h10.75c3.77 0 5.57 2.46 5.57 4.86a4.25 4.25 0 0 1 -3.25 4.36 4.56 4.56 0 0 1 3.62 4.66c0 2.77-1.85 5.16-5.59 5.16h-11.14z" fill="#034ea2"/><path d="m61.75 32.93h-3.88v4.28h3.88a2.15 2.15 0 1 0 0-4.28m-1.37 8.45h-2.51v6.45h-4.87v-19h9.5c4.22 0 6.62 2.8 6.62 6.34a5.77 5.77 0 0 1 -3.8 5.72l3.89 7h-5.63z" fill="#034ea2"/></g><path d="m86.03 28.78v10.97l-7.71-10.97h-5.05v19.06h4.91v-11.52l8.05 11.52h4.74v-19.06z" fill="#034ea2"/><path d="m95.83 28.78v19.06h13.97v-4.15h-9.06v-3.42h8.86v-4.17h-8.86v-3.17h9.06v-4.15z" fill="#034ea2"/><path d="m107.55 24.75h-9.48l1.05 2.05h7.38z" fill="#034ea2"/></svg>