<svg viewBox="0 0 113.39 141.73" xmlns="http://www.w3.org/2000/svg" xmlns:xlink="http://www.w3.org/1999/xlink"><clipPath id="a"><path d="m0 0h113.39v141.73h-113.39z"/></clipPath><g clip-path="url(#a)"><path d="m113.39 130.39v-119c0-11.39-11.34-11.39-11.34-11.39h-90.71c-11.34 0-11.34 11.34-11.34 11.34v119c0 11.34 11.34 11.34 11.34 11.34h90.71c11.34 0 11.34-11.34 11.34-11.34" fill="#1e4491"/><path d="m49.14 51h12.41c4.21 0 7.59 2.38 7.59 6.58s-3.38 6.49-7.59 6.49h-12.41zm14.79-13.7h-30.5v67.11h15.71v-26.7l14.79.06c7.38 0 12.95-2.67 16.52-6.85a20.26 20.26 0 0 0 4.67-13.33c0-11.05-7.49-20.28-21.19-20.28" fill="#fff"/></g></svg>