<svg viewBox="0 0 511.61 218.9" xmlns="http://www.w3.org/2000/svg"><g fill="#0e4194"><path d="m .11 128.59a17.31 17.31 0 0 1 -.11-2.2v-6.27c0-1.43.11-2.2.33-2.2 3.08 0 6.16-2.2 6.16-8.36v-84.15a2 2 0 0 1 2.2-2.2h6.82a2 2 0 0 1 2.2 2.2v85.59c0 12.65-8 17.6-17.38 17.6z"/><path d="m26.31 107.47a2 2 0 0 1 -2.2-2.2v-79.86a2 2 0 0 1 2.2-2.2h25.74a2 2 0 0 1 2.2 2.2v6.27a2 2 0 0 1 -2.2 2.2h-16.72v25.74h16a2 2 0 0 1 2.2 2.2v6.27a2 2 0 0 1 -2.2 2.2h-16v26.51h16.72a2 2 0 0 1 2.2 2.2v6.27a2 2 0 0 1 -2.2 2.2z"/><path d="m62.17 107.47a2 2 0 0 1 -2.2-2.2v-79.86a2 2 0 0 1 2.2-2.2h16.72c8.47 0 15.29 4.95 15.29 17.6v49.06c0 12.65-6.82 17.6-15.29 17.6zm20.83-65.23c0-6.16-2-8.36-6.16-8.36h-5.65v62.92h5.61c4.2 0 6.2-2.2 6.2-8.36z"/><path d="m128.17 107.47a2.49 2.49 0 0 1 -2.53-1.87l-14.3-54.34.22 54a2 2 0 0 1 -2.2 2.2h-6.82a2 2 0 0 1 -2.2-2.2v-79.85a2 2 0 0 1 2.2-2.2h9.9a2.49 2.49 0 0 1 2.56 1.87l14.85 55.33-.22-55a2 2 0 0 1 2.2-2.2h6.82a2 2 0 0 1 2.2 2.2v79.86a2 2 0 0 1 -2.2 2.2z"/><path d="m147 39.38c0-12.43 7.7-17.6 18-17.6s16.72 5.28 16.72 17.6v51.92c0 12.65-8 17.6-17.27 17.6-9.45 0-17.45-5.17-17.45-17.6zm23.54 1.43c0-6.16-3.08-8.36-6.16-8.36s-6.16 2.2-6.16 8.36v49.06c0 6.16 3.08 8.36 6.16 8.36s6.16-2.2 6.16-8.36z"/><path d="m190.1 107.47a2 2 0 0 1 -2.2-2.2v-79.86a2 2 0 0 1 2.2-2.2h16.72c8.47 0 15.29 4.95 15.29 17.6v49.06c0 12.65-6.82 17.6-15.29 17.6zm20.79-65.23c0-6.16-2-8.36-6.16-8.36h-5.61v62.92h5.61c4.18 0 6.16-2.2 6.16-8.36z"/><path d="m251.66 25.41a2 2 0 0 1 2.2-2.2h6.82a2 2 0 0 1 2.2 2.2v65.89c0 12.65-8 17.6-17.27 17.6-9.46 0-17.49-5.17-17.49-17.6v-65.89a2 2 0 0 1 2.2-2.2h6.82a2 2 0 0 1 2.2 2.2v64.46c0 6.16 3.08 8.36 6.16 8.36s6.16-2.2 6.16-8.36z"/><path d="m303.26 91.3c0 12.21-7.15 17.6-17.38 17.6s-17.38-5.61-17.38-17.6v-9.79a2 2 0 0 1 2.2-2.2h6.82a2 2 0 0 1 2.2 2.2v8.36c0 6.16 3.08 8.36 6.16 8.36s6.12-2.23 6.12-8.36v-6.93c0-9.35-23.54-17-23.54-33v-10.56c0-12.43 8-17.6 17.38-17.6 10.78 0 17.38 4.95 17.38 17.6v11a2 2 0 0 1 -2.2 2.2h-6.82a2 2 0 0 1 -2.2-2.2v-9.57c0-6.16-3.08-8.36-6.16-8.36s-6.16 2.2-6.16 8.36v7c0 12.76 23.54 17.05 23.54 32.78zm-20.35-75.79a2.77 2.77 0 0 1 -2.64-1.51l-6.38-11.36c-.77-1.54-.11-2.64 1.54-2.64h3.85a2.77 2.77 0 0 1 2.64 1.54l4.08 6.93 3.63-6.93a2.52 2.52 0 0 1 2.52-1.54h4.18c1.76 0 2.42 1.1 1.54 2.64l-5.94 11.36a2.77 2.77 0 0 1 -2.64 1.54z"/><path d="m311.24 107.47a2 2 0 0 1 -2.2-2.2v-79.86a2 2 0 0 1 2.2-2.2h25.76a2 2 0 0 1 2.2 2.2v6.27a2 2 0 0 1 -2.2 2.2h-16.74v25.74h15.95a2 2 0 0 1 2.2 2.2v6.27a2 2 0 0 1 -2.2 2.2h-15.95v26.51h16.74a2 2 0 0 1 2.2 2.2v6.27a2 2 0 0 1 -2.2 2.2z"/><path d="m32.56 217.47a2 2 0 0 1 -2.31-2.09l-2-16.61h-12.41l-2 16.61a2 2 0 0 1 -2.31 2.09h-6.8a1.82 1.82 0 0 1 -2-2.31l10.8-79.86a2 2 0 0 1 2.31-2.09h12.32a2.17 2.17 0 0 1 2.42 2.09l10.78 79.86a1.82 1.82 0 0 1 -2 2.31zm-10.56-71.39-4.95 42h9.95z"/><path d="m93.61 201.3c0 12.21-7.15 17.6-17.38 17.6s-17.38-5.61-17.38-17.6v-9.79a2 2 0 0 1 2.2-2.2h6.82a2 2 0 0 1 2.2 2.2v8.36c0 6.16 3.08 8.36 6.16 8.36s6.16-2.2 6.16-8.36v-6.93c0-9.35-23.54-17.05-23.54-33v-10.56c0-12.43 8-17.6 17.38-17.6 10.78 0 17.38 4.95 17.38 17.6v11a2 2 0 0 1 -2.2 2.2h-6.82a2 2 0 0 1 -2.2-2.2v-9.57c0-6.16-3.08-8.36-6.16-8.36s-6.16 2.2-6.16 8.36v7c0 12.76 23.54 17.05 23.54 32.78z"/><path d="m126.55 217.47a2.41 2.41 0 0 1 -2.55-1.87l-9.13-32.78h-4.27v32.45a2 2 0 0 1 -2.2 2.2h-6.82a2 2 0 0 1 -2.2-2.2v-79.86a2 2 0 0 1 2.2-2.2h16.5c8.47 0 15.51 4.95 15.51 17.6v13.53c0 8.47-2 13.42-8.14 16.06l9.68 34.65c.44 1.43-.33 2.42-1.87 2.42zm-4.18-65.23c0-6.16-2-8.36-6.16-8.36h-5.61v28.27h5.61c4.18 0 6.16-2.2 6.16-8.36z"/><path d="m139 149.38c0-12.43 7.7-17.6 18-17.6s16.72 5.28 16.72 17.6v51.92c0 12.65-8 17.6-17.27 17.6-9.46 0-17.49-5.17-17.49-17.6zm23.54 1.43c0-6.16-3.08-8.36-6.16-8.36s-6.16 2.2-6.16 8.36v49.06c0 6.16 3.08 8.36 6.16 8.36s6.16-2.2 6.16-8.36z"/><path d="m180.64 217.47a2 2 0 0 1 -2.2-2.2v-7.15a10.85 10.85 0 0 1  .33-2.64l17.23-61.6h-14.37a2 2 0 0 1 -2.2-2.2v-6.27a2 2 0 0 1 2.2-2.2h25a2 2 0 0 1 2.2 2.2v2.31a10.85 10.85 0 0 1 -.33 2.64l-18.5 66.44h16.6a2 2 0 0 1 2.2 2.2v6.27a2 2 0 0 1 -2.2 2.2z"/><path d="m237.42 135.41a2 2 0 0 1 2.2-2.2h6.82a2 2 0 0 1 2.2 2.2v65.89c0 12.65-8 17.6-17.27 17.6-9.46 0-17.49-5.17-17.49-17.6v-65.89a2 2 0 0 1 2.2-2.2h6.82a2 2 0 0 1 2.2 2.2v64.46c0 6.16 3.08 8.36 6.16 8.36s6.16-2.2 6.16-8.36z"/><path d="m301 217.47a2 2 0 0 1 -2.2-2.2l.22-60.83-11.11 61.05a2.12 2.12 0 0 1 -2.31 2h-6.2a2.12 2.12 0 0 1 -2.31-2l-11.09-60.94.22 60.72a2 2 0 0 1 -2.2 2.2h-6.82a2 2 0 0 1 -2.2-2.2v-79.86a2 2 0 0 1 2.2-2.2h13.8a2.16 2.16 0 0 1 2.42 2l9 56.76 9-56.76a2.16 2.16 0 0 1 2.42-2h13.86a2 2 0 0 1 2.2 2.2v79.86a2 2 0 0 1 -2.2 2.2z"/><path d="m318.71 217.47a2 2 0 0 1 -2.2-2.2v-79.86a2 2 0 0 1 2.2-2.2h6.82a2 2 0 0 1 2.2 2.2v79.86a2 2 0 0 1 -2.2 2.2z"/><path d="m345.09 217.47a2 2 0 0 1 -2.2-2.2v-71.39h-8.25a2 2 0 0 1 -2.2-2.2v-6.27a2 2 0 0 1 2.2-2.2h27.72a2 2 0 0 1 2.2 2.2v6.27a2 2 0 0 1 -2.2 2.2h-8.25v71.39a2 2 0 0 1 -2.2 2.2z"/><path d="m371.55 217.47a2 2 0 0 1 -2.2-2.2v-79.86a2 2 0 0 1 2.2-2.2h25.74a2 2 0 0 1 2.2 2.2v6.27a2 2 0 0 1 -2.2 2.2h-16.72v25.74h15.95a2 2 0 0 1 2.2 2.2v6.27a2 2 0 0 1 -2.2 2.2h-15.95v26.51h16.72a2 2 0 0 1 2.2 2.2v6.27a2 2 0 0 1 -2.2 2.2z"/><path d="m407.41 217.47a2 2 0 0 1 -2.2-2.2v-79.86a2 2 0 0 1 2.2-2.2h6.82a2 2 0 0 1 2.2 2.2v71.39h11.22a2 2 0 0 1 2.2 2.2v6.27a2 2 0 0 1 -2.2 2.2z"/><path d="m462.35 217.47a2.49 2.49 0 0 1 -2.53-1.87l-14.3-54.34.22 54a2 2 0 0 1 -2.2 2.2h-6.82a2 2 0 0 1 -2.2-2.2v-79.85a2 2 0 0 1 2.2-2.2h9.9a2.49 2.49 0 0 1 2.53 1.87l14.85 55.33-.22-55a2 2 0 0 1 2.2-2.2h6.82a2 2 0 0 1 2.2 2.2v79.86a2 2 0 0 1 -2.2 2.2z"/><path d="m483.67 217.47a2 2 0 0 1 -2.2-2.2v-79.86a2 2 0 0 1 2.2-2.2h25.74a2 2 0 0 1 2.2 2.2v6.27a2 2 0 0 1 -2.2 2.2h-16.72v25.74h15.95a2 2 0 0 1 2.2 2.2v6.27a2 2 0 0 1 -2.2 2.2h-15.95v26.51h16.72a2 2 0 0 1 2.2 2.2v6.27a2 2 0 0 1 -2.2 2.2zm10.12-92a2.77 2.77 0 0 1 -2.64-1.54l-6.38-11.33c-.77-1.54-.11-2.64 1.54-2.64h3.85a2.77 2.77 0 0 1 2.64 1.54l4.07 6.93 3.63-6.93a2.52 2.52 0 0 1 2.5-1.5h4.18c1.76 0 2.42 1.1 1.54 2.64l-5.91 11.36a2.77 2.77 0 0 1 -2.64 1.54z"/></g></svg>