<svg width="123" height="99" viewBox="0 0 123 99" fill="none" xmlns="http://www.w3.org/2000/svg">
<path d="M119.022 98.0119H3.86141C2.8373 98.0119 1.85513 97.6051 1.13098 96.8809C0.406825 96.1568 0 95.1746 0 94.1505C41.7458 89.2988 82.7071 89.2988 122.884 94.1505C122.884 95.1746 122.477 96.1568 121.753 96.8809C121.029 97.6051 120.047 98.0119 119.022 98.0119Z" fill="#6D7174"/>
<path fill-rule="evenodd" clip-rule="evenodd" d="M122.884 94.3772L0 94.15L14.2418 70.1866L14.3099 70.073V17.2602C14.3099 16.6192 14.4361 15.9844 14.6814 15.3921C14.9267 14.7999 15.2862 14.2618 15.7395 13.8085C16.1928 13.3552 16.7309 12.9957 17.3232 12.7504C17.9154 12.5051 18.5502 12.3789 19.1912 12.3789H103.011C103.652 12.3789 104.287 12.5051 104.879 12.7504C105.471 12.9957 106.01 13.3552 106.463 13.8085C106.916 14.2618 107.276 14.7999 107.521 15.3921C107.766 15.9844 107.893 16.6192 107.892 17.2602V70.4364L122.884 94.3772ZM19.0802 15.7852C18.6587 15.7856 18.2545 15.9533 17.9565 16.2514C17.6584 16.5495 17.4907 16.9536 17.4902 17.3751V65.5293C17.4907 65.9508 17.6584 66.3549 17.9565 66.653C18.2545 66.9511 18.6587 67.1188 19.0802 67.1193H103.804C104.226 67.1187 104.63 66.9511 104.928 66.653C105.226 66.3549 105.394 65.9508 105.394 65.5293V17.3751C105.394 16.9536 105.226 16.5495 104.928 16.2514C104.63 15.9533 104.226 15.7856 103.804 15.7852H19.0802ZM19.0676 73.5884C19.1773 73.5182 19.3048 73.4807 19.4351 73.4805H102.561C102.688 73.4801 102.812 73.5152 102.92 73.5817C103.027 73.6483 103.114 73.7437 103.171 73.8571L107.94 83.3971C107.992 83.501 108.017 83.6164 108.012 83.7325C108.007 83.8485 107.972 83.9613 107.911 84.0601C107.85 84.1589 107.764 84.2405 107.663 84.297C107.562 84.3536 107.447 84.3833 107.331 84.3833H15.0466C14.9323 84.3833 14.8199 84.3545 14.7196 84.2997C14.6194 84.2449 14.5345 84.1657 14.4729 84.0695C14.4112 83.9732 14.3748 83.863 14.3669 83.749C14.359 83.635 14.3799 83.5209 14.4276 83.4171L18.816 73.8771C18.8706 73.7589 18.9579 73.6587 19.0676 73.5884Z" fill="#6D7174"/>
<path opacity="0.1" d="M52.0302 86.2012C51.8804 86.2014 51.7348 86.2508 51.6159 86.3419C51.497 86.4331 51.4114 86.5608 51.3723 86.7054L50.2715 90.7939C50.2443 90.8949 50.2407 91.0008 50.261 91.1034C50.2813 91.206 50.3249 91.3026 50.3886 91.3856C50.4522 91.4687 50.534 91.5359 50.6278 91.5822C50.7216 91.6285 50.8248 91.6526 50.9294 91.6526H71.8637C71.9723 91.6526 72.0793 91.6266 72.1759 91.5768C72.2725 91.527 72.3557 91.4549 72.4187 91.3664C72.4817 91.2779 72.5226 91.1756 72.538 91.0681C72.5535 90.9605 72.5429 90.8509 72.5074 90.7482L71.0922 86.6597C71.0458 86.5258 70.9588 86.4097 70.8434 86.3276C70.728 86.2454 70.5899 86.2012 70.4482 86.2012H52.0302Z" fill="#C8D0D0"/>
<path opacity="0.1" d="M107.893 69.2773V70.1858H14.2422L14.3127 70.0724V69.2773H107.893Z" fill="#C8D0D0"/>
<path d="M94.1805 50.7865H28.7028C28.3813 50.7861 28.0731 50.6582 27.8458 50.4309C27.6185 50.2036 27.4906 49.8954 27.4902 49.5739V33.3317C27.4906 33.0102 27.6185 32.702 27.8458 32.4747C28.0731 32.2474 28.3813 32.1195 28.7028 32.1191H94.1805C94.502 32.1195 94.8102 32.2474 95.0375 32.4747C95.2648 32.702 95.3927 33.0102 95.3931 33.3317V49.5739C95.3927 49.8954 95.2648 50.2036 95.0375 50.4309C94.8102 50.6582 94.502 50.7861 94.1805 50.7865ZM28.7028 32.6042C28.5099 32.6044 28.325 32.6811 28.1886 32.8175C28.0522 32.9539 27.9755 33.1388 27.9753 33.3317V49.5739C27.9755 49.7668 28.0522 49.9517 28.1886 50.0881C28.325 50.2245 28.5099 50.3012 28.7028 50.3015H94.1805C94.3734 50.3012 94.5583 50.2245 94.6947 50.0881C94.8311 49.9517 94.9078 49.7668 94.908 49.5739V33.3317C94.9078 33.1388 94.8311 32.9539 94.6947 32.8175C94.5583 32.6811 94.3734 32.6044 94.1805 32.6042L28.7028 32.6042Z" fill="#6D7174"/>
<path d="M38.8768 45.7711C41.6047 45.7711 43.8161 43.5598 43.8161 40.8319C43.8161 38.104 41.6047 35.8926 38.8768 35.8926C36.1489 35.8926 33.9375 38.104 33.9375 40.8319C33.9375 43.5598 36.1489 45.7711 38.8768 45.7711Z" fill="#6D7174"/>
<path d="M50.2854 37.5371C50.1772 37.5369 50.07 37.5581 49.97 37.5994C49.87 37.6407 49.7791 37.7013 49.7025 37.7778C49.6259 37.8542 49.5652 37.945 49.5237 38.045C49.4823 38.145 49.4609 38.2521 49.4609 38.3603C49.4609 38.4685 49.4823 38.5757 49.5237 38.6757C49.5652 38.7756 49.6259 38.8664 49.7025 38.9429C49.7791 39.0193 49.87 39.08 49.97 39.1212C50.07 39.1625 50.1772 39.1837 50.2854 39.1835H89.0941C89.3124 39.1835 89.5218 39.0968 89.6762 38.9424C89.8306 38.788 89.9173 38.5787 89.9173 38.3603C89.9173 38.142 89.8306 37.9326 89.6762 37.7782C89.5218 37.6238 89.3124 37.5371 89.0941 37.5371H50.2854Z" fill="#6D7174"/>
<path d="M50.2841 42.4785C50.0658 42.4785 49.8564 42.5652 49.702 42.7196C49.5477 42.874 49.4609 43.0834 49.4609 43.3017C49.4609 43.5201 49.5477 43.7294 49.702 43.8838C49.8564 44.0382 50.0658 44.1249 50.2841 44.1249H66.9836C67.2019 44.1249 67.4113 44.0382 67.5657 43.8838C67.7201 43.7294 67.8068 43.5201 67.8068 43.3017C67.8068 43.0834 67.7201 42.874 67.5657 42.7196C67.4113 42.5652 67.2019 42.4785 66.9836 42.4785H50.2841Z" fill="#6D7174"/>
<path d="M105.279 31.7999C114.06 31.7999 121.179 24.6812 121.179 15.8999C121.179 7.11865 114.06 0 105.279 0C96.4976 0 89.3789 7.11865 89.3789 15.8999C89.3789 24.6812 96.4976 31.7999 105.279 31.7999Z" fill="#E4002B"/>
<path d="M94.8735 14.7605C94.7488 14.7999 94.6161 14.8055 94.4887 14.7766C94.3613 14.7478 94.2436 14.6855 94.1476 14.5961C94.0516 14.5067 93.9806 14.3934 93.9418 14.2675C93.903 14.1416 93.8977 14.0076 93.9265 13.879C94.3589 12.063 96.0031 7.62198 101.993 5.75408C104.587 4.94497 107.076 4.93116 109.385 5.71272C111.285 6.35303 112.547 7.35503 113.15 7.83933C113.303 7.96177 113.402 8.14067 113.425 8.33668C113.448 8.53269 113.392 8.72976 113.271 8.88452C113.269 8.88643 113.268 8.88834 113.266 8.89025C113.142 9.04548 112.962 9.1451 112.765 9.16763C112.569 9.19017 112.371 9.13381 112.215 9.0107C111.122 8.14117 107.805 5.49956 102.428 7.17624C97.1781 8.81342 95.752 12.6429 95.3821 14.2096C95.3541 14.339 95.292 14.4585 95.2025 14.5554C95.113 14.6523 94.9994 14.7232 94.8735 14.7605Z" fill="#C8D0D0"/>
<path d="M111.173 24.816C111.114 24.8351 111.052 24.8467 110.99 24.8503C106.323 25.1011 103.353 21.2332 103.231 21.072L103.209 21.0348C103.134 20.9196 101.338 18.1926 102.129 16.0269C102.492 15.0368 103.295 14.3418 104.524 13.9633C105.666 13.6114 106.601 13.7155 107.396 14.2822C108.048 14.7439 108.467 15.4325 108.872 16.0974C109.715 17.478 110.231 18.1804 111.833 17.7752C112.536 17.5971 112.865 17.0485 113.015 16.6212C113.419 15.4584 113.061 13.8732 112.114 12.6739C110.89 11.1179 107.465 8.53357 103.24 9.83562C101.435 10.3916 99.9587 11.4873 98.9698 12.9961C98.1506 14.2482 97.6743 15.8033 97.6639 17.2535C97.6474 19.9538 99.8659 23.5063 99.887 23.5385C99.9381 23.62 99.9725 23.7107 99.9885 23.8055C100.004 23.9003 100.001 23.9973 99.9798 24.091C99.9582 24.1847 99.9182 24.2732 99.8623 24.3514C99.8063 24.4297 99.7355 24.4962 99.6538 24.5472C99.6515 24.5486 99.6493 24.55 99.647 24.5514C99.4796 24.6555 99.2778 24.6898 99.0853 24.6468C98.8928 24.6038 98.7249 24.487 98.618 24.3217C98.5179 24.1592 96.149 20.3714 96.1681 17.2505C96.1947 13.8678 98.2553 9.83066 102.804 8.42893C104.907 7.78102 107.116 7.88992 109.196 8.74037C110.807 9.40356 112.299 10.5014 113.285 11.755C114.545 13.3551 114.988 15.4497 114.415 17.0844C114.033 18.1743 113.241 18.9263 112.19 19.1951C109.449 19.8907 108.375 18.1394 107.592 16.8619C106.787 15.5523 106.342 14.9382 104.953 15.3665C104.189 15.6017 103.719 15.9786 103.521 16.52C103.252 17.2601 103.507 18.2088 103.769 18.8739C103.771 18.8809 103.774 18.8878 103.777 18.8947C104.112 19.7401 104.635 20.4986 105.306 21.1133C106.381 22.1039 108.378 23.5162 110.922 23.38C111.117 23.3679 111.308 23.4335 111.454 23.5621C111.6 23.6908 111.689 23.8721 111.701 24.0662C111.701 24.0685 111.701 24.0709 111.702 24.0732C111.708 24.2377 111.659 24.3997 111.563 24.5339C111.468 24.6682 111.331 24.7673 111.173 24.816Z" fill="#C8D0D0"/>
<path d="M105.502 26.2708C105.405 26.3009 105.302 26.3109 105.201 26.3004C105.099 26.2898 105.001 26.2589 104.911 26.2094C102.603 24.9087 100.982 23.1592 99.8145 20.7071L99.8098 20.6919C99.0742 19.057 98.6313 16.5591 99.6081 14.4479C100.329 12.8902 101.683 11.7952 103.624 11.1988C105.921 10.4934 108.059 11.0128 109.814 12.6935C110.612 13.4692 111.261 14.3832 111.73 15.3907C111.804 15.572 111.804 15.7751 111.729 15.9563C111.654 16.1374 111.511 16.282 111.329 16.3587C111.148 16.4354 110.944 16.4381 110.761 16.3662C110.577 16.2943 110.43 16.1536 110.35 15.9744C109.954 15.1336 109.407 14.3717 108.736 13.7261C107.383 12.4464 105.81 12.068 104.056 12.6068C102.541 13.0723 101.497 13.8954 100.962 15.0535C100.192 16.7203 100.589 18.8017 101.164 20.0826C102.193 22.2513 103.621 23.7897 105.653 24.9325C105.737 24.9795 105.811 25.0426 105.87 25.118C105.93 25.1935 105.974 25.2798 106 25.3721C106.025 25.4644 106.033 25.5609 106.021 25.656C106.01 25.7511 105.979 25.8431 105.932 25.9265C105.93 25.9298 105.928 25.9331 105.926 25.9364C105.831 26.0962 105.68 26.2154 105.502 26.2708Z" fill="#C8D0D0"/>
</svg>
