<svg width="174" height="87" viewBox="0 0 174 87" fill="none" xmlns="http://www.w3.org/2000/svg">
<path d="M119.022 86.0119H3.86141C2.8373 86.0119 1.85513 85.6051 1.13098 84.8809C0.406825 84.1568 0 83.1746 0 82.1505C41.7458 77.2988 82.7071 77.2988 122.884 82.1505C122.884 83.1746 122.477 84.1568 121.753 84.8809C121.029 85.6051 120.047 86.0119 119.022 86.0119Z" fill="#6D7174"/>
<path fill-rule="evenodd" clip-rule="evenodd" d="M122.884 82.3772L0 82.15L14.2418 58.1866L14.3099 58.073V5.26019C14.3099 4.61915 14.4361 3.98439 14.6814 3.39214C14.9267 2.79989 15.2862 2.26176 15.7395 1.80848C16.1928 1.3552 16.7309 0.995651 17.3232 0.750362C17.9154 0.505074 18.5502 0.378853 19.1912 0.378906H103.011C103.652 0.378853 104.287 0.505074 104.879 0.750362C105.471 0.995651 106.01 1.3552 106.463 1.80848C106.916 2.26176 107.276 2.79989 107.521 3.39214C107.766 3.98439 107.893 4.61915 107.892 5.26019V58.4364L122.884 82.3772ZM19.0802 3.78516C18.6587 3.78563 18.2545 3.9533 17.9565 4.25138C17.6584 4.54946 17.4907 4.9536 17.4902 5.37515V53.5293C17.4907 53.9508 17.6584 54.3549 17.9565 54.653C18.2545 54.9511 18.6587 55.1188 19.0802 55.1193H103.804C104.226 55.1187 104.63 54.9511 104.928 54.653C105.226 54.3549 105.394 53.9508 105.394 53.5293V5.37515C105.394 4.95361 105.226 4.54948 104.928 4.2514C104.63 3.95332 104.226 3.78565 103.804 3.78516H19.0802ZM19.0676 61.5884C19.1773 61.5182 19.3048 61.4807 19.4351 61.4805H102.561C102.688 61.4801 102.812 61.5152 102.92 61.5817C103.027 61.6483 103.114 61.7437 103.171 61.8571L107.94 71.3971C107.992 71.501 108.017 71.6164 108.012 71.7325C108.007 71.8485 107.972 71.9613 107.911 72.0601C107.85 72.1589 107.764 72.2405 107.663 72.297C107.562 72.3536 107.447 72.3833 107.331 72.3833H15.0466C14.9323 72.3833 14.8199 72.3545 14.7196 72.2997C14.6194 72.2449 14.5345 72.1657 14.4729 72.0695C14.4112 71.9732 14.3748 71.863 14.3669 71.749C14.359 71.635 14.3799 71.5209 14.4276 71.4171L18.816 61.8771C18.8706 61.7589 18.9579 61.6587 19.0676 61.5884Z" fill="#6D7174"/>
<path opacity="0.1" d="M52.0302 74.2012C51.8804 74.2014 51.7348 74.2508 51.6159 74.3419C51.497 74.4331 51.4114 74.5608 51.3723 74.7054L50.2715 78.7939C50.2443 78.8949 50.2407 79.0008 50.261 79.1034C50.2813 79.206 50.3249 79.3026 50.3886 79.3856C50.4522 79.4687 50.534 79.5359 50.6278 79.5822C50.7216 79.6285 50.8248 79.6526 50.9294 79.6526H71.8637C71.9723 79.6526 72.0793 79.6266 72.1759 79.5768C72.2725 79.527 72.3557 79.4549 72.4187 79.3664C72.4817 79.2779 72.5226 79.1756 72.538 79.0681C72.5535 78.9605 72.5429 78.8509 72.5074 78.7482L71.0922 74.6597C71.0458 74.5258 70.9588 74.4097 70.8434 74.3276C70.728 74.2454 70.5899 74.2012 70.4482 74.2012H52.0302Z" fill="#C8D0D0"/>
<path opacity="0.1" d="M107.893 57.2773V58.1858H14.2422L14.3127 58.0724V57.2773H107.893Z" fill="#C8D0D0"/>
<path d="M94.1805 38.7865H28.7028C28.3813 38.7861 28.0731 38.6582 27.8458 38.4309C27.6185 38.2036 27.4906 37.8954 27.4902 37.5739V21.3317C27.4906 21.0102 27.6185 20.702 27.8458 20.4747C28.0731 20.2474 28.3813 20.1195 28.7028 20.1191H94.1805C94.502 20.1195 94.8102 20.2474 95.0375 20.4747C95.2648 20.702 95.3927 21.0102 95.3931 21.3317V37.5739C95.3927 37.8954 95.2648 38.2036 95.0375 38.4309C94.8102 38.6582 94.502 38.7861 94.1805 38.7865ZM28.7028 20.6042C28.5099 20.6044 28.325 20.6811 28.1886 20.8175C28.0522 20.9539 27.9755 21.1388 27.9753 21.3317V37.5739C27.9755 37.7668 28.0522 37.9517 28.1886 38.0881C28.325 38.2245 28.5099 38.3012 28.7028 38.3015H94.1805C94.3734 38.3012 94.5583 38.2245 94.6947 38.0881C94.8311 37.9517 94.9078 37.7668 94.908 37.5739V21.3317C94.9078 21.1388 94.8311 20.9539 94.6947 20.8175C94.5583 20.6811 94.3734 20.6044 94.1805 20.6042L28.7028 20.6042Z" fill="#6D7174"/>
<path d="M38.8768 33.7711C41.6047 33.7711 43.8161 31.5598 43.8161 28.8319C43.8161 26.104 41.6047 23.8926 38.8768 23.8926C36.1489 23.8926 33.9375 26.104 33.9375 28.8319C33.9375 31.5598 36.1489 33.7711 38.8768 33.7711Z" fill="#6D7174"/>
<path d="M50.2854 25.5371C50.1772 25.5369 50.07 25.5581 49.97 25.5994C49.87 25.6407 49.7791 25.7013 49.7025 25.7778C49.6259 25.8542 49.5652 25.945 49.5237 26.045C49.4823 26.145 49.4609 26.2521 49.4609 26.3603C49.4609 26.4685 49.4823 26.5757 49.5237 26.6757C49.5652 26.7756 49.6259 26.8664 49.7025 26.9429C49.7791 27.0193 49.87 27.08 49.97 27.1212C50.07 27.1625 50.1772 27.1837 50.2854 27.1835H89.0941C89.3124 27.1835 89.5218 27.0968 89.6762 26.9424C89.8306 26.788 89.9173 26.5787 89.9173 26.3603C89.9173 26.142 89.8306 25.9326 89.6762 25.7782C89.5218 25.6238 89.3124 25.5371 89.0941 25.5371H50.2854Z" fill="#6D7174"/>
<path d="M50.2841 30.4785C50.0658 30.4785 49.8564 30.5652 49.702 30.7196C49.5477 30.874 49.4609 31.0834 49.4609 31.3017C49.4609 31.5201 49.5477 31.7294 49.702 31.8838C49.8564 32.0382 50.0658 32.1249 50.2841 32.1249H66.9836C67.2019 32.1249 67.4113 32.0382 67.5657 31.8838C67.7201 31.7294 67.8068 31.5201 67.8068 31.3017C67.8068 31.0834 67.7201 30.874 67.5657 30.7196C67.4113 30.5652 67.2019 30.4785 66.9836 30.4785H50.2841Z" fill="#6D7174"/>
<path d="M144.989 74.442H146.213C150.626 74.442 154.202 70.8657 154.202 66.454V66.0527H137V66.454C137 70.8657 140.578 74.442 144.989 74.442Z" fill="#E4002B"/>
<path d="M154.202 62.6133H137V66.0529H154.202V62.6133Z" fill="#C8D0D0"/>
<path d="M137 40.3903V62.6127H154.202V40.3903C154.202 39.4287 153.436 38.6509 152.482 38.623V38.7044H138.722V38.623C137.767 38.6509 137 39.4287 137 40.3903Z" fill="#E4002B"/>
<path d="M163.967 23L156.842 38.6558L161.705 40.8681C165.721 42.6956 170.455 40.9211 172.284 36.906L172.79 35.7915C174.617 31.7764 172.844 27.0398 168.829 25.2122L163.967 23Z" fill="#E4002B"/>
<path fill-rule="evenodd" clip-rule="evenodd" d="M138.723 38.7057H152.483V38.6243V29.5039H138.723V38.6244V38.7057ZM149.844 33.4499H149.845V36.278H147.016V36.2773H147.016V33.4492H149.844V33.4499ZM141.357 36.2773H141.358V36.278H144.189V33.4499H144.188V33.4492H141.357V36.2773Z" fill="#C8D0D0"/>
</svg>
