<?xml version="1.0" encoding="utf-8"?>
<!-- Generator: Adobe Illustrator 15.1.0, SVG Export Plug-In . SVG Version: 6.00 Build 0)  -->
<!DOCTYPE svg PUBLIC "-//W3C//DTD SVG 1.1//EN" "http://www.w3.org/Graphics/SVG/1.1/DTD/svg11.dtd">
<svg version="1.1" id="Vrstva_1" xmlns="http://www.w3.org/2000/svg" xmlns:xlink="http://www.w3.org/1999/xlink" x="0px" y="0px"
	 width="283px" height="97px" viewBox="0 0 283 97" enable-background="new 0 0 283 97" xml:space="preserve">
<polygon fill="#E4002B" points="0,97.221 97.218,97.221 97.218,0.001 0,0.001 "/>
<polygon fill="#E4002B" points="101.167,0 101.167,97.221 199.533,97.221 199.533,64.813 246.955,64.813 246.955,32.407 283,32.407 
	283,0 "/>
<path fill="#FFFFFF" d="M45.677,14.873H15.625v10.956h30.05v55.183h11.301V42.869c0-3.876,3.363-7.019,7.512-7.019h16.853V25.828
	H45.677V14.873L45.677,14.873z"/>
<polygon fill="#FFFFFF" points="228.407,8.706 230.555,5.718 228.314,5.718 227.072,7.326 225.826,5.718 223.498,5.718 
	225.646,8.706 "/>
<polygon fill="#FFFFFF" points="195.18,22.932 187.943,22.932 187.943,18.5 194.501,18.5 194.501,16.146 187.943,16.146 
	187.943,11.804 194.954,11.804 194.954,9.453 185.229,9.453 185.229,25.284 195.18,25.284 "/>
<polygon fill="#FFFFFF" points="116.788,21.529 116.696,21.529 112.942,9.453 110.116,9.453 115.227,25.284 118.032,25.284 
	123.144,9.453 120.565,9.453 "/>
<polygon fill="#FFFFFF" points="193.121,5.718 190.16,5.718 188.26,8.706 190.363,8.706 "/>
<polygon fill="#FFFFFF" points="271.107,5.718 268.146,5.718 266.246,8.706 268.35,8.706 "/>
<path fill="#FFFFFF" d="M142.932,25.284h3.621c2.284,0,3.846-1.561,3.846-3.844v-1.447c0-2.285-1.561-3.846-3.846-3.846h-3.166
	c-0.816,0-1.357-0.544-1.357-1.357v-1.629c0-0.813,0.541-1.357,1.357-1.357h2.826c0.814,0,1.355,0.544,1.355,1.357v1.108h2.715
	v-0.972c0-2.285-1.561-3.845-3.844-3.845h-3.278c-2.286,0-3.846,1.56-3.846,3.845v1.355c0,2.285,1.561,3.847,3.846,3.847h3.165
	c0.814,0,1.355,0.542,1.355,1.356v1.719c0,0.813-0.541,1.357-1.355,1.357h-3.165c-0.815,0-1.359-0.544-1.359-1.357v-1.108h-2.713
	v0.974C139.088,23.724,140.648,25.284,142.932,25.284L142.932,25.284z"/>
<polygon fill="#FFFFFF" points="129.635,25.284 132.349,25.284 132.349,18.566 137.731,9.453 134.905,9.453 131.217,15.942 
	131.127,15.942 127.622,9.453 124.5,9.453 129.635,18.566 "/>
<polygon fill="#FFFFFF" points="239.057,18.5 245.617,18.5 245.617,16.146 239.057,16.146 239.057,11.804 246.07,11.804 
	246.07,9.453 236.344,9.453 236.344,25.284 246.297,25.284 246.297,22.932 239.057,22.932 "/>
<polygon fill="#FFFFFF" points="265.975,25.284 268.688,25.284 268.688,9.453 265.975,9.453 "/>
<polygon fill="#FFFFFF" points="172.855,20.647 174.598,18.408 179.055,25.284 182.334,25.284 176.384,16.125 181.586,9.453 
	178.623,9.453 172.971,16.689 172.855,16.689 172.855,9.453 170.145,9.453 170.145,25.284 172.855,25.284 "/>
<polygon fill="#FFFFFF" points="258.962,20.286 258.873,20.286 252.629,9.453 249.915,9.453 249.915,25.284 252.629,25.284 
	252.629,14.449 252.721,14.449 258.962,25.284 261.675,25.284 261.675,9.453 258.962,9.453 "/>
<path fill="#FFFFFF" d="M213.275,25.284c2.283,0,3.844-1.561,3.844-3.844V9.453h-2.713v12.122c0,0.813-0.545,1.357-1.359,1.357
	h-3.617c-0.813,0-1.357-0.544-1.357-1.357V9.453h-2.715V21.44c0,2.284,1.562,3.844,3.847,3.844H213.275L213.275,25.284z"/>
<path fill="#FFFFFF" d="M157.182,13.161c0-0.813,0.543-1.357,1.357-1.357h3.617c0.816,0,1.359,0.544,1.359,1.357v8.414
	c0,0.813-0.543,1.357-1.359,1.357h-3.617c-0.814,0-1.357-0.544-1.357-1.357V13.161L157.182,13.161z M158.313,25.284h4.071
	c2.283,0,3.845-1.561,3.845-3.844v-8.143c0-2.285-1.562-3.845-3.845-3.845h-4.071c-2.285,0-3.845,1.56-3.845,3.845v8.143
	C154.469,23.724,156.027,25.284,158.313,25.284L158.313,25.284z"/>
<path fill="#FFFFFF" d="M228.88,25.284c2.284,0,3.845-1.561,3.845-3.844v-0.974h-2.713v1.108c0,0.813-0.543,1.357-1.357,1.357
	h-3.168c-0.813,0-1.355-0.544-1.355-1.357v-8.413c0-0.813,0.544-1.357,1.355-1.357h3.168c0.814,0,1.357,0.544,1.357,1.357v1.108
	h2.713v-0.972c0-2.285-1.561-3.845-3.845-3.845h-3.616c-2.285,0-3.848,1.56-3.848,3.845v8.143c0,2.284,1.563,3.844,3.848,3.844
	H228.88L228.88,25.284z"/>
<polygon fill="#FFFFFF" points="118.032,57.042 118.032,43.562 122.555,43.562 122.555,41.209 110.793,41.209 110.793,43.562 
	115.318,43.562 115.318,57.042 "/>
<polygon fill="#FFFFFF" points="156.934,50.257 163.268,50.257 163.268,57.042 165.98,57.042 165.98,41.209 163.268,41.209 
	163.268,47.903 156.934,47.903 156.934,41.209 154.219,41.209 154.219,57.042 156.934,57.042 "/>
<polygon fill="#FFFFFF" points="220.018,41.209 217.053,41.209 211.396,48.448 211.285,48.448 211.285,41.209 208.568,41.209 
	208.568,57.042 211.285,57.042 211.285,52.406 213.025,50.166 217.482,57.042 220.76,57.042 214.813,47.881 "/>
<polygon fill="#FFFFFF" points="226.686,40.464 228.791,40.464 231.549,37.477 228.587,37.477 "/>
<path fill="#FFFFFF" d="M200.813,41.209h-3.619c-2.284,0-3.844,1.562-3.844,3.845v8.141c0,2.285,1.56,3.847,3.844,3.847h3.619
	c2.285,0,3.847-1.562,3.847-3.847v-0.973h-2.718v1.108c0,0.813-0.543,1.356-1.354,1.356h-3.167c-0.814,0-1.357-0.543-1.357-1.356
	v-8.415c0-0.813,0.543-1.356,1.357-1.356h3.167c0.813,0,1.354,0.543,1.354,1.356v1.107h2.718v-0.971
	C204.658,42.772,203.098,41.209,200.813,41.209L200.813,41.209z"/>
<polygon fill="#FFFFFF" points="135.447,54.691 128.208,54.691 128.208,50.257 134.769,50.257 134.769,47.903 128.208,47.903 
	128.208,43.562 135.222,43.562 135.222,41.209 125.494,41.209 125.494,57.042 135.447,57.042 "/>
<polygon fill="#FFFFFF" points="226.37,50.257 232.93,50.257 232.93,47.903 226.37,47.903 226.37,43.562 233.382,43.562 
	233.382,41.209 223.656,41.209 223.656,57.042 233.607,57.042 233.607,54.691 226.37,54.691 "/>
<path fill="#FFFFFF" d="M150.375,53.197v-0.973h-2.713v1.107c0,0.813-0.545,1.355-1.359,1.355h-3.166
	c-0.813,0-1.356-0.543-1.356-1.355v-8.415c0-0.813,0.544-1.356,1.356-1.356h3.166c0.814,0,1.359,0.543,1.359,1.356v1.107h2.713
	v-0.971c0-2.283-1.561-3.845-3.846-3.845h-3.619c-2.284,0-3.845,1.562-3.845,3.845v8.142c0,2.285,1.561,3.846,3.845,3.846h3.619
	C148.814,57.042,150.375,55.482,150.375,53.197L150.375,53.197z"/>
<polygon fill="#FFFFFF" points="182.04,57.042 182.04,41.209 179.322,41.209 179.322,52.042 179.234,52.042 172.992,41.209 
	170.277,41.209 170.277,57.042 172.992,57.042 172.992,46.207 173.082,46.207 179.322,57.042 "/>
<polygon fill="#FFFFFF" points="186.336,57.042 189.053,57.042 189.053,41.209 186.336,41.209 "/>
<polygon fill="#FFFFFF" points="180.932,69.236 178.602,69.236 180.75,72.223 183.51,72.223 185.658,69.236 183.42,69.236 
	182.174,70.841 "/>
<path fill="#FFFFFF" d="M153.225,80.341h-4.299V75.32h4.299c0.813,0,1.355,0.543,1.355,1.357v2.307
	C154.58,79.798,154.037,80.341,153.225,80.341L153.225,80.341z M157.295,78.848v-2.035c0-2.285-1.561-3.847-3.846-3.847h-7.238V88.8
	h2.715v-6.106h2.646l3.189,6.106h2.985l-3.259-6.222C156.188,82.174,157.295,80.771,157.295,78.848L157.295,78.848z"/>
<polygon fill="#FFFFFF" points="116.788,85.046 116.696,85.046 112.942,72.966 110.116,72.966 115.227,88.8 118.032,88.8 
	123.144,72.966 120.565,72.966 "/>
<polygon fill="#FFFFFF" points="170.188,83.803 170.096,83.803 163.854,72.966 161.141,72.966 161.141,88.8 163.854,88.8 
	163.854,77.967 163.945,77.967 170.188,88.8 172.902,88.8 172.902,72.966 170.188,72.966 "/>
<polygon fill="#FFFFFF" points="179.914,82.014 186.473,82.014 186.473,79.664 179.914,79.664 179.914,75.32 186.925,75.32 
	186.925,72.966 177.197,72.966 177.197,88.8 187.15,88.8 187.15,86.45 179.914,86.45 "/>
<path fill="#FFFFFF" d="M139.654,85.091c0,0.813-0.543,1.358-1.357,1.358h-4.523v-4.438h4.659c0.723,0,1.221,0.5,1.221,1.225V85.091
	L139.654,85.091z M133.773,75.32h4.184c0.814,0,1.357,0.543,1.357,1.357v1.766c0,0.723-0.498,1.221-1.222,1.221h-4.319V75.32
	L133.773,75.32z M140.355,80.794v-0.092c1.04-0.563,1.674-1.63,1.674-3.009v-0.883c0-2.285-1.562-3.846-3.845-3.846h-7.125V88.8
	h7.464c2.285,0,3.845-1.562,3.845-3.845V83.96C142.367,82.445,141.598,81.314,140.355,80.794L140.355,80.794z"/>
</svg>
