<?xml version="1.0" encoding="UTF-8" standalone="no"?><!DOCTYPE svg PUBLIC "-//W3C//DTD SVG 1.1//EN" "http://www.w3.org/Graphics/SVG/1.1/DTD/svg11.dtd"><svg width="100%" height="100%" viewBox="0 0 4359 1725" version="1.1" xmlns="http://www.w3.org/2000/svg" xmlns:xlink="http://www.w3.org/1999/xlink" xml:space="preserve" xmlns:serif="http://www.serif.com/" style="fill-rule:evenodd;clip-rule:evenodd;stroke-linejoin:round;stroke-miterlimit:2;"><path d="M0,0l0,1722.45l1722.45,-0.004l-0.004,-1722.45l-1722.45,0Z" style="fill:#e4002b;fill-rule:nonzero;"/><rect x="1792.38" y="0.033" width="2565.47" height="1722.42" style="fill:#898d8d;fill-rule:nonzero;"/><rect x="276.842" y="263.492" width="532.413" height="194.096" style="fill:#fff;fill-rule:nonzero;"/><path d="M809.254,1435.3l200.225,-0l0,-675.8c0,-68.679 59.6,-124.321 133.054,-124.321l298.613,0l-0,-177.587l-631.892,-0l0,977.708Z" style="fill:#fff;fill-rule:nonzero;"/><path d="M2845.97,1024.03l-0,58.229c-0,136.788 -93.454,230.242 -230.225,230.242l-216.667,0c-136.771,0 -230.208,-93.454 -230.208,-230.242l-0,-487.52c-0,-136.771 93.437,-230.209 230.208,-230.209l216.667,0c136.771,0 230.225,93.438 230.225,230.209l-0,58.229l-162.5,-0l-0,-66.355c-0,-48.766 -32.5,-81.283 -81.267,-81.283l-189.583,0c-48.767,0 -81.25,32.517 -81.25,81.284l-0,503.787c-0,48.767 32.483,81.25 81.25,81.25l189.583,0c48.767,0 81.267,-32.483 81.267,-81.25l-0,-66.354l162.5,-0l-0,-0.017Z" style="fill:#fff;fill-rule:nonzero;"/><rect x="2991.32" y="364.529" width="162.517" height="947.971" style="fill:#fff;"/><path d="M3544.06,906.217c-136.771,-0 -230.225,-93.475 -230.225,-230.229l-0,-81.284c-0,-136.771 93.454,-230.208 230.225,-230.208l196.387,-0c136.754,-0 230.225,93.437 230.225,230.208l0,58.229l-162.5,0l0,-66.337c0,-48.75 -32.5,-81.267 -81.267,-81.267l-169.27,0c-48.784,0 -81.267,32.517 -81.267,81.267l-0,97.5c-0,48.767 32.483,81.25 81.267,81.25l189.583,-0c136.787,-0 230.225,93.454 230.225,230.246l-0,86.65c-0,136.787 -93.438,230.225 -230.225,230.225l-216.65,-0c-136.788,-0 -230.225,-93.438 -230.225,-230.229l-0,-58.225l162.5,-0l-0,66.354c-0,48.766 32.483,81.25 81.25,81.25l189.6,-0c48.75,-0 81.271,-32.484 81.271,-81.25l-0,-102.938c-0,-48.783 -32.521,-81.266 -81.271,-81.266l-189.617,-0l0,0.054l-0.016,-0Z" style="fill:#fff;fill-rule:nonzero;"/></svg>