<svg width="237" height="149" viewBox="0 0 237 149" fill="none" xmlns="http://www.w3.org/2000/svg">
<g clip-path="url(#clip0_10400_3886)">
<path fill-rule="evenodd" clip-rule="evenodd" d="M236.539 61.1642H236.939V68.9672H236.539V110.341C236.539 111.174 236.375 111.999 236.056 112.769C235.737 113.539 235.27 114.238 234.681 114.828C234.092 115.417 233.392 115.884 232.622 116.203C231.853 116.522 231.028 116.686 230.194 116.686H206.97C206.136 116.686 205.311 116.522 204.542 116.203C203.772 115.884 203.072 115.417 202.483 114.828C201.894 114.238 201.427 113.539 201.108 112.769C200.789 111.999 200.625 111.174 200.625 110.341V50.202C200.625 49.3688 200.789 48.5438 201.108 47.774C201.427 47.0043 201.894 46.3049 202.483 45.7157C203.072 45.1266 203.772 44.6592 204.542 44.3404C205.311 44.0215 206.136 43.8574 206.97 43.8574H230.194C231.028 43.8574 231.853 44.0215 232.622 44.3404C233.392 44.6592 234.092 45.1266 234.681 45.7157C235.27 46.3049 235.737 47.0043 236.056 47.774C236.375 48.5438 236.539 49.3688 236.539 50.202V61.1642ZM235.189 110.628V50.5765C235.188 49.32 234.689 48.1152 233.8 47.227C232.912 46.3387 231.706 45.8398 230.45 45.8398H227.419C227.559 46.1816 227.612 46.5525 227.575 46.9199C227.538 47.2874 227.41 47.6399 227.204 47.9464C226.998 48.2529 226.72 48.5039 226.394 48.6772C226.068 48.8506 225.704 48.9409 225.334 48.9402H212.029C211.66 48.9398 211.297 48.8488 210.971 48.6752C210.646 48.5016 210.368 48.2506 210.162 47.9444C209.956 47.6383 209.829 47.2862 209.791 46.9193C209.753 46.5523 209.806 46.1816 209.945 45.8398H207.114C205.857 45.8399 204.653 46.3389 203.764 47.2272C202.876 48.1155 202.377 49.3202 202.377 50.5765V110.628C202.377 111.25 202.499 111.867 202.737 112.441C202.975 113.016 203.324 113.539 203.764 113.979C204.204 114.419 204.726 114.768 205.301 115.006C205.875 115.244 206.491 115.367 207.114 115.367H230.45C231.707 115.367 232.912 114.868 233.801 113.979C234.689 113.09 235.189 111.885 235.189 110.628Z" fill="#6D7174"/>
<path d="M231.394 69.7227H204.266V77.0429H231.394V69.7227Z" fill="#E4002B"/>
<path d="M232.47 75.7508H206.204C206.032 75.7506 205.868 75.6825 205.747 75.5614C205.626 75.4404 205.558 75.2762 205.558 75.1049V68.6459C205.558 68.4747 205.626 68.3105 205.747 68.1894C205.868 68.0683 206.032 68.0002 206.204 68H232.47C232.641 68.0002 232.806 68.0683 232.927 68.1894C233.048 68.3105 233.116 68.4747 233.116 68.6459V75.1049C233.116 75.2762 233.048 75.4404 232.927 75.5614C232.806 75.6825 232.641 75.7506 232.47 75.7508ZM206.204 68.4306C206.146 68.4307 206.092 68.4534 206.051 68.4937C206.011 68.5341 205.988 68.5888 205.988 68.6459V75.1049C205.988 75.162 206.011 75.2168 206.051 75.2571C206.092 75.2975 206.146 75.3202 206.204 75.3202H232.47C232.527 75.3202 232.582 75.2975 232.622 75.2571C232.663 75.2168 232.685 75.162 232.686 75.1049V68.6459C232.685 68.5888 232.663 68.5341 232.622 68.4937C232.582 68.4534 232.527 68.4307 232.47 68.4306H206.204Z" fill="#6D7174"/>
<path d="M210.725 73.8125H207.28V74.2431H210.725V73.8125Z" fill="#6D7174"/>
<path d="M215.461 73.8125H212.017V74.2431H215.461V73.8125Z" fill="#6D7174"/>
<path d="M220.198 73.8125H216.753V74.2431H220.198V73.8125Z" fill="#6D7174"/>
<path d="M224.935 73.8125H221.49V74.2431H224.935V73.8125Z" fill="#6D7174"/>
<path d="M229.671 73.8125H226.227V74.2431H229.671V73.8125Z" fill="#6D7174"/>
<path opacity="0.2" d="M97.4455 148.924H21.9286C21.8145 148.924 21.7052 148.879 21.6245 148.798C21.5439 148.717 21.4984 148.608 21.498 148.494V99.4052C21.4984 99.2911 21.5439 99.1818 21.6245 99.1011C21.7052 99.0204 21.8145 98.9749 21.9286 98.9746H22.8846L97.4455 148.924Z" fill="#C8D0D0"/>
<path d="M226.464 105.65H68.6489V106.081H226.464V105.65Z" fill="#6D7174"/>
<path fill-rule="evenodd" clip-rule="evenodd" d="M73.4402 0.929617H118.544C118.944 0.929617 119.341 1.00853 119.711 1.16185C120.081 1.31518 120.418 1.5399 120.701 1.82321C120.984 2.10651 121.209 2.44284 121.362 2.81299C121.516 3.18314 121.594 3.57987 121.594 3.98052V65.7409C121.594 66.55 121.273 67.326 120.701 67.8982C120.129 68.4703 119.353 68.7918 118.544 68.7918H7.69934C6.89019 68.7918 6.11418 68.4703 5.54202 67.8982C4.96987 67.326 4.64844 66.55 4.64844 65.7409V3.98052C4.64844 3.57987 4.72735 3.18314 4.88067 2.81299C5.03399 2.44284 5.25872 2.10651 5.54203 1.82321C5.82533 1.5399 6.16166 1.31518 6.53181 1.16185C6.90196 1.00853 7.29869 0.929617 7.69934 0.929617H52.9886V0H73.4402V0.929617ZM8.73926 6.32031H117.503V67.6768H8.73926V6.32031Z" fill="#6D7174"/>
<path opacity="0.5" d="M63.0281 4.64906C63.6442 4.64906 64.1437 4.14961 64.1437 3.53351C64.1437 2.91741 63.6442 2.41797 63.0281 2.41797C62.412 2.41797 61.9126 2.91741 61.9126 3.53351C61.9126 4.14961 62.412 4.64906 63.0281 4.64906Z" fill="#6D7174"/>
<path d="M41.0904 29.2172H38.5067C38.3355 29.217 38.1713 29.1489 38.0502 29.0278C37.9291 28.9067 37.861 28.7426 37.8608 28.5713V25.9877C37.861 25.8165 37.9291 25.6523 38.0502 25.5312C38.1713 25.4101 38.3355 25.342 38.5067 25.3418H41.0904C41.2616 25.342 41.4258 25.4101 41.5469 25.5312C41.668 25.6523 41.7361 25.8165 41.7363 25.9877V28.5713C41.7361 28.7426 41.668 28.9067 41.5469 29.0278C41.4258 29.1489 41.2616 29.217 41.0904 29.2172ZM38.5067 25.7724C38.4497 25.7725 38.3949 25.7952 38.3546 25.8355C38.3142 25.8759 38.2915 25.9306 38.2914 25.9877V28.5713C38.2915 28.6284 38.3142 28.6831 38.3546 28.7235C38.3949 28.7638 38.4497 28.7865 38.5067 28.7866H41.0904C41.1474 28.7865 41.2022 28.7638 41.2425 28.7235C41.2829 28.6831 41.3056 28.6284 41.3057 28.5713V25.9877C41.3056 25.9306 41.2829 25.8759 41.2425 25.8355C41.2022 25.7952 41.1474 25.7725 41.0904 25.7724H38.5067Z" fill="#6D7174"/>
<path d="M87.1648 28.7871H38.0762V29.2177H87.1648V28.7871Z" fill="#6D7174"/>
<path d="M85.8731 40.6289H74.4622V44.0737H85.8731V40.6289Z" fill="#337AB7"/>
<path d="M86.7342 43.2133H76.1845C76.0132 43.2131 75.8491 43.145 75.728 43.0239C75.6069 42.9028 75.5388 42.7387 75.5386 42.5674V39.9838C75.5388 39.8125 75.6069 39.6484 75.728 39.5273C75.8491 39.4062 76.0132 39.3381 76.1845 39.3379H86.7342C86.9055 39.3381 87.0697 39.4062 87.1907 39.5273C87.3118 39.6484 87.3799 39.8125 87.3801 39.9838V42.5674C87.3799 42.7387 87.3118 42.9028 87.1907 43.0239C87.0697 43.145 86.9055 43.2131 86.7342 43.2133ZM76.1845 39.7685C76.1274 39.7686 76.0727 39.7913 76.0323 39.8316C75.992 39.872 75.9693 39.9267 75.9692 39.9838V42.5674C75.9693 42.6245 75.992 42.6792 76.0323 42.7196C76.0727 42.7599 76.1274 42.7826 76.1845 42.7827H86.7342C86.7913 42.7826 86.846 42.7599 86.8864 42.7196C86.9267 42.6792 86.9495 42.6245 86.9495 42.5674V39.9838C86.9495 39.9267 86.9267 39.872 86.8864 39.8316C86.846 39.7913 86.7913 39.7686 86.7342 39.7685H76.1845Z" fill="#6D7174"/>
<path d="M173.07 44.5039H151.54V59.575H173.07V44.5039Z" fill="#E4002B"/>
<path d="M175.223 58.3913H154.554C154.326 58.391 154.107 58.3002 153.945 58.1387C153.784 57.9773 153.693 57.7584 153.693 57.5301V43.3202C153.693 43.0919 153.784 42.8729 153.945 42.7115C154.107 42.55 154.326 42.4592 154.554 42.459H175.223C175.451 42.4592 175.67 42.55 175.832 42.7115C175.993 42.8729 176.084 43.0919 176.084 43.3202V57.5301C176.084 57.7584 175.993 57.9773 175.832 58.1387C175.67 58.3002 175.451 58.391 175.223 58.3913ZM154.554 43.3202V57.5301H175.224L175.223 43.3202H154.554Z" fill="#6D7174"/>
<path d="M172.855 42.7825H171.993C171.993 40.8982 171.245 39.091 169.912 37.7586C168.58 36.4262 166.773 35.6776 164.889 35.6776C163.004 35.6776 161.197 36.4262 159.865 37.7586C158.532 39.091 157.784 40.8982 157.784 42.7825H156.922C156.922 40.6698 157.762 38.6436 159.256 37.1496C160.75 35.6557 162.776 34.8164 164.889 34.8164C167.001 34.8164 169.027 35.6557 170.521 37.1496C172.015 38.6436 172.855 40.6698 172.855 42.7825Z" fill="#6D7174"/>
<path d="M167.041 48.7024C167.042 48.3275 166.944 47.959 166.759 47.6333C166.573 47.3076 166.305 47.0361 165.982 46.8456C165.66 46.6551 165.293 46.5522 164.918 46.5471C164.543 46.542 164.173 46.6349 163.845 46.8166C163.517 46.9982 163.242 47.2624 163.048 47.5829C162.853 47.9034 162.746 48.2692 162.736 48.644C162.726 49.0188 162.815 49.3896 162.992 49.7198C163.17 50.05 163.431 50.3281 163.749 50.5266V52.8375C163.749 52.9871 163.778 53.1354 163.835 53.2736C163.893 53.4119 163.977 53.5376 164.082 53.6434C164.188 53.7493 164.314 53.8332 164.452 53.8905C164.591 53.9478 164.739 53.9773 164.888 53.9773C165.191 53.9773 165.481 53.8572 165.694 53.6434C165.908 53.4297 166.028 53.1398 166.028 52.8375V50.5266C166.338 50.3336 166.594 50.0648 166.771 49.7457C166.948 49.4265 167.041 49.0675 167.041 48.7024Z" fill="#6D7174"/>
<path d="M64.666 121.15H61.2212V121.581H64.666V121.15Z" fill="#6D7174"/>
<path d="M69.4023 121.15H65.9575V121.581H69.4023V121.15Z" fill="#6D7174"/>
<path d="M74.1392 121.15H70.6943V121.581H74.1392V121.15Z" fill="#6D7174"/>
<path d="M78.876 121.15H75.4312V121.581H78.876V121.15Z" fill="#6D7174"/>
<path d="M83.6123 121.15H80.1675V121.581H83.6123V121.15Z" fill="#6D7174"/>
<path d="M127.857 145.264H26.8807C26.6524 145.264 26.4335 145.173 26.272 145.012C26.1106 144.85 26.0198 144.631 26.0195 144.403V95.3143C26.0198 95.086 26.1106 94.8671 26.272 94.7056C26.4335 94.5442 26.6524 94.4534 26.8807 94.4531H127.857C128.085 94.4534 128.304 94.5442 128.466 94.7056C128.627 94.8671 128.718 95.086 128.718 95.3143V144.403C128.718 144.631 128.627 144.85 128.466 145.012C128.304 145.173 128.085 145.264 127.857 145.264ZM26.8807 95.3143V144.403H127.857L127.857 95.3143H26.8807Z" fill="#6D7174"/>
<path d="M31.4022 102.636C32.1156 102.636 32.694 102.058 32.694 101.345C32.694 100.631 32.1156 100.053 31.4022 100.053C30.6887 100.053 30.1104 100.631 30.1104 101.345C30.1104 102.058 30.6887 102.636 31.4022 102.636Z" fill="#6D7174"/>
<path d="M35.9232 102.636C36.6366 102.636 37.215 102.058 37.215 101.345C37.215 100.631 36.6366 100.053 35.9232 100.053C35.2097 100.053 34.6313 100.631 34.6313 101.345C34.6313 102.058 35.2097 102.636 35.9232 102.636Z" fill="#6D7174"/>
<path d="M40.4446 102.636C41.1581 102.636 41.7364 102.058 41.7364 101.345C41.7364 100.631 41.1581 100.053 40.4446 100.053C39.7312 100.053 39.1528 100.631 39.1528 101.345C39.1528 102.058 39.7312 102.636 40.4446 102.636Z" fill="#6D7174"/>
<path d="M86.9498 124.165H57.8842C57.7129 124.165 57.5488 124.096 57.4277 123.975C57.3066 123.854 57.2385 123.69 57.2383 123.519V116.199C57.2385 116.027 57.3066 115.863 57.4277 115.742C57.5488 115.621 57.7129 115.553 57.8842 115.553H86.9498C87.1211 115.553 87.2852 115.621 87.4063 115.742C87.5274 115.863 87.5955 116.027 87.5957 116.199V123.519C87.5955 123.69 87.5274 123.854 87.4063 123.975C87.2852 124.096 87.1211 124.165 86.9498 124.165ZM57.8842 115.983C57.8271 115.983 57.7724 116.006 57.732 116.046C57.6916 116.087 57.6689 116.142 57.6689 116.199V123.519C57.6689 123.576 57.6916 123.631 57.732 123.671C57.7724 123.711 57.8271 123.734 57.8842 123.734H86.9498C87.0069 123.734 87.0616 123.711 87.102 123.671C87.1424 123.631 87.1651 123.576 87.1651 123.519V116.199C87.1651 116.142 87.1424 116.087 87.102 116.046C87.0616 116.006 87.0069 115.983 86.9498 115.983H57.8842Z" fill="#6D7174"/>
<path d="M94.2699 124.382C96.4103 124.382 98.1454 122.647 98.1454 120.506C98.1454 118.366 96.4103 116.631 94.2699 116.631C92.1296 116.631 90.3945 118.366 90.3945 120.506C90.3945 122.647 92.1296 124.382 94.2699 124.382Z" fill="#198754"/>
<path d="M95.5614 123.951C94.7524 123.951 93.9615 123.711 93.2887 123.262C92.616 122.812 92.0917 122.173 91.7821 121.426C91.4725 120.678 91.3915 119.856 91.5493 119.062C91.7071 118.269 92.0968 117.54 92.6689 116.968C93.241 116.396 93.9698 116.006 94.7634 115.848C95.5569 115.69 96.3794 115.771 97.1269 116.081C97.8744 116.391 98.5132 116.915 98.9627 117.588C99.4122 118.26 99.6521 119.051 99.6521 119.86C99.6509 120.945 99.2195 121.985 98.4526 122.751C97.6857 123.518 96.646 123.95 95.5614 123.951ZM95.5614 116.2C94.8375 116.2 94.1299 116.415 93.528 116.817C92.9261 117.219 92.4569 117.791 92.1799 118.46C91.9029 119.128 91.8304 119.864 91.9716 120.574C92.1129 121.284 92.4615 121.936 92.9733 122.448C93.4852 122.96 94.1374 123.309 94.8474 123.45C95.5574 123.591 96.2933 123.519 96.9621 123.242C97.6309 122.965 98.2025 122.496 98.6047 121.894C99.0069 121.292 99.2215 120.584 99.2215 119.86C99.2205 118.89 98.8345 117.96 98.1483 117.273C97.4622 116.587 96.5318 116.201 95.5614 116.2Z" fill="#6D7174"/>
<path d="M95.619 121.388L93.5347 119.303L94.1435 118.694L95.504 120.055L99.3002 114.66L100.004 115.156L95.619 121.388Z" fill="#6D7174"/>
<path opacity="0.2" d="M93.3891 67.6769H8.73926V10.9688L93.3891 67.6769Z" fill="#C8D0D0"/>
<path d="M124.648 66.561H114.033V65.7962C114.033 65.7763 114.029 65.7565 114.022 65.7381C114.014 65.7197 114.003 65.703 113.989 65.6889C113.975 65.6749 113.958 65.6637 113.94 65.6561C113.921 65.6485 113.901 65.6445 113.882 65.6445H110.242C110.222 65.6445 110.203 65.6485 110.184 65.6561C110.166 65.6637 110.149 65.6749 110.135 65.6889C110.121 65.703 110.11 65.7197 110.102 65.7381C110.095 65.7565 110.091 65.7763 110.091 65.7962V66.561H107.816V65.7962C107.816 65.7763 107.812 65.7565 107.804 65.7381C107.797 65.7197 107.786 65.703 107.772 65.6889C107.757 65.6749 107.741 65.6637 107.722 65.6561C107.704 65.6485 107.684 65.6445 107.664 65.6445H104.025C104.005 65.6445 103.985 65.6485 103.967 65.6561C103.949 65.6637 103.932 65.6749 103.918 65.6889C103.904 65.703 103.893 65.7197 103.885 65.7381C103.877 65.7565 103.873 65.7763 103.873 65.7962V66.561H101.599V65.7962C101.599 65.7763 101.595 65.7565 101.587 65.7381C101.58 65.7197 101.568 65.703 101.554 65.6889C101.54 65.6749 101.524 65.6637 101.505 65.6561C101.487 65.6485 101.467 65.6445 101.447 65.6445H97.8078C97.7878 65.6445 97.7681 65.6485 97.7497 65.6561C97.7313 65.6637 97.7146 65.6749 97.7005 65.6889C97.6864 65.703 97.6753 65.7197 97.6677 65.7381C97.66 65.7565 97.6561 65.7763 97.6561 65.7962V66.561H95.3815V65.7962C95.3815 65.7763 95.3776 65.7565 95.37 65.7381C95.3624 65.7197 95.3512 65.703 95.3371 65.6889C95.323 65.6749 95.3063 65.6637 95.2879 65.6561C95.2695 65.6485 95.2498 65.6445 95.2299 65.6445H91.5905C91.5706 65.6445 91.5509 65.6485 91.5325 65.6561C91.5141 65.6637 91.4974 65.6749 91.4833 65.6889C91.4692 65.703 91.458 65.7197 91.4504 65.7381C91.4428 65.7565 91.4389 65.7763 91.4389 65.7962V66.561H89.1643V65.7962C89.1643 65.7763 89.1604 65.7565 89.1527 65.7381C89.1451 65.7197 89.1339 65.703 89.1199 65.6889C89.1058 65.6749 89.0891 65.6637 89.0707 65.6561C89.0523 65.6485 89.0325 65.6445 89.0126 65.6445H85.3733C85.3534 65.6445 85.3336 65.6485 85.3153 65.6561C85.2969 65.6637 85.2801 65.6749 85.2661 65.6889C85.252 65.703 85.2408 65.7197 85.2332 65.7381C85.2256 65.7565 85.2216 65.7763 85.2216 65.7962V66.561H82.947V65.7962C82.947 65.7763 82.9431 65.7565 82.9355 65.7381C82.9279 65.7197 82.9167 65.703 82.9026 65.6889C82.8885 65.6749 82.8718 65.6637 82.8534 65.6561C82.835 65.6485 82.8153 65.6445 82.7954 65.6445H79.156C79.1361 65.6445 79.1164 65.6485 79.098 65.6561C79.0796 65.6637 79.0629 65.6749 79.0488 65.6889C79.0347 65.703 79.0236 65.7197 79.0159 65.7381C79.0083 65.7565 79.0044 65.7763 79.0044 65.7962V66.561H76.7298V65.7962C76.7298 65.7763 76.7259 65.7565 76.7183 65.7381C76.7106 65.7197 76.6995 65.703 76.6854 65.6889C76.6713 65.6749 76.6546 65.6637 76.6362 65.6561C76.6178 65.6485 76.5981 65.6445 76.5782 65.6445H48.0699C48.0499 65.6445 48.0302 65.6485 48.0118 65.6561C47.9934 65.6637 47.9767 65.6749 47.9626 65.6889C47.9485 65.703 47.9374 65.7197 47.9298 65.7381C47.9221 65.7565 47.9182 65.7763 47.9182 65.7962V66.561H45.6436V65.7962C45.6436 65.7763 45.6397 65.7565 45.6321 65.7381C45.6245 65.7197 45.6133 65.703 45.5992 65.6889C45.5851 65.6749 45.5684 65.6637 45.55 65.6561C45.5316 65.6485 45.5119 65.6445 45.492 65.6445H41.8526C41.8327 65.6445 41.813 65.6485 41.7946 65.6561C41.7762 65.6637 41.7595 65.6749 41.7454 65.6889C41.7313 65.703 41.7201 65.7197 41.7125 65.7381C41.7049 65.7565 41.701 65.7763 41.701 65.7962V66.561H39.4264V65.7962C39.4264 65.7763 39.4225 65.7565 39.4148 65.7381C39.4072 65.7197 39.396 65.703 39.382 65.6889C39.3679 65.6749 39.3512 65.6637 39.3328 65.6561C39.3144 65.6485 39.2947 65.6445 39.2747 65.6445H35.6354C35.6155 65.6445 35.5957 65.6485 35.5774 65.6561C35.559 65.6637 35.5422 65.6749 35.5282 65.6889C35.5141 65.703 35.5029 65.7197 35.4953 65.7381C35.4877 65.7565 35.4837 65.7763 35.4837 65.7962V66.561H33.2091V65.7962C33.2091 65.7763 33.2052 65.7565 33.1976 65.7381C33.19 65.7197 33.1788 65.703 33.1647 65.6889C33.1507 65.6749 33.1339 65.6637 33.1155 65.6561C33.0971 65.6485 33.0774 65.6445 33.0575 65.6445H29.4181C29.3982 65.6445 29.3785 65.6485 29.3601 65.6561C29.3417 65.6637 29.325 65.6749 29.3109 65.6889C29.2968 65.703 29.2857 65.7197 29.2781 65.7381C29.2704 65.7565 29.2665 65.7763 29.2665 65.7962V66.561H26.9919V65.7962C26.9919 65.7763 26.988 65.7565 26.9804 65.7381C26.9727 65.7197 26.9616 65.703 26.9475 65.6889C26.9334 65.6749 26.9167 65.6637 26.8983 65.6561C26.8799 65.6485 26.8602 65.6445 26.8403 65.6445H23.2009C23.181 65.6445 23.1613 65.6485 23.1429 65.6561C23.1245 65.6637 23.1078 65.6749 23.0937 65.6889C23.0796 65.703 23.0684 65.7197 23.0608 65.7381C23.0532 65.7565 23.0493 65.7763 23.0493 65.7962V66.561H20.7747V65.7962C20.7747 65.7763 20.7708 65.7565 20.7631 65.7381C20.7555 65.7197 20.7443 65.703 20.7303 65.6889C20.7162 65.6749 20.6995 65.6637 20.6811 65.6561C20.6627 65.6485 20.643 65.6445 20.623 65.6445H16.9837C16.9638 65.6445 16.944 65.6485 16.9256 65.6561C16.9072 65.6637 16.8905 65.6749 16.8764 65.6889C16.8624 65.703 16.8512 65.7197 16.8436 65.7381C16.836 65.7565 16.832 65.7763 16.832 65.7962V66.561H14.5574V65.7962C14.5574 65.7763 14.5535 65.7565 14.5459 65.7381C14.5383 65.7197 14.5271 65.703 14.513 65.6889C14.4989 65.6749 14.4822 65.6637 14.4638 65.6561C14.4454 65.6485 14.4257 65.6445 14.4058 65.6445H10.7664C10.7465 65.6445 10.7268 65.6485 10.7084 65.6561C10.69 65.6637 10.6733 65.6749 10.6592 65.6889C10.6451 65.703 10.634 65.7197 10.6263 65.7381C10.6187 65.7565 10.6148 65.7763 10.6148 65.7962V66.561H3.63936C3.16143 66.561 2.68818 66.6551 2.24663 66.838C1.80509 67.0209 1.40389 67.289 1.06594 67.6269C0.727997 67.9649 0.459924 68.3661 0.277029 68.8076C0.0941342 69.2491 -2.82737e-07 69.7224 0 70.2003V71.846C2.28405e-06 72.8112 0.383435 73.7369 1.06595 74.4194C1.74846 75.1019 2.67414 75.4853 3.63936 75.4853H124.648C125.126 75.4853 125.599 75.3912 126.041 75.2083C126.482 75.0254 126.883 74.7573 127.221 74.4194C127.559 74.0814 127.827 73.6802 128.01 73.2387C128.193 72.7971 128.287 72.3239 128.287 71.846V70.2003C128.287 69.7224 128.193 69.2491 128.01 68.8076C127.827 68.3661 127.559 67.9648 127.221 67.6269C126.883 67.289 126.482 67.0209 126.041 66.838C125.599 66.6551 125.126 66.561 124.648 66.561Z" fill="#6D7174"/>
<path d="M91.4707 46.8734H34.6313C34.46 46.8732 34.2958 46.8051 34.1747 46.684C34.0536 46.5629 33.9855 46.3987 33.9854 46.2275V22.5443C33.9855 22.3731 34.0536 22.2089 34.1747 22.0878C34.2958 21.9667 34.46 21.8986 34.6313 21.8984H91.4707C91.642 21.8986 91.8061 21.9667 91.9272 22.0878C92.0483 22.2089 92.1164 22.3731 92.1166 22.5443V46.2275C92.1164 46.3987 92.0483 46.5629 91.9272 46.684C91.8061 46.8051 91.642 46.8732 91.4707 46.8734ZM34.6313 22.329C34.5742 22.3291 34.5195 22.3518 34.4791 22.3922C34.4387 22.4325 34.416 22.4873 34.416 22.5443V46.2275C34.416 46.2845 34.4387 46.3393 34.4791 46.3796C34.5195 46.42 34.5742 46.4427 34.6313 46.4428H91.4707C91.5278 46.4427 91.5825 46.42 91.6229 46.3796C91.6632 46.3393 91.6859 46.2845 91.686 46.2275V22.5443C91.6859 22.4873 91.6632 22.4325 91.6229 22.3922C91.5825 22.3518 91.5278 22.3291 91.4707 22.329H34.6313Z" fill="#6D7174"/>
<path d="M41.0904 35.6762H38.5067C38.3355 35.676 38.1713 35.6079 38.0502 35.4868C37.9291 35.3657 37.861 35.2015 37.8608 35.0303V32.4467C37.861 32.2754 37.9291 32.1113 38.0502 31.9902C38.1713 31.8691 38.3355 31.801 38.5067 31.8008H41.0904C41.2616 31.801 41.4258 31.8691 41.5469 31.9902C41.668 32.1113 41.7361 32.2754 41.7363 32.4467V35.0303C41.7361 35.2015 41.668 35.3657 41.5469 35.4868C41.4258 35.6079 41.2616 35.676 41.0904 35.6762ZM38.5067 32.2314C38.4497 32.2315 38.3949 32.2542 38.3546 32.2945C38.3142 32.3349 38.2915 32.3896 38.2914 32.4467V35.0303C38.2915 35.0874 38.3142 35.1421 38.3546 35.1825C38.3949 35.2228 38.4497 35.2455 38.5067 35.2456H41.0904C41.1474 35.2455 41.2022 35.2228 41.2425 35.1825C41.2829 35.1421 41.3056 35.0874 41.3057 35.0303V32.4467C41.3056 32.3896 41.2829 32.3349 41.2425 32.2945C41.2022 32.2542 41.1474 32.2315 41.0904 32.2314H38.5067Z" fill="#6D7174"/>
<path d="M87.1648 35.2461H38.0762V35.6767H87.1648V35.2461Z" fill="#6D7174"/>
<path d="M214.838 58.0684H57.0227V58.499H214.838V58.0684Z" fill="#6D7174"/>
<path d="M57.0225 61.0831C58.6872 61.0831 60.0367 59.7336 60.0367 58.0689C60.0367 56.4042 58.6872 55.0547 57.0225 55.0547C55.3578 55.0547 54.0083 56.4042 54.0083 58.0689C54.0083 59.7336 55.3578 61.0831 57.0225 61.0831Z" fill="#6D7174"/>
<path d="M214.839 60.8675C216.147 60.8675 217.207 59.8072 217.207 58.4992C217.207 57.1912 216.147 56.1309 214.839 56.1309C213.531 56.1309 212.47 57.1912 212.47 58.4992C212.47 59.8072 213.531 60.8675 214.839 60.8675Z" fill="#6D7174"/>
<path d="M226.465 108.45C227.772 108.45 228.833 107.389 228.833 106.081C228.833 104.773 227.772 103.713 226.465 103.713C225.157 103.713 224.096 104.773 224.096 106.081C224.096 107.389 225.157 108.45 226.465 108.45Z" fill="#6D7174"/>
<path d="M69.2951 108.45C70.6031 108.45 71.6634 107.389 71.6634 106.081C71.6634 104.773 70.6031 103.713 69.2951 103.713C67.9871 103.713 66.9268 104.773 66.9268 106.081C66.9268 107.389 67.9871 108.45 69.2951 108.45Z" fill="#6D7174"/>
</g>
<defs>
<clipPath id="clip0_10400_3886">
<rect width="236.939" height="148.925" fill="white"/>
</clipPath>
</defs>
</svg>
