<svg width="255" height="133" viewBox="0 0 255 133" fill="none" xmlns="http://www.w3.org/2000/svg">
<g clip-path="url(#clip0_10577_15334)">
<path d="M39.2569 8.49368L40.8977 5.5026C41.0054 5.30458 40.9671 5.15273 40.7824 5.04595C40.582 4.95388 40.4279 5.00053 40.3203 5.18262L38.6566 8.19761C37.1927 7.55799 35.6444 7.2376 34.0116 7.2376C32.3785 7.2376 30.83 7.55806 29.3667 8.19761L27.7029 5.18262C27.5948 5.00053 27.4408 4.95429 27.2408 5.04595C27.0557 5.15321 27.0174 5.30458 27.1255 5.5026L28.7663 8.49368C27.1026 9.33215 25.7775 10.4999 24.7916 11.9994C23.8057 13.4998 23.3125 15.1393 23.3125 16.921H44.6875C44.6875 15.1397 44.1943 13.5001 43.2084 11.9994C42.2224 10.4999 40.905 9.33215 39.2569 8.49368ZM29.7709 12.8443C29.5935 13.02 29.3815 13.1075 29.1352 13.1075C28.8884 13.1075 28.6808 13.02 28.5114 12.8443C28.342 12.6693 28.2573 12.4607 28.2573 12.2165C28.2573 11.973 28.342 11.764 28.5114 11.5887C28.6808 11.4137 28.8889 11.3263 29.1352 11.3263C29.3815 11.3263 29.5935 11.4137 29.7709 11.5887C29.9479 11.7644 30.0369 11.973 30.0369 12.2165C30.0364 12.4603 29.9475 12.6693 29.7709 12.8443ZM39.5109 12.8443C39.3412 13.02 39.1331 13.1075 38.8872 13.1075C38.6403 13.1075 38.4284 13.02 38.2513 12.8443C38.074 12.6693 37.9855 12.4607 37.9855 12.2165C37.9855 11.973 38.074 11.764 38.2513 11.5887C38.4284 11.4137 38.6403 11.3263 38.8872 11.3263C39.1335 11.3263 39.3411 11.4137 39.5109 11.5887C39.6804 11.7644 39.765 11.973 39.765 12.2165C39.765 12.4603 39.6804 12.6693 39.5109 12.8443Z" fill="white"/>
<path d="M23.3125 32.9515C23.3125 33.6525 23.5588 34.2459 24.0516 34.7328C24.5448 35.2198 25.1452 35.4632 25.8541 35.4632H27.656L27.6794 40.6476C27.6794 41.3023 27.9104 41.8582 28.3725 42.315C28.8346 42.7717 29.3895 43 30.0363 43C30.6984 43 31.2609 42.7717 31.7231 42.315C32.1852 41.8582 32.4163 41.3024 32.4163 40.6476V35.4637H35.6051V40.6476C35.6051 41.3023 35.8361 41.8582 36.2983 42.315C36.7604 42.7717 37.3224 43 37.9851 43C38.6472 43 39.2097 42.7717 39.6718 42.315C40.134 41.8582 40.365 41.3024 40.365 40.6476V35.4637H42.1688C42.8619 35.4637 43.4547 35.2202 43.9483 34.7332C44.441 34.2463 44.6875 33.6529 44.6875 32.952V17.7423H23.3125V32.9515Z" fill="white"/>
<path d="M48.2385 17.3087C47.5895 17.3087 47.0335 17.5298 46.5701 17.9707C46.1067 18.4124 45.875 18.955 45.875 19.5975V29.2471C45.875 29.8913 46.1066 30.4367 46.5701 30.8855C47.0335 31.3343 47.5899 31.5587 48.2385 31.5587C48.9025 31.5587 49.4665 31.3343 49.9299 30.8855C50.3934 30.4367 50.625 29.8913 50.625 29.2471V19.5975C50.625 18.9549 50.3934 18.4124 49.9299 17.9707C49.4665 17.5298 48.9025 17.3087 48.2385 17.3087Z" fill="white"/>
<path d="M18.0701 17.9818C18.5334 17.5331 19.097 17.3087 19.7613 17.3087C20.4102 17.3087 20.9666 17.5331 21.4299 17.9818C21.8933 18.4306 22.125 18.969 22.125 19.5975V29.2471C22.125 29.8913 21.8968 30.4368 21.4415 30.8855C20.9854 31.3343 20.4252 31.5587 19.7613 31.5587C19.097 31.5587 18.5334 31.3343 18.0701 30.8855C17.6067 30.4367 17.375 29.8913 17.375 29.2471V19.5975C17.375 18.969 17.6067 18.4306 18.0701 17.9818Z" fill="white"/>
<path d="M17.1108 64H15.3535V65.7573H17.1108V64Z" fill="white"/>
<path d="M18.8178 64H17.0605V65.7573H18.8178V64Z" fill="white"/>
<path d="M27.3471 64H25.5898V65.7573H27.3471V64Z" fill="white"/>
<path d="M29.0541 64H27.2969V65.7573H29.0541V64Z" fill="white"/>
<path d="M30.7592 64H29.002V65.7573H30.7592V64Z" fill="white"/>
<path d="M32.4672 64H30.71V65.7573H32.4672V64Z" fill="white"/>
<path d="M34.1723 64H32.415V65.7573H34.1723V64Z" fill="white"/>
<path d="M35.8793 64H34.1221V65.7573H35.8793V64Z" fill="white"/>
<path d="M37.5844 64H35.8271V65.7573H37.5844V64Z" fill="white"/>
<path d="M40.9965 64H39.2393V65.7573H40.9965V64Z" fill="white"/>
<path d="M44.4086 64H42.6514V65.7573H44.4086V64Z" fill="white"/>
<path d="M49.5278 64H47.7705V65.7573H49.5278V64Z" fill="white"/>
<path d="M54.6449 64H52.8877V65.7573H54.6449V64Z" fill="white"/>
<path d="M56.352 64H54.5947V65.7573H56.352V64Z" fill="white"/>
<path d="M23.935 65.7051H22.1777V67.4623H23.935V65.7051Z" fill="white"/>
<path d="M29.0541 65.7051H27.2969V67.4623H29.0541V65.7051Z" fill="white"/>
<path d="M30.7592 65.7051H29.002V67.4623H30.7592V65.7051Z" fill="white"/>
<path d="M35.8793 65.7051H34.1221V67.4623H35.8793V65.7051Z" fill="white"/>
<path d="M37.5844 65.7051H35.8271V67.4623H37.5844V65.7051Z" fill="white"/>
<path d="M44.4086 65.7051H42.6514V67.4623H44.4086V65.7051Z" fill="white"/>
<path d="M46.1156 65.7051H44.3584V67.4623H46.1156V65.7051Z" fill="white"/>
<path d="M47.8207 65.7051H46.0635V67.4623H47.8207V65.7051Z" fill="white"/>
<path d="M52.9399 65.7051H51.1826V67.4623H52.9399V65.7051Z" fill="white"/>
<path d="M15.4057 67.4121H13.6484V69.1694H15.4057V67.4121Z" fill="white"/>
<path d="M22.2299 67.4121H20.4727V69.1694H22.2299V67.4121Z" fill="white"/>
<path d="M23.935 67.4121H22.1777V69.1694H23.935V67.4121Z" fill="white"/>
<path d="M29.0541 67.4121H27.2969V69.1694H29.0541V67.4121Z" fill="white"/>
<path d="M30.7592 67.4121H29.002V69.1694H30.7592V67.4121Z" fill="white"/>
<path d="M32.4672 67.4121H30.71V69.1694H32.4672V67.4121Z" fill="white"/>
<path d="M37.5844 67.4121H35.8271V69.1694H37.5844V67.4121Z" fill="white"/>
<path d="M39.2914 67.4121H37.5342V69.1694H39.2914V67.4121Z" fill="white"/>
<path d="M40.9965 67.4121H39.2393V69.1694H40.9965V67.4121Z" fill="white"/>
<path d="M42.7035 67.4121H40.9463V69.1694H42.7035V67.4121Z" fill="white"/>
<path d="M44.4086 67.4121H42.6514V69.1694H44.4086V67.4121Z" fill="white"/>
<path d="M47.8207 67.4121H46.0635V69.1694H47.8207V67.4121Z" fill="white"/>
<path d="M49.5278 67.4121H47.7705V69.1694H49.5278V67.4121Z" fill="white"/>
<path d="M54.6449 67.4121H52.8877V69.1694H54.6449V67.4121Z" fill="white"/>
<path d="M56.352 67.4121H54.5947V69.1694H56.352V67.4121Z" fill="white"/>
<path d="M15.4057 69.1172H13.6484V70.8744H15.4057V69.1172Z" fill="white"/>
<path d="M20.5229 69.1172H18.7656V70.8744H20.5229V69.1172Z" fill="white"/>
<path d="M22.2299 69.1172H20.4727V70.8744H22.2299V69.1172Z" fill="white"/>
<path d="M25.642 69.1172H23.8848V70.8744H25.642V69.1172Z" fill="white"/>
<path d="M34.1723 69.1172H32.415V70.8744H34.1723V69.1172Z" fill="white"/>
<path d="M37.5844 69.1172H35.8271V70.8744H37.5844V69.1172Z" fill="white"/>
<path d="M46.1156 69.1172H44.3584V70.8744H46.1156V69.1172Z" fill="white"/>
<path d="M47.8207 69.1172H46.0635V70.8744H47.8207V69.1172Z" fill="white"/>
<path d="M51.2328 69.1172H49.4756V70.8744H51.2328V69.1172Z" fill="white"/>
<path d="M54.6449 69.1172H52.8877V70.8744H54.6449V69.1172Z" fill="white"/>
<path d="M15.4057 70.8242H13.6484V72.5815H15.4057V70.8242Z" fill="white"/>
<path d="M17.1108 70.8242H15.3535V72.5815H17.1108V70.8242Z" fill="white"/>
<path d="M18.8178 70.8242H17.0605V72.5815H18.8178V70.8242Z" fill="white"/>
<path d="M22.2299 70.8242H20.4727V72.5815H22.2299V70.8242Z" fill="white"/>
<path d="M27.3471 70.8242H25.5898V72.5815H27.3471V70.8242Z" fill="white"/>
<path d="M30.7592 70.8242H29.002V72.5815H30.7592V70.8242Z" fill="white"/>
<path d="M32.4672 70.8242H30.71V72.5815H32.4672V70.8242Z" fill="white"/>
<path d="M34.1723 70.8242H32.415V72.5815H34.1723V70.8242Z" fill="white"/>
<path d="M35.8793 70.8242H34.1221V72.5815H35.8793V70.8242Z" fill="white"/>
<path d="M37.5844 70.8242H35.8271V72.5815H37.5844V70.8242Z" fill="white"/>
<path d="M39.2914 70.8242H37.5342V72.5815H39.2914V70.8242Z" fill="white"/>
<path d="M40.9965 70.8242H39.2393V72.5815H40.9965V70.8242Z" fill="white"/>
<path d="M42.7035 70.8242H40.9463V72.5815H42.7035V70.8242Z" fill="white"/>
<path d="M49.5278 70.8242H47.7705V72.5815H49.5278V70.8242Z" fill="white"/>
<path d="M54.6449 70.8242H52.8877V72.5815H54.6449V70.8242Z" fill="white"/>
<path d="M56.352 70.8242H54.5947V72.5815H56.352V70.8242Z" fill="white"/>
<path d="M15.4057 72.5293H13.6484V74.2865H15.4057V72.5293Z" fill="white"/>
<path d="M20.5229 72.5293H18.7656V74.2865H20.5229V72.5293Z" fill="white"/>
<path d="M27.3471 72.5293H25.5898V74.2865H27.3471V72.5293Z" fill="white"/>
<path d="M30.7592 72.5293H29.002V74.2865H30.7592V72.5293Z" fill="white"/>
<path d="M37.5844 72.5293H35.8271V74.2865H37.5844V72.5293Z" fill="white"/>
<path d="M39.2914 72.5293H37.5342V74.2865H39.2914V72.5293Z" fill="white"/>
<path d="M42.7035 72.5293H40.9463V74.2865H42.7035V72.5293Z" fill="white"/>
<path d="M44.4086 72.5293H42.6514V74.2865H44.4086V72.5293Z" fill="white"/>
<path d="M46.1156 72.5293H44.3584V74.2865H46.1156V72.5293Z" fill="white"/>
<path d="M47.8207 72.5293H46.0635V74.2865H47.8207V72.5293Z" fill="white"/>
<path d="M49.5278 72.5293H47.7705V74.2865H49.5278V72.5293Z" fill="white"/>
<path d="M52.9399 72.5293H51.1826V74.2865H52.9399V72.5293Z" fill="white"/>
<path d="M56.352 72.5293H54.5947V74.2865H56.352V72.5293Z" fill="white"/>
<path d="M15.4057 74.2363H13.6484V75.9936H15.4057V74.2363Z" fill="white"/>
<path d="M18.8178 74.2363H17.0605V75.9936H18.8178V74.2363Z" fill="white"/>
<path d="M22.2299 74.2363H20.4727V75.9936H22.2299V74.2363Z" fill="white"/>
<path d="M25.642 74.2363H23.8848V75.9936H25.642V74.2363Z" fill="white"/>
<path d="M29.0541 74.2363H27.2969V75.9936H29.0541V74.2363Z" fill="white"/>
<path d="M32.4672 74.2363H30.71V75.9936H32.4672V74.2363Z" fill="white"/>
<path d="M35.8793 74.2363H34.1221V75.9936H35.8793V74.2363Z" fill="white"/>
<path d="M39.2914 74.2363H37.5342V75.9936H39.2914V74.2363Z" fill="white"/>
<path d="M42.7035 74.2363H40.9463V75.9936H42.7035V74.2363Z" fill="white"/>
<path d="M46.1156 74.2363H44.3584V75.9936H46.1156V74.2363Z" fill="white"/>
<path d="M49.5278 74.2363H47.7705V75.9936H49.5278V74.2363Z" fill="white"/>
<path d="M52.9399 74.2363H51.1826V75.9936H52.9399V74.2363Z" fill="white"/>
<path d="M56.352 74.2363H54.5947V75.9936H56.352V74.2363Z" fill="white"/>
<path d="M15.4057 75.9414H13.6484V77.6987H15.4057V75.9414Z" fill="white"/>
<path d="M17.1108 75.9414H15.3535V77.6987H17.1108V75.9414Z" fill="white"/>
<path d="M20.5229 75.9414H18.7656V77.6987H20.5229V75.9414Z" fill="white"/>
<path d="M22.2299 75.9414H20.4727V77.6987H22.2299V75.9414Z" fill="white"/>
<path d="M23.935 75.9414H22.1777V77.6987H23.935V75.9414Z" fill="white"/>
<path d="M25.642 75.9414H23.8848V77.6987H25.642V75.9414Z" fill="white"/>
<path d="M29.0541 75.9414H27.2969V77.6987H29.0541V75.9414Z" fill="white"/>
<path d="M34.1723 75.9414H32.415V77.6987H34.1723V75.9414Z" fill="white"/>
<path d="M35.8793 75.9414H34.1221V77.6987H35.8793V75.9414Z" fill="white"/>
<path d="M37.5844 75.9414H35.8271V77.6987H37.5844V75.9414Z" fill="white"/>
<path d="M39.2914 75.9414H37.5342V77.6987H39.2914V75.9414Z" fill="white"/>
<path d="M46.1156 75.9414H44.3584V77.6987H46.1156V75.9414Z" fill="white"/>
<path d="M47.8207 75.9414H46.0635V77.6987H47.8207V75.9414Z" fill="white"/>
<path d="M52.9399 75.9414H51.1826V77.6987H52.9399V75.9414Z" fill="white"/>
<path d="M54.6449 75.9414H52.8877V77.6987H54.6449V75.9414Z" fill="white"/>
<path d="M56.352 75.9414H54.5947V77.6987H56.352V75.9414Z" fill="white"/>
<path d="M1.75725 77.6484H0V79.4057H1.75725V77.6484Z" fill="white"/>
<path d="M5.16936 77.6484H3.41211V79.4057H5.16936V77.6484Z" fill="white"/>
<path d="M6.87444 77.6484H5.11719V79.4057H6.87444V77.6484Z" fill="white"/>
<path d="M8.58147 77.6484H6.82422V79.4057H8.58147V77.6484Z" fill="white"/>
<path d="M10.2865 77.6484H8.5293V79.4057H10.2865V77.6484Z" fill="white"/>
<path d="M11.9936 77.6484H10.2363V79.4057H11.9936V77.6484Z" fill="white"/>
<path d="M17.1108 77.6484H15.3535V79.4057H17.1108V77.6484Z" fill="white"/>
<path d="M23.935 77.6484H22.1777V79.4057H23.935V77.6484Z" fill="white"/>
<path d="M25.642 77.6484H23.8848V79.4057H25.642V77.6484Z" fill="white"/>
<path d="M27.3471 77.6484H25.5898V79.4057H27.3471V77.6484Z" fill="white"/>
<path d="M30.7592 77.6484H29.002V79.4057H30.7592V77.6484Z" fill="white"/>
<path d="M34.1723 77.6484H32.415V79.4057H34.1723V77.6484Z" fill="white"/>
<path d="M42.7035 77.6484H40.9463V79.4057H42.7035V77.6484Z" fill="white"/>
<path d="M44.4086 77.6484H42.6514V79.4057H44.4086V77.6484Z" fill="white"/>
<path d="M46.1156 77.6484H44.3584V79.4057H46.1156V77.6484Z" fill="white"/>
<path d="M51.2328 77.6484H49.4756V79.4057H51.2328V77.6484Z" fill="white"/>
<path d="M54.6449 77.6484H52.8877V79.4057H54.6449V77.6484Z" fill="white"/>
<path d="M56.352 77.6484H54.5947V79.4057H56.352V77.6484Z" fill="white"/>
<path d="M59.7641 77.6484H58.0068V79.4057H59.7641V77.6484Z" fill="white"/>
<path d="M61.4692 77.6484H59.7119V79.4057H61.4692V77.6484Z" fill="white"/>
<path d="M63.1762 77.6484H61.4189V79.4057H63.1762V77.6484Z" fill="white"/>
<path d="M64.8813 77.6484H63.124V79.4057H64.8813V77.6484Z" fill="white"/>
<path d="M66.5883 77.6484H64.8311V79.4057H66.5883V77.6484Z" fill="white"/>
<path d="M3.46233 79.3535H1.70508V81.1108H3.46233V79.3535Z" fill="white"/>
<path d="M5.16936 79.3535H3.41211V81.1108H5.16936V79.3535Z" fill="white"/>
<path d="M8.58147 79.3535H6.82422V81.1108H8.58147V79.3535Z" fill="white"/>
<path d="M13.6987 79.3535H11.9414V81.1108H13.6987V79.3535Z" fill="white"/>
<path d="M17.1108 79.3535H15.3535V81.1108H17.1108V79.3535Z" fill="white"/>
<path d="M20.5229 79.3535H18.7656V81.1108H20.5229V79.3535Z" fill="white"/>
<path d="M22.2299 79.3535H20.4727V81.1108H22.2299V79.3535Z" fill="white"/>
<path d="M27.3471 79.3535H25.5898V81.1108H27.3471V79.3535Z" fill="white"/>
<path d="M34.1723 79.3535H32.415V81.1108H34.1723V79.3535Z" fill="white"/>
<path d="M40.9965 79.3535H39.2393V81.1108H40.9965V79.3535Z" fill="white"/>
<path d="M44.4086 79.3535H42.6514V81.1108H44.4086V79.3535Z" fill="white"/>
<path d="M49.5278 79.3535H47.7705V81.1108H49.5278V79.3535Z" fill="white"/>
<path d="M52.9399 79.3535H51.1826V81.1108H52.9399V79.3535Z" fill="white"/>
<path d="M54.6449 79.3535H52.8877V81.1108H54.6449V79.3535Z" fill="white"/>
<path d="M56.352 79.3535H54.5947V81.1108H56.352V79.3535Z" fill="white"/>
<path d="M59.7641 79.3535H58.0068V81.1108H59.7641V79.3535Z" fill="white"/>
<path d="M61.4692 79.3535H59.7119V81.1108H61.4692V79.3535Z" fill="white"/>
<path d="M63.1762 79.3535H61.4189V81.1108H63.1762V79.3535Z" fill="white"/>
<path d="M66.5883 79.3535H64.8311V81.1108H66.5883V79.3535Z" fill="white"/>
<path d="M70.0004 79.3535H68.2432V81.1108H70.0004V79.3535Z" fill="white"/>
<path d="M3.46233 81.0605H1.70508V82.8178H3.46233V81.0605Z" fill="white"/>
<path d="M8.58147 81.0605H6.82422V82.8178H8.58147V81.0605Z" fill="white"/>
<path d="M10.2865 81.0605H8.5293V82.8178H10.2865V81.0605Z" fill="white"/>
<path d="M11.9936 81.0605H10.2363V82.8178H11.9936V81.0605Z" fill="white"/>
<path d="M13.6987 81.0605H11.9414V82.8178H13.6987V81.0605Z" fill="white"/>
<path d="M15.4057 81.0605H13.6484V82.8178H15.4057V81.0605Z" fill="white"/>
<path d="M18.8178 81.0605H17.0605V82.8178H18.8178V81.0605Z" fill="white"/>
<path d="M20.5229 81.0605H18.7656V82.8178H20.5229V81.0605Z" fill="white"/>
<path d="M25.642 81.0605H23.8848V82.8178H25.642V81.0605Z" fill="white"/>
<path d="M29.0541 81.0605H27.2969V82.8178H29.0541V81.0605Z" fill="white"/>
<path d="M32.4672 81.0605H30.71V82.8178H32.4672V81.0605Z" fill="white"/>
<path d="M35.8793 81.0605H34.1221V82.8178H35.8793V81.0605Z" fill="white"/>
<path d="M37.5844 81.0605H35.8271V82.8178H37.5844V81.0605Z" fill="white"/>
<path d="M39.2914 81.0605H37.5342V82.8178H39.2914V81.0605Z" fill="white"/>
<path d="M42.7035 81.0605H40.9463V82.8178H42.7035V81.0605Z" fill="white"/>
<path d="M46.1156 81.0605H44.3584V82.8178H46.1156V81.0605Z" fill="white"/>
<path d="M47.8207 81.0605H46.0635V82.8178H47.8207V81.0605Z" fill="white"/>
<path d="M56.352 81.0605H54.5947V82.8178H56.352V81.0605Z" fill="white"/>
<path d="M58.0571 81.0605H56.2998V82.8178H58.0571V81.0605Z" fill="white"/>
<path d="M61.4692 81.0605H59.7119V82.8178H61.4692V81.0605Z" fill="white"/>
<path d="M63.1762 81.0605H61.4189V82.8178H63.1762V81.0605Z" fill="white"/>
<path d="M68.2934 81.0605H66.5361V82.8178H68.2934V81.0605Z" fill="white"/>
<path d="M10.2865 82.7656H8.5293V84.5229H10.2865V82.7656Z" fill="white"/>
<path d="M15.4057 82.7656H13.6484V84.5229H15.4057V82.7656Z" fill="white"/>
<path d="M17.1108 82.7656H15.3535V84.5229H17.1108V82.7656Z" fill="white"/>
<path d="M18.8178 82.7656H17.0605V84.5229H18.8178V82.7656Z" fill="white"/>
<path d="M20.5229 82.7656H18.7656V84.5229H20.5229V82.7656Z" fill="white"/>
<path d="M23.935 82.7656H22.1777V84.5229H23.935V82.7656Z" fill="white"/>
<path d="M29.0541 82.7656H27.2969V84.5229H29.0541V82.7656Z" fill="white"/>
<path d="M35.8793 82.7656H34.1221V84.5229H35.8793V82.7656Z" fill="white"/>
<path d="M37.5844 82.7656H35.8271V84.5229H37.5844V82.7656Z" fill="white"/>
<path d="M39.2914 82.7656H37.5342V84.5229H39.2914V82.7656Z" fill="white"/>
<path d="M49.5278 82.7656H47.7705V84.5229H49.5278V82.7656Z" fill="white"/>
<path d="M52.9399 82.7656H51.1826V84.5229H52.9399V82.7656Z" fill="white"/>
<path d="M54.6449 82.7656H52.8877V84.5229H54.6449V82.7656Z" fill="white"/>
<path d="M56.352 82.7656H54.5947V84.5229H56.352V82.7656Z" fill="white"/>
<path d="M58.0571 82.7656H56.2998V84.5229H58.0571V82.7656Z" fill="white"/>
<path d="M59.7641 82.7656H58.0068V84.5229H59.7641V82.7656Z" fill="white"/>
<path d="M61.4692 82.7656H59.7119V84.5229H61.4692V82.7656Z" fill="white"/>
<path d="M63.1762 82.7656H61.4189V84.5229H63.1762V82.7656Z" fill="white"/>
<path d="M64.8813 82.7656H63.124V84.5229H64.8813V82.7656Z" fill="white"/>
<path d="M68.2934 82.7656H66.5361V84.5229H68.2934V82.7656Z" fill="white"/>
<path d="M1.75725 84.4727H0V86.2299H1.75725V84.4727Z" fill="white"/>
<path d="M3.46233 84.4727H1.70508V86.2299H3.46233V84.4727Z" fill="white"/>
<path d="M5.16936 84.4727H3.41211V86.2299H5.16936V84.4727Z" fill="white"/>
<path d="M8.58147 84.4727H6.82422V86.2299H8.58147V84.4727Z" fill="white"/>
<path d="M10.2865 84.4727H8.5293V86.2299H10.2865V84.4727Z" fill="white"/>
<path d="M11.9936 84.4727H10.2363V86.2299H11.9936V84.4727Z" fill="white"/>
<path d="M17.1108 84.4727H15.3535V86.2299H17.1108V84.4727Z" fill="white"/>
<path d="M18.8178 84.4727H17.0605V86.2299H18.8178V84.4727Z" fill="white"/>
<path d="M20.5229 84.4727H18.7656V86.2299H20.5229V84.4727Z" fill="white"/>
<path d="M27.3471 84.4727H25.5898V86.2299H27.3471V84.4727Z" fill="white"/>
<path d="M30.7592 84.4727H29.002V86.2299H30.7592V84.4727Z" fill="white"/>
<path d="M34.1723 84.4727H32.415V86.2299H34.1723V84.4727Z" fill="white"/>
<path d="M35.8793 84.4727H34.1221V86.2299H35.8793V84.4727Z" fill="white"/>
<path d="M39.2914 84.4727H37.5342V86.2299H39.2914V84.4727Z" fill="white"/>
<path d="M40.9965 84.4727H39.2393V86.2299H40.9965V84.4727Z" fill="white"/>
<path d="M42.7035 84.4727H40.9463V86.2299H42.7035V84.4727Z" fill="white"/>
<path d="M44.4086 84.4727H42.6514V86.2299H44.4086V84.4727Z" fill="white"/>
<path d="M46.1156 84.4727H44.3584V86.2299H46.1156V84.4727Z" fill="white"/>
<path d="M49.5278 84.4727H47.7705V86.2299H49.5278V84.4727Z" fill="white"/>
<path d="M51.2328 84.4727H49.4756V86.2299H51.2328V84.4727Z" fill="white"/>
<path d="M54.6449 84.4727H52.8877V86.2299H54.6449V84.4727Z" fill="white"/>
<path d="M61.4692 84.4727H59.7119V86.2299H61.4692V84.4727Z" fill="white"/>
<path d="M64.8813 84.4727H63.124V86.2299H64.8813V84.4727Z" fill="white"/>
<path d="M66.5883 84.4727H64.8311V86.2299H66.5883V84.4727Z" fill="white"/>
<path d="M1.75725 86.1777H0V87.935H1.75725V86.1777Z" fill="white"/>
<path d="M3.46233 86.1777H1.70508V87.935H3.46233V86.1777Z" fill="white"/>
<path d="M5.16936 86.1777H3.41211V87.935H5.16936V86.1777Z" fill="white"/>
<path d="M13.6987 86.1777H11.9414V87.935H13.6987V86.1777Z" fill="white"/>
<path d="M15.4057 86.1777H13.6484V87.935H15.4057V86.1777Z" fill="white"/>
<path d="M17.1108 86.1777H15.3535V87.935H17.1108V86.1777Z" fill="white"/>
<path d="M18.8178 86.1777H17.0605V87.935H18.8178V86.1777Z" fill="white"/>
<path d="M23.935 86.1777H22.1777V87.935H23.935V86.1777Z" fill="white"/>
<path d="M27.3471 86.1777H25.5898V87.935H27.3471V86.1777Z" fill="white"/>
<path d="M37.5844 86.1777H35.8271V87.935H37.5844V86.1777Z" fill="white"/>
<path d="M44.4086 86.1777H42.6514V87.935H44.4086V86.1777Z" fill="white"/>
<path d="M46.1156 86.1777H44.3584V87.935H46.1156V86.1777Z" fill="white"/>
<path d="M47.8207 86.1777H46.0635V87.935H47.8207V86.1777Z" fill="white"/>
<path d="M52.9399 86.1777H51.1826V87.935H52.9399V86.1777Z" fill="white"/>
<path d="M54.6449 86.1777H52.8877V87.935H54.6449V86.1777Z" fill="white"/>
<path d="M56.352 86.1777H54.5947V87.935H56.352V86.1777Z" fill="white"/>
<path d="M61.4692 86.1777H59.7119V87.935H61.4692V86.1777Z" fill="white"/>
<path d="M63.1762 86.1777H61.4189V87.935H63.1762V86.1777Z" fill="white"/>
<path d="M68.2934 86.1777H66.5361V87.935H68.2934V86.1777Z" fill="white"/>
<path d="M70.0004 86.1777H68.2432V87.935H70.0004V86.1777Z" fill="white"/>
<path d="M3.46233 87.8848H1.70508V89.642H3.46233V87.8848Z" fill="white"/>
<path d="M5.16936 87.8848H3.41211V89.642H5.16936V87.8848Z" fill="white"/>
<path d="M8.58147 87.8848H6.82422V89.642H8.58147V87.8848Z" fill="white"/>
<path d="M10.2865 87.8848H8.5293V89.642H10.2865V87.8848Z" fill="white"/>
<path d="M11.9936 87.8848H10.2363V89.642H11.9936V87.8848Z" fill="white"/>
<path d="M15.4057 87.8848H13.6484V89.642H15.4057V87.8848Z" fill="white"/>
<path d="M27.3471 87.8848H25.5898V89.642H27.3471V87.8848Z" fill="white"/>
<path d="M30.7592 87.8848H29.002V89.642H30.7592V87.8848Z" fill="white"/>
<path d="M35.8793 87.8848H34.1221V89.642H35.8793V87.8848Z" fill="white"/>
<path d="M37.5844 87.8848H35.8271V89.642H37.5844V87.8848Z" fill="white"/>
<path d="M40.9965 87.8848H39.2393V89.642H40.9965V87.8848Z" fill="white"/>
<path d="M42.7035 87.8848H40.9463V89.642H42.7035V87.8848Z" fill="white"/>
<path d="M44.4086 87.8848H42.6514V89.642H44.4086V87.8848Z" fill="white"/>
<path d="M46.1156 87.8848H44.3584V89.642H46.1156V87.8848Z" fill="white"/>
<path d="M47.8207 87.8848H46.0635V89.642H47.8207V87.8848Z" fill="white"/>
<path d="M49.5278 87.8848H47.7705V89.642H49.5278V87.8848Z" fill="white"/>
<path d="M58.0571 87.8848H56.2998V89.642H58.0571V87.8848Z" fill="white"/>
<path d="M61.4692 87.8848H59.7119V89.642H61.4692V87.8848Z" fill="white"/>
<path d="M63.1762 87.8848H61.4189V89.642H63.1762V87.8848Z" fill="white"/>
<path d="M66.5883 87.8848H64.8311V89.642H66.5883V87.8848Z" fill="white"/>
<path d="M1.75725 89.5898H0V91.3471H1.75725V89.5898Z" fill="white"/>
<path d="M10.2865 89.5898H8.5293V91.3471H10.2865V89.5898Z" fill="white"/>
<path d="M15.4057 89.5898H13.6484V91.3471H15.4057V89.5898Z" fill="white"/>
<path d="M18.8178 89.5898H17.0605V91.3471H18.8178V89.5898Z" fill="white"/>
<path d="M22.2299 89.5898H20.4727V91.3471H22.2299V89.5898Z" fill="white"/>
<path d="M27.3471 89.5898H25.5898V91.3471H27.3471V89.5898Z" fill="white"/>
<path d="M37.5844 89.5898H35.8271V91.3471H37.5844V89.5898Z" fill="white"/>
<path d="M39.2914 89.5898H37.5342V91.3471H39.2914V89.5898Z" fill="white"/>
<path d="M40.9965 89.5898H39.2393V91.3471H40.9965V89.5898Z" fill="white"/>
<path d="M46.1156 89.5898H44.3584V91.3471H46.1156V89.5898Z" fill="white"/>
<path d="M47.8207 89.5898H46.0635V91.3471H47.8207V89.5898Z" fill="white"/>
<path d="M52.9399 89.5898H51.1826V91.3471H52.9399V89.5898Z" fill="white"/>
<path d="M59.7641 89.5898H58.0068V91.3471H59.7641V89.5898Z" fill="white"/>
<path d="M63.1762 89.5898H61.4189V91.3471H63.1762V89.5898Z" fill="white"/>
<path d="M64.8813 89.5898H63.124V91.3471H64.8813V89.5898Z" fill="white"/>
<path d="M68.2934 89.5898H66.5361V91.3471H68.2934V89.5898Z" fill="white"/>
<path d="M70.0004 89.5898H68.2432V91.3471H70.0004V89.5898Z" fill="white"/>
<path d="M1.75725 91.2969H0V93.0541H1.75725V91.2969Z" fill="white"/>
<path d="M5.16936 91.2969H3.41211V93.0541H5.16936V91.2969Z" fill="white"/>
<path d="M6.87444 91.2969H5.11719V93.0541H6.87444V91.2969Z" fill="white"/>
<path d="M11.9936 91.2969H10.2363V93.0541H11.9936V91.2969Z" fill="white"/>
<path d="M15.4057 91.2969H13.6484V93.0541H15.4057V91.2969Z" fill="white"/>
<path d="M17.1108 91.2969H15.3535V93.0541H17.1108V91.2969Z" fill="white"/>
<path d="M18.8178 91.2969H17.0605V93.0541H18.8178V91.2969Z" fill="white"/>
<path d="M20.5229 91.2969H18.7656V93.0541H20.5229V91.2969Z" fill="white"/>
<path d="M22.2299 91.2969H20.4727V93.0541H22.2299V91.2969Z" fill="white"/>
<path d="M23.935 91.2969H22.1777V93.0541H23.935V91.2969Z" fill="white"/>
<path d="M27.3471 91.2969H25.5898V93.0541H27.3471V91.2969Z" fill="white"/>
<path d="M29.0541 91.2969H27.2969V93.0541H29.0541V91.2969Z" fill="white"/>
<path d="M30.7592 91.2969H29.002V93.0541H30.7592V91.2969Z" fill="white"/>
<path d="M39.2914 91.2969H37.5342V93.0541H39.2914V91.2969Z" fill="white"/>
<path d="M40.9965 91.2969H39.2393V93.0541H40.9965V91.2969Z" fill="white"/>
<path d="M42.7035 91.2969H40.9463V93.0541H42.7035V91.2969Z" fill="white"/>
<path d="M44.4086 91.2969H42.6514V93.0541H44.4086V91.2969Z" fill="white"/>
<path d="M46.1156 91.2969H44.3584V93.0541H46.1156V91.2969Z" fill="white"/>
<path d="M47.8207 91.2969H46.0635V93.0541H47.8207V91.2969Z" fill="white"/>
<path d="M49.5278 91.2969H47.7705V93.0541H49.5278V91.2969Z" fill="white"/>
<path d="M51.2328 91.2969H49.4756V93.0541H51.2328V91.2969Z" fill="white"/>
<path d="M54.6449 91.2969H52.8877V93.0541H54.6449V91.2969Z" fill="white"/>
<path d="M58.0571 91.2969H56.2998V93.0541H58.0571V91.2969Z" fill="white"/>
<path d="M61.4692 91.2969H59.7119V93.0541H61.4692V91.2969Z" fill="white"/>
<path d="M66.5883 91.2969H64.8311V93.0541H66.5883V91.2969Z" fill="white"/>
<path d="M68.2934 91.2969H66.5361V93.0541H68.2934V91.2969Z" fill="white"/>
<path d="M15.4057 93.002H13.6484V94.7592H15.4057V93.002Z" fill="white"/>
<path d="M17.1108 93.002H15.3535V94.7592H17.1108V93.002Z" fill="white"/>
<path d="M18.8178 93.002H17.0605V94.7592H18.8178V93.002Z" fill="white"/>
<path d="M20.5229 93.002H18.7656V94.7592H20.5229V93.002Z" fill="white"/>
<path d="M22.2299 93.002H20.4727V94.7592H22.2299V93.002Z" fill="white"/>
<path d="M23.935 93.002H22.1777V94.7592H23.935V93.002Z" fill="white"/>
<path d="M25.642 93.002H23.8848V94.7592H25.642V93.002Z" fill="white"/>
<path d="M29.0541 93.002H27.2969V94.7592H29.0541V93.002Z" fill="white"/>
<path d="M32.4672 93.002H30.71V94.7592H32.4672V93.002Z" fill="white"/>
<path d="M34.1723 93.002H32.415V94.7592H34.1723V93.002Z" fill="white"/>
<path d="M35.8793 93.002H34.1221V94.7592H35.8793V93.002Z" fill="white"/>
<path d="M40.9965 93.002H39.2393V94.7592H40.9965V93.002Z" fill="white"/>
<path d="M46.1156 93.002H44.3584V94.7592H46.1156V93.002Z" fill="white"/>
<path d="M49.5278 93.002H47.7705V94.7592H49.5278V93.002Z" fill="white"/>
<path d="M52.9399 93.002H51.1826V94.7592H52.9399V93.002Z" fill="white"/>
<path d="M54.6449 93.002H52.8877V94.7592H54.6449V93.002Z" fill="white"/>
<path d="M56.352 93.002H54.5947V94.7592H56.352V93.002Z" fill="white"/>
<path d="M59.7641 93.002H58.0068V94.7592H59.7641V93.002Z" fill="white"/>
<path d="M61.4692 93.002H59.7119V94.7592H61.4692V93.002Z" fill="white"/>
<path d="M63.1762 93.002H61.4189V94.7592H63.1762V93.002Z" fill="white"/>
<path d="M64.8813 93.002H63.124V94.7592H64.8813V93.002Z" fill="white"/>
<path d="M70.0004 93.002H68.2432V94.7592H70.0004V93.002Z" fill="white"/>
<path d="M1.75725 94.709H0V96.4662H1.75725V94.709Z" fill="white"/>
<path d="M5.16936 94.709H3.41211V96.4662H5.16936V94.709Z" fill="white"/>
<path d="M8.58147 94.709H6.82422V96.4662H8.58147V94.709Z" fill="white"/>
<path d="M11.9936 94.709H10.2363V96.4662H11.9936V94.709Z" fill="white"/>
<path d="M13.6987 94.709H11.9414V96.4662H13.6987V94.709Z" fill="white"/>
<path d="M15.4057 94.709H13.6484V96.4662H15.4057V94.709Z" fill="white"/>
<path d="M20.5229 94.709H18.7656V96.4662H20.5229V94.709Z" fill="white"/>
<path d="M22.2299 94.709H20.4727V96.4662H22.2299V94.709Z" fill="white"/>
<path d="M23.935 94.709H22.1777V96.4662H23.935V94.709Z" fill="white"/>
<path d="M27.3471 94.709H25.5898V96.4662H27.3471V94.709Z" fill="white"/>
<path d="M32.4672 94.709H30.71V96.4662H32.4672V94.709Z" fill="white"/>
<path d="M35.8793 94.709H34.1221V96.4662H35.8793V94.709Z" fill="white"/>
<path d="M39.2914 94.709H37.5342V96.4662H39.2914V94.709Z" fill="white"/>
<path d="M42.7035 94.709H40.9463V96.4662H42.7035V94.709Z" fill="white"/>
<path d="M47.8207 94.709H46.0635V96.4662H47.8207V94.709Z" fill="white"/>
<path d="M49.5278 94.709H47.7705V96.4662H49.5278V94.709Z" fill="white"/>
<path d="M51.2328 94.709H49.4756V96.4662H51.2328V94.709Z" fill="white"/>
<path d="M52.9399 94.709H51.1826V96.4662H52.9399V94.709Z" fill="white"/>
<path d="M56.352 94.709H54.5947V96.4662H56.352V94.709Z" fill="white"/>
<path d="M58.0571 94.709H56.2998V96.4662H58.0571V94.709Z" fill="white"/>
<path d="M63.1762 94.709H61.4189V96.4662H63.1762V94.709Z" fill="white"/>
<path d="M64.8813 94.709H63.124V96.4662H64.8813V94.709Z" fill="white"/>
<path d="M1.75725 96.4141H0V98.1713H1.75725V96.4141Z" fill="white"/>
<path d="M8.58147 96.4141H6.82422V98.1713H8.58147V96.4141Z" fill="white"/>
<path d="M15.4057 96.4141H13.6484V98.1713H15.4057V96.4141Z" fill="white"/>
<path d="M22.2299 96.4141H20.4727V98.1713H22.2299V96.4141Z" fill="white"/>
<path d="M27.3471 96.4141H25.5898V98.1713H27.3471V96.4141Z" fill="white"/>
<path d="M29.0541 96.4141H27.2969V98.1713H29.0541V96.4141Z" fill="white"/>
<path d="M42.7035 96.4141H40.9463V98.1713H42.7035V96.4141Z" fill="white"/>
<path d="M46.1156 96.4141H44.3584V98.1713H46.1156V96.4141Z" fill="white"/>
<path d="M47.8207 96.4141H46.0635V98.1713H47.8207V96.4141Z" fill="white"/>
<path d="M52.9399 96.4141H51.1826V98.1713H52.9399V96.4141Z" fill="white"/>
<path d="M56.352 96.4141H54.5947V98.1713H56.352V96.4141Z" fill="white"/>
<path d="M58.0571 96.4141H56.2998V98.1713H58.0571V96.4141Z" fill="white"/>
<path d="M63.1762 96.4141H61.4189V98.1713H63.1762V96.4141Z" fill="white"/>
<path d="M70.0004 96.4141H68.2432V98.1713H70.0004V96.4141Z" fill="white"/>
<path d="M5.16936 98.1211H3.41211V99.8783H5.16936V98.1211Z" fill="white"/>
<path d="M6.87444 98.1211H5.11719V99.8783H6.87444V98.1211Z" fill="white"/>
<path d="M8.58147 98.1211H6.82422V99.8783H8.58147V98.1211Z" fill="white"/>
<path d="M10.2865 98.1211H8.5293V99.8783H10.2865V98.1211Z" fill="white"/>
<path d="M11.9936 98.1211H10.2363V99.8783H11.9936V98.1211Z" fill="white"/>
<path d="M13.6987 98.1211H11.9414V99.8783H13.6987V98.1211Z" fill="white"/>
<path d="M15.4057 98.1211H13.6484V99.8783H15.4057V98.1211Z" fill="white"/>
<path d="M17.1108 98.1211H15.3535V99.8783H17.1108V98.1211Z" fill="white"/>
<path d="M23.935 98.1211H22.1777V99.8783H23.935V98.1211Z" fill="white"/>
<path d="M27.3471 98.1211H25.5898V99.8783H27.3471V98.1211Z" fill="white"/>
<path d="M32.4672 98.1211H30.71V99.8783H32.4672V98.1211Z" fill="white"/>
<path d="M37.5844 98.1211H35.8271V99.8783H37.5844V98.1211Z" fill="white"/>
<path d="M39.2914 98.1211H37.5342V99.8783H39.2914V98.1211Z" fill="white"/>
<path d="M42.7035 98.1211H40.9463V99.8783H42.7035V98.1211Z" fill="white"/>
<path d="M47.8207 98.1211H46.0635V99.8783H47.8207V98.1211Z" fill="white"/>
<path d="M51.2328 98.1211H49.4756V99.8783H51.2328V98.1211Z" fill="white"/>
<path d="M66.5883 98.1211H64.8311V99.8783H66.5883V98.1211Z" fill="white"/>
<path d="M70.0004 98.1211H68.2432V99.8783H70.0004V98.1211Z" fill="white"/>
<path d="M8.58147 99.8262H6.82422V101.583H8.58147V99.8262Z" fill="white"/>
<path d="M10.2865 99.8262H8.5293V101.583H10.2865V99.8262Z" fill="white"/>
<path d="M13.6987 99.8262H11.9414V101.583H13.6987V99.8262Z" fill="white"/>
<path d="M15.4057 99.8262H13.6484V101.583H15.4057V99.8262Z" fill="white"/>
<path d="M17.1108 99.8262H15.3535V101.583H17.1108V99.8262Z" fill="white"/>
<path d="M18.8178 99.8262H17.0605V101.583H18.8178V99.8262Z" fill="white"/>
<path d="M23.935 99.8262H22.1777V101.583H23.935V99.8262Z" fill="white"/>
<path d="M25.642 99.8262H23.8848V101.583H25.642V99.8262Z" fill="white"/>
<path d="M29.0541 99.8262H27.2969V101.583H29.0541V99.8262Z" fill="white"/>
<path d="M34.1723 99.8262H32.415V101.583H34.1723V99.8262Z" fill="white"/>
<path d="M40.9965 99.8262H39.2393V101.583H40.9965V99.8262Z" fill="white"/>
<path d="M44.4086 99.8262H42.6514V101.583H44.4086V99.8262Z" fill="white"/>
<path d="M46.1156 99.8262H44.3584V101.583H46.1156V99.8262Z" fill="white"/>
<path d="M49.5278 99.8262H47.7705V101.583H49.5278V99.8262Z" fill="white"/>
<path d="M51.2328 99.8262H49.4756V101.583H51.2328V99.8262Z" fill="white"/>
<path d="M52.9399 99.8262H51.1826V101.583H52.9399V99.8262Z" fill="white"/>
<path d="M54.6449 99.8262H52.8877V101.583H54.6449V99.8262Z" fill="white"/>
<path d="M59.7641 99.8262H58.0068V101.583H59.7641V99.8262Z" fill="white"/>
<path d="M61.4692 99.8262H59.7119V101.583H61.4692V99.8262Z" fill="white"/>
<path d="M63.1762 99.8262H61.4189V101.583H63.1762V99.8262Z" fill="white"/>
<path d="M64.8813 99.8262H63.124V101.583H64.8813V99.8262Z" fill="white"/>
<path d="M66.5883 99.8262H64.8311V101.583H66.5883V99.8262Z" fill="white"/>
<path d="M68.2934 99.8262H66.5361V101.583H68.2934V99.8262Z" fill="white"/>
<path d="M70.0004 99.8262H68.2432V101.583H70.0004V99.8262Z" fill="white"/>
<path d="M1.75725 101.533H0V103.29H1.75725V101.533Z" fill="white"/>
<path d="M3.46233 101.533H1.70508V103.29H3.46233V101.533Z" fill="white"/>
<path d="M8.58147 101.533H6.82422V103.29H8.58147V101.533Z" fill="white"/>
<path d="M10.2865 101.533H8.5293V103.29H10.2865V101.533Z" fill="white"/>
<path d="M11.9936 101.533H10.2363V103.29H11.9936V101.533Z" fill="white"/>
<path d="M13.6987 101.533H11.9414V103.29H13.6987V101.533Z" fill="white"/>
<path d="M15.4057 101.533H13.6484V103.29H15.4057V101.533Z" fill="white"/>
<path d="M25.642 101.533H23.8848V103.29H25.642V101.533Z" fill="white"/>
<path d="M30.7592 101.533H29.002V103.29H30.7592V101.533Z" fill="white"/>
<path d="M32.4672 101.533H30.71V103.29H32.4672V101.533Z" fill="white"/>
<path d="M35.8793 101.533H34.1221V103.29H35.8793V101.533Z" fill="white"/>
<path d="M39.2914 101.533H37.5342V103.29H39.2914V101.533Z" fill="white"/>
<path d="M44.4086 101.533H42.6514V103.29H44.4086V101.533Z" fill="white"/>
<path d="M46.1156 101.533H44.3584V103.29H46.1156V101.533Z" fill="white"/>
<path d="M47.8207 101.533H46.0635V103.29H47.8207V101.533Z" fill="white"/>
<path d="M49.5278 101.533H47.7705V103.29H49.5278V101.533Z" fill="white"/>
<path d="M56.352 101.533H54.5947V103.29H56.352V101.533Z" fill="white"/>
<path d="M61.4692 101.533H59.7119V103.29H61.4692V101.533Z" fill="white"/>
<path d="M63.1762 101.533H61.4189V103.29H63.1762V101.533Z" fill="white"/>
<path d="M64.8813 101.533H63.124V103.29H64.8813V101.533Z" fill="white"/>
<path d="M8.58147 103.238H6.82422V104.996H8.58147V103.238Z" fill="white"/>
<path d="M10.2865 103.238H8.5293V104.996H10.2865V103.238Z" fill="white"/>
<path d="M15.4057 103.238H13.6484V104.996H15.4057V103.238Z" fill="white"/>
<path d="M17.1108 103.238H15.3535V104.996H17.1108V103.238Z" fill="white"/>
<path d="M18.8178 103.238H17.0605V104.996H18.8178V103.238Z" fill="white"/>
<path d="M22.2299 103.238H20.4727V104.996H22.2299V103.238Z" fill="white"/>
<path d="M25.642 103.238H23.8848V104.996H25.642V103.238Z" fill="white"/>
<path d="M27.3471 103.238H25.5898V104.996H27.3471V103.238Z" fill="white"/>
<path d="M29.0541 103.238H27.2969V104.996H29.0541V103.238Z" fill="white"/>
<path d="M35.8793 103.238H34.1221V104.996H35.8793V103.238Z" fill="white"/>
<path d="M37.5844 103.238H35.8271V104.996H37.5844V103.238Z" fill="white"/>
<path d="M42.7035 103.238H40.9463V104.996H42.7035V103.238Z" fill="white"/>
<path d="M46.1156 103.238H44.3584V104.996H46.1156V103.238Z" fill="white"/>
<path d="M47.8207 103.238H46.0635V104.996H47.8207V103.238Z" fill="white"/>
<path d="M52.9399 103.238H51.1826V104.996H52.9399V103.238Z" fill="white"/>
<path d="M54.6449 103.238H52.8877V104.996H54.6449V103.238Z" fill="white"/>
<path d="M58.0571 103.238H56.2998V104.996H58.0571V103.238Z" fill="white"/>
<path d="M61.4692 103.238H59.7119V104.996H61.4692V103.238Z" fill="white"/>
<path d="M63.1762 103.238H61.4189V104.996H63.1762V103.238Z" fill="white"/>
<path d="M64.8813 103.238H63.124V104.996H64.8813V103.238Z" fill="white"/>
<path d="M70.0004 103.238H68.2432V104.996H70.0004V103.238Z" fill="white"/>
<path d="M1.75725 104.945H0V106.703H1.75725V104.945Z" fill="white"/>
<path d="M3.46233 104.945H1.70508V106.703H3.46233V104.945Z" fill="white"/>
<path d="M6.87444 104.945H5.11719V106.703H6.87444V104.945Z" fill="white"/>
<path d="M11.9936 104.945H10.2363V106.703H11.9936V104.945Z" fill="white"/>
<path d="M13.6987 104.945H11.9414V106.703H13.6987V104.945Z" fill="white"/>
<path d="M17.1108 104.945H15.3535V106.703H17.1108V104.945Z" fill="white"/>
<path d="M22.2299 104.945H20.4727V106.703H22.2299V104.945Z" fill="white"/>
<path d="M23.935 104.945H22.1777V106.703H23.935V104.945Z" fill="white"/>
<path d="M27.3471 104.945H25.5898V106.703H27.3471V104.945Z" fill="white"/>
<path d="M30.7592 104.945H29.002V106.703H30.7592V104.945Z" fill="white"/>
<path d="M34.1723 104.945H32.415V106.703H34.1723V104.945Z" fill="white"/>
<path d="M39.2914 104.945H37.5342V106.703H39.2914V104.945Z" fill="white"/>
<path d="M40.9965 104.945H39.2393V106.703H40.9965V104.945Z" fill="white"/>
<path d="M42.7035 104.945H40.9463V106.703H42.7035V104.945Z" fill="white"/>
<path d="M44.4086 104.945H42.6514V106.703H44.4086V104.945Z" fill="white"/>
<path d="M46.1156 104.945H44.3584V106.703H46.1156V104.945Z" fill="white"/>
<path d="M47.8207 104.945H46.0635V106.703H47.8207V104.945Z" fill="white"/>
<path d="M51.2328 104.945H49.4756V106.703H51.2328V104.945Z" fill="white"/>
<path d="M61.4692 104.945H59.7119V106.703H61.4692V104.945Z" fill="white"/>
<path d="M64.8813 104.945H63.124V106.703H64.8813V104.945Z" fill="white"/>
<path d="M66.5883 104.945H64.8311V106.703H66.5883V104.945Z" fill="white"/>
<path d="M68.2934 104.945H66.5361V106.703H68.2934V104.945Z" fill="white"/>
<path d="M70.0004 104.945H68.2432V106.703H70.0004V104.945Z" fill="white"/>
<path d="M1.75725 106.65H0V108.408H1.75725V106.65Z" fill="white"/>
<path d="M5.16936 106.65H3.41211V108.408H5.16936V106.65Z" fill="white"/>
<path d="M8.58147 106.65H6.82422V108.408H8.58147V106.65Z" fill="white"/>
<path d="M15.4057 106.65H13.6484V108.408H15.4057V106.65Z" fill="white"/>
<path d="M18.8178 106.65H17.0605V108.408H18.8178V106.65Z" fill="white"/>
<path d="M20.5229 106.65H18.7656V108.408H20.5229V106.65Z" fill="white"/>
<path d="M23.935 106.65H22.1777V108.408H23.935V106.65Z" fill="white"/>
<path d="M25.642 106.65H23.8848V108.408H25.642V106.65Z" fill="white"/>
<path d="M29.0541 106.65H27.2969V108.408H29.0541V106.65Z" fill="white"/>
<path d="M30.7592 106.65H29.002V108.408H30.7592V106.65Z" fill="white"/>
<path d="M34.1723 106.65H32.415V108.408H34.1723V106.65Z" fill="white"/>
<path d="M35.8793 106.65H34.1221V108.408H35.8793V106.65Z" fill="white"/>
<path d="M37.5844 106.65H35.8271V108.408H37.5844V106.65Z" fill="white"/>
<path d="M40.9965 106.65H39.2393V108.408H40.9965V106.65Z" fill="white"/>
<path d="M52.9399 106.65H51.1826V108.408H52.9399V106.65Z" fill="white"/>
<path d="M54.6449 106.65H52.8877V108.408H54.6449V106.65Z" fill="white"/>
<path d="M58.0571 106.65H56.2998V108.408H58.0571V106.65Z" fill="white"/>
<path d="M59.7641 106.65H58.0068V108.408H59.7641V106.65Z" fill="white"/>
<path d="M61.4692 106.65H59.7119V108.408H61.4692V106.65Z" fill="white"/>
<path d="M63.1762 106.65H61.4189V108.408H63.1762V106.65Z" fill="white"/>
<path d="M64.8813 106.65H63.124V108.408H64.8813V106.65Z" fill="white"/>
<path d="M68.2934 106.65H66.5361V108.408H68.2934V106.65Z" fill="white"/>
<path d="M70.0004 106.65H68.2432V108.408H70.0004V106.65Z" fill="white"/>
<path d="M1.75725 108.357H0V110.115H1.75725V108.357Z" fill="white"/>
<path d="M3.46233 108.357H1.70508V110.115H3.46233V108.357Z" fill="white"/>
<path d="M5.16936 108.357H3.41211V110.115H5.16936V108.357Z" fill="white"/>
<path d="M6.87444 108.357H5.11719V110.115H6.87444V108.357Z" fill="white"/>
<path d="M10.2865 108.357H8.5293V110.115H10.2865V108.357Z" fill="white"/>
<path d="M11.9936 108.357H10.2363V110.115H11.9936V108.357Z" fill="white"/>
<path d="M13.6987 108.357H11.9414V110.115H13.6987V108.357Z" fill="white"/>
<path d="M17.1108 108.357H15.3535V110.115H17.1108V108.357Z" fill="white"/>
<path d="M22.2299 108.357H20.4727V110.115H22.2299V108.357Z" fill="white"/>
<path d="M25.642 108.357H23.8848V110.115H25.642V108.357Z" fill="white"/>
<path d="M27.3471 108.357H25.5898V110.115H27.3471V108.357Z" fill="white"/>
<path d="M29.0541 108.357H27.2969V110.115H29.0541V108.357Z" fill="white"/>
<path d="M30.7592 108.357H29.002V110.115H30.7592V108.357Z" fill="white"/>
<path d="M32.4672 108.357H30.71V110.115H32.4672V108.357Z" fill="white"/>
<path d="M35.8793 108.357H34.1221V110.115H35.8793V108.357Z" fill="white"/>
<path d="M44.4086 108.357H42.6514V110.115H44.4086V108.357Z" fill="white"/>
<path d="M47.8207 108.357H46.0635V110.115H47.8207V108.357Z" fill="white"/>
<path d="M49.5278 108.357H47.7705V110.115H49.5278V108.357Z" fill="white"/>
<path d="M56.352 108.357H54.5947V110.115H56.352V108.357Z" fill="white"/>
<path d="M59.7641 108.357H58.0068V110.115H59.7641V108.357Z" fill="white"/>
<path d="M61.4692 108.357H59.7119V110.115H61.4692V108.357Z" fill="white"/>
<path d="M63.1762 108.357H61.4189V110.115H63.1762V108.357Z" fill="white"/>
<path d="M13.6987 110.062H11.9414V111.82H13.6987V110.062Z" fill="white"/>
<path d="M18.8178 110.062H17.0605V111.82H18.8178V110.062Z" fill="white"/>
<path d="M22.2299 110.062H20.4727V111.82H22.2299V110.062Z" fill="white"/>
<path d="M27.3471 110.062H25.5898V111.82H27.3471V110.062Z" fill="white"/>
<path d="M29.0541 110.062H27.2969V111.82H29.0541V110.062Z" fill="white"/>
<path d="M32.4672 110.062H30.71V111.82H32.4672V110.062Z" fill="white"/>
<path d="M34.1723 110.062H32.415V111.82H34.1723V110.062Z" fill="white"/>
<path d="M35.8793 110.062H34.1221V111.82H35.8793V110.062Z" fill="white"/>
<path d="M37.5844 110.062H35.8271V111.82H37.5844V110.062Z" fill="white"/>
<path d="M39.2914 110.062H37.5342V111.82H39.2914V110.062Z" fill="white"/>
<path d="M40.9965 110.062H39.2393V111.82H40.9965V110.062Z" fill="white"/>
<path d="M46.1156 110.062H44.3584V111.82H46.1156V110.062Z" fill="white"/>
<path d="M47.8207 110.062H46.0635V111.82H47.8207V110.062Z" fill="white"/>
<path d="M54.6449 110.062H52.8877V111.82H54.6449V110.062Z" fill="white"/>
<path d="M56.352 110.062H54.5947V111.82H56.352V110.062Z" fill="white"/>
<path d="M59.7641 110.062H58.0068V111.82H59.7641V110.062Z" fill="white"/>
<path d="M63.1762 110.062H61.4189V111.82H63.1762V110.062Z" fill="white"/>
<path d="M64.8813 110.062H63.124V111.82H64.8813V110.062Z" fill="white"/>
<path d="M3.46233 111.77H1.70508V113.527H3.46233V111.77Z" fill="white"/>
<path d="M5.16936 111.77H3.41211V113.527H5.16936V111.77Z" fill="white"/>
<path d="M8.58147 111.77H6.82422V113.527H8.58147V111.77Z" fill="white"/>
<path d="M10.2865 111.77H8.5293V113.527H10.2865V111.77Z" fill="white"/>
<path d="M11.9936 111.77H10.2363V113.527H11.9936V111.77Z" fill="white"/>
<path d="M13.6987 111.77H11.9414V113.527H13.6987V111.77Z" fill="white"/>
<path d="M15.4057 111.77H13.6484V113.527H15.4057V111.77Z" fill="white"/>
<path d="M18.8178 111.77H17.0605V113.527H18.8178V111.77Z" fill="white"/>
<path d="M22.2299 111.77H20.4727V113.527H22.2299V111.77Z" fill="white"/>
<path d="M25.642 111.77H23.8848V113.527H25.642V111.77Z" fill="white"/>
<path d="M29.0541 111.77H27.2969V113.527H29.0541V111.77Z" fill="white"/>
<path d="M30.7592 111.77H29.002V113.527H30.7592V111.77Z" fill="white"/>
<path d="M34.1723 111.77H32.415V113.527H34.1723V111.77Z" fill="white"/>
<path d="M39.2914 111.77H37.5342V113.527H39.2914V111.77Z" fill="white"/>
<path d="M44.4086 111.77H42.6514V113.527H44.4086V111.77Z" fill="white"/>
<path d="M51.2328 111.77H49.4756V113.527H51.2328V111.77Z" fill="white"/>
<path d="M54.6449 111.77H52.8877V113.527H54.6449V111.77Z" fill="white"/>
<path d="M64.8813 111.77H63.124V113.527H64.8813V111.77Z" fill="white"/>
<path d="M66.5883 111.77H64.8311V113.527H66.5883V111.77Z" fill="white"/>
<path d="M68.2934 111.77H66.5361V113.527H68.2934V111.77Z" fill="white"/>
<path d="M70.0004 111.77H68.2432V113.527H70.0004V111.77Z" fill="white"/>
<path d="M1.75725 113.475H0V115.232H1.75725V113.475Z" fill="white"/>
<path d="M13.6987 113.475H11.9414V115.232H13.6987V113.475Z" fill="white"/>
<path d="M22.2299 113.475H20.4727V115.232H22.2299V113.475Z" fill="white"/>
<path d="M25.642 113.475H23.8848V115.232H25.642V113.475Z" fill="white"/>
<path d="M27.3471 113.475H25.5898V115.232H27.3471V113.475Z" fill="white"/>
<path d="M29.0541 113.475H27.2969V115.232H29.0541V113.475Z" fill="white"/>
<path d="M30.7592 113.475H29.002V115.232H30.7592V113.475Z" fill="white"/>
<path d="M35.8793 113.475H34.1221V115.232H35.8793V113.475Z" fill="white"/>
<path d="M42.7035 113.475H40.9463V115.232H42.7035V113.475Z" fill="white"/>
<path d="M46.1156 113.475H44.3584V115.232H46.1156V113.475Z" fill="white"/>
<path d="M47.8207 113.475H46.0635V115.232H47.8207V113.475Z" fill="white"/>
<path d="M49.5278 113.475H47.7705V115.232H49.5278V113.475Z" fill="white"/>
<path d="M51.2328 113.475H49.4756V115.232H51.2328V113.475Z" fill="white"/>
<path d="M54.6449 113.475H52.8877V115.232H54.6449V113.475Z" fill="white"/>
<path d="M56.352 113.475H54.5947V115.232H56.352V113.475Z" fill="white"/>
<path d="M59.7641 113.475H58.0068V115.232H59.7641V113.475Z" fill="white"/>
<path d="M61.4692 113.475H59.7119V115.232H61.4692V113.475Z" fill="white"/>
<path d="M63.1762 113.475H61.4189V115.232H63.1762V113.475Z" fill="white"/>
<path d="M64.8813 113.475H63.124V115.232H64.8813V113.475Z" fill="white"/>
<path d="M70.0004 113.475H68.2432V115.232H70.0004V113.475Z" fill="white"/>
<path d="M1.75725 115.182H0V116.939H1.75725V115.182Z" fill="white"/>
<path d="M8.58147 115.182H6.82422V116.939H8.58147V115.182Z" fill="white"/>
<path d="M10.2865 115.182H8.5293V116.939H10.2865V115.182Z" fill="white"/>
<path d="M11.9936 115.182H10.2363V116.939H11.9936V115.182Z" fill="white"/>
<path d="M17.1108 115.182H15.3535V116.939H17.1108V115.182Z" fill="white"/>
<path d="M23.935 115.182H22.1777V116.939H23.935V115.182Z" fill="white"/>
<path d="M27.3471 115.182H25.5898V116.939H27.3471V115.182Z" fill="white"/>
<path d="M29.0541 115.182H27.2969V116.939H29.0541V115.182Z" fill="white"/>
<path d="M30.7592 115.182H29.002V116.939H30.7592V115.182Z" fill="white"/>
<path d="M34.1723 115.182H32.415V116.939H34.1723V115.182Z" fill="white"/>
<path d="M37.5844 115.182H35.8271V116.939H37.5844V115.182Z" fill="white"/>
<path d="M39.2914 115.182H37.5342V116.939H39.2914V115.182Z" fill="white"/>
<path d="M44.4086 115.182H42.6514V116.939H44.4086V115.182Z" fill="white"/>
<path d="M52.9399 115.182H51.1826V116.939H52.9399V115.182Z" fill="white"/>
<path d="M56.352 115.182H54.5947V116.939H56.352V115.182Z" fill="white"/>
<path d="M58.0571 115.182H56.2998V116.939H58.0571V115.182Z" fill="white"/>
<path d="M59.7641 115.182H58.0068V116.939H59.7641V115.182Z" fill="white"/>
<path d="M61.4692 115.182H59.7119V116.939H61.4692V115.182Z" fill="white"/>
<path d="M64.8813 115.182H63.124V116.939H64.8813V115.182Z" fill="white"/>
<path d="M1.75725 116.887H0V118.644H1.75725V116.887Z" fill="white"/>
<path d="M5.16936 116.887H3.41211V118.644H5.16936V116.887Z" fill="white"/>
<path d="M6.87444 116.887H5.11719V118.644H6.87444V116.887Z" fill="white"/>
<path d="M8.58147 116.887H6.82422V118.644H8.58147V116.887Z" fill="white"/>
<path d="M10.2865 116.887H8.5293V118.644H10.2865V116.887Z" fill="white"/>
<path d="M13.6987 116.887H11.9414V118.644H13.6987V116.887Z" fill="white"/>
<path d="M15.4057 116.887H13.6484V118.644H15.4057V116.887Z" fill="white"/>
<path d="M17.1108 116.887H15.3535V118.644H17.1108V116.887Z" fill="white"/>
<path d="M18.8178 116.887H17.0605V118.644H18.8178V116.887Z" fill="white"/>
<path d="M20.5229 116.887H18.7656V118.644H20.5229V116.887Z" fill="white"/>
<path d="M22.2299 116.887H20.4727V118.644H22.2299V116.887Z" fill="white"/>
<path d="M25.642 116.887H23.8848V118.644H25.642V116.887Z" fill="white"/>
<path d="M27.3471 116.887H25.5898V118.644H27.3471V116.887Z" fill="white"/>
<path d="M32.4672 116.887H30.71V118.644H32.4672V116.887Z" fill="white"/>
<path d="M34.1723 116.887H32.415V118.644H34.1723V116.887Z" fill="white"/>
<path d="M35.8793 116.887H34.1221V118.644H35.8793V116.887Z" fill="white"/>
<path d="M37.5844 116.887H35.8271V118.644H37.5844V116.887Z" fill="white"/>
<path d="M39.2914 116.887H37.5342V118.644H39.2914V116.887Z" fill="white"/>
<path d="M42.7035 116.887H40.9463V118.644H42.7035V116.887Z" fill="white"/>
<path d="M49.5278 116.887H47.7705V118.644H49.5278V116.887Z" fill="white"/>
<path d="M54.6449 116.887H52.8877V118.644H54.6449V116.887Z" fill="white"/>
<path d="M58.0571 116.887H56.2998V118.644H58.0571V116.887Z" fill="white"/>
<path d="M59.7641 116.887H58.0068V118.644H59.7641V116.887Z" fill="white"/>
<path d="M61.4692 116.887H59.7119V118.644H61.4692V116.887Z" fill="white"/>
<path d="M1.75725 118.594H0V120.351H1.75725V118.594Z" fill="white"/>
<path d="M5.16936 118.594H3.41211V120.351H5.16936V118.594Z" fill="white"/>
<path d="M6.87444 118.594H5.11719V120.351H6.87444V118.594Z" fill="white"/>
<path d="M10.2865 118.594H8.5293V120.351H10.2865V118.594Z" fill="white"/>
<path d="M11.9936 118.594H10.2363V120.351H11.9936V118.594Z" fill="white"/>
<path d="M13.6987 118.594H11.9414V120.351H13.6987V118.594Z" fill="white"/>
<path d="M18.8178 118.594H17.0605V120.351H18.8178V118.594Z" fill="white"/>
<path d="M20.5229 118.594H18.7656V120.351H20.5229V118.594Z" fill="white"/>
<path d="M27.3471 118.594H25.5898V120.351H27.3471V118.594Z" fill="white"/>
<path d="M30.7592 118.594H29.002V120.351H30.7592V118.594Z" fill="white"/>
<path d="M34.1723 118.594H32.415V120.351H34.1723V118.594Z" fill="white"/>
<path d="M39.2914 118.594H37.5342V120.351H39.2914V118.594Z" fill="white"/>
<path d="M44.4086 118.594H42.6514V120.351H44.4086V118.594Z" fill="white"/>
<path d="M51.2328 118.594H49.4756V120.351H51.2328V118.594Z" fill="white"/>
<path d="M56.352 118.594H54.5947V120.351H56.352V118.594Z" fill="white"/>
<path d="M58.0571 118.594H56.2998V120.351H58.0571V118.594Z" fill="white"/>
<path d="M59.7641 118.594H58.0068V120.351H59.7641V118.594Z" fill="white"/>
<path d="M61.4692 118.594H59.7119V120.351H61.4692V118.594Z" fill="white"/>
<path d="M63.1762 118.594H61.4189V120.351H63.1762V118.594Z" fill="white"/>
<path d="M66.5883 118.594H64.8311V120.351H66.5883V118.594Z" fill="white"/>
<path d="M15.4057 120.299H13.6484V122.056H15.4057V120.299Z" fill="white"/>
<path d="M17.1108 120.299H15.3535V122.056H17.1108V120.299Z" fill="white"/>
<path d="M20.5229 120.299H18.7656V122.056H20.5229V120.299Z" fill="white"/>
<path d="M22.2299 120.299H20.4727V122.056H22.2299V120.299Z" fill="white"/>
<path d="M23.935 120.299H22.1777V122.056H23.935V120.299Z" fill="white"/>
<path d="M30.7592 120.299H29.002V122.056H30.7592V120.299Z" fill="white"/>
<path d="M32.4672 120.299H30.71V122.056H32.4672V120.299Z" fill="white"/>
<path d="M34.1723 120.299H32.415V122.056H34.1723V120.299Z" fill="white"/>
<path d="M35.8793 120.299H34.1221V122.056H35.8793V120.299Z" fill="white"/>
<path d="M37.5844 120.299H35.8271V122.056H37.5844V120.299Z" fill="white"/>
<path d="M39.2914 120.299H37.5342V122.056H39.2914V120.299Z" fill="white"/>
<path d="M40.9965 120.299H39.2393V122.056H40.9965V120.299Z" fill="white"/>
<path d="M44.4086 120.299H42.6514V122.056H44.4086V120.299Z" fill="white"/>
<path d="M49.5278 120.299H47.7705V122.056H49.5278V120.299Z" fill="white"/>
<path d="M52.9399 120.299H51.1826V122.056H52.9399V120.299Z" fill="white"/>
<path d="M56.352 120.299H54.5947V122.056H56.352V120.299Z" fill="white"/>
<path d="M63.1762 120.299H61.4189V122.056H63.1762V120.299Z" fill="white"/>
<path d="M64.8813 120.299H63.124V122.056H64.8813V120.299Z" fill="white"/>
<path d="M66.5883 120.299H64.8311V122.056H66.5883V120.299Z" fill="white"/>
<path d="M68.2934 120.299H66.5361V122.056H68.2934V120.299Z" fill="white"/>
<path d="M70.0004 120.299H68.2432V122.056H70.0004V120.299Z" fill="white"/>
<path d="M20.5229 122.006H18.7656V123.763H20.5229V122.006Z" fill="white"/>
<path d="M23.935 122.006H22.1777V123.763H23.935V122.006Z" fill="white"/>
<path d="M30.7592 122.006H29.002V123.763H30.7592V122.006Z" fill="white"/>
<path d="M37.5844 122.006H35.8271V123.763H37.5844V122.006Z" fill="white"/>
<path d="M42.7035 122.006H40.9463V123.763H42.7035V122.006Z" fill="white"/>
<path d="M44.4086 122.006H42.6514V123.763H44.4086V122.006Z" fill="white"/>
<path d="M46.1156 122.006H44.3584V123.763H46.1156V122.006Z" fill="white"/>
<path d="M47.8207 122.006H46.0635V123.763H47.8207V122.006Z" fill="white"/>
<path d="M49.5278 122.006H47.7705V123.763H49.5278V122.006Z" fill="white"/>
<path d="M54.6449 122.006H52.8877V123.763H54.6449V122.006Z" fill="white"/>
<path d="M56.352 122.006H54.5947V123.763H56.352V122.006Z" fill="white"/>
<path d="M59.7641 122.006H58.0068V123.763H59.7641V122.006Z" fill="white"/>
<path d="M63.1762 122.006H61.4189V123.763H63.1762V122.006Z" fill="white"/>
<path d="M66.5883 122.006H64.8311V123.763H66.5883V122.006Z" fill="white"/>
<path d="M15.4057 123.713H13.6484V125.47H15.4057V123.713Z" fill="white"/>
<path d="M17.1108 123.713H15.3535V125.47H17.1108V123.713Z" fill="white"/>
<path d="M18.8178 123.713H17.0605V125.47H18.8178V123.713Z" fill="white"/>
<path d="M30.7592 123.713H29.002V125.47H30.7592V123.713Z" fill="white"/>
<path d="M32.4672 123.713H30.71V125.47H32.4672V123.713Z" fill="white"/>
<path d="M37.5844 123.713H35.8271V125.47H37.5844V123.713Z" fill="white"/>
<path d="M39.2914 123.713H37.5342V125.47H39.2914V123.713Z" fill="white"/>
<path d="M40.9965 123.713H39.2393V125.47H40.9965V123.713Z" fill="white"/>
<path d="M44.4086 123.713H42.6514V125.47H44.4086V123.713Z" fill="white"/>
<path d="M54.6449 123.713H52.8877V125.47H54.6449V123.713Z" fill="white"/>
<path d="M56.352 123.713H54.5947V125.47H56.352V123.713Z" fill="white"/>
<path d="M63.1762 123.713H61.4189V125.47H63.1762V123.713Z" fill="white"/>
<path d="M64.8813 123.713H63.124V125.47H64.8813V123.713Z" fill="white"/>
<path d="M68.2934 123.713H66.5361V125.47H68.2934V123.713Z" fill="white"/>
<path d="M15.4057 125.42H13.6484V127.177H15.4057V125.42Z" fill="white"/>
<path d="M17.1108 125.42H15.3535V127.177H17.1108V125.42Z" fill="white"/>
<path d="M20.5229 125.42H18.7656V127.177H20.5229V125.42Z" fill="white"/>
<path d="M25.642 125.42H23.8848V127.177H25.642V125.42Z" fill="white"/>
<path d="M27.3471 125.42H25.5898V127.177H27.3471V125.42Z" fill="white"/>
<path d="M37.5844 125.42H35.8271V127.177H37.5844V125.42Z" fill="white"/>
<path d="M42.7035 125.42H40.9463V127.177H42.7035V125.42Z" fill="white"/>
<path d="M46.1156 125.42H44.3584V127.177H46.1156V125.42Z" fill="white"/>
<path d="M47.8207 125.42H46.0635V127.177H47.8207V125.42Z" fill="white"/>
<path d="M52.9399 125.42H51.1826V127.177H52.9399V125.42Z" fill="white"/>
<path d="M56.352 125.42H54.5947V127.177H56.352V125.42Z" fill="white"/>
<path d="M58.0571 125.42H56.2998V127.177H58.0571V125.42Z" fill="white"/>
<path d="M59.7641 125.42H58.0068V127.177H59.7641V125.42Z" fill="white"/>
<path d="M61.4692 125.42H59.7119V127.177H61.4692V125.42Z" fill="white"/>
<path d="M63.1762 125.42H61.4189V127.177H63.1762V125.42Z" fill="white"/>
<path d="M66.5883 125.42H64.8311V127.177H66.5883V125.42Z" fill="white"/>
<path d="M15.4057 127.125H13.6484V128.882H15.4057V127.125Z" fill="white"/>
<path d="M17.1108 127.125H15.3535V128.882H17.1108V127.125Z" fill="white"/>
<path d="M25.642 127.125H23.8848V128.882H25.642V127.125Z" fill="white"/>
<path d="M27.3471 127.125H25.5898V128.882H27.3471V127.125Z" fill="white"/>
<path d="M32.4672 127.125H30.71V128.882H32.4672V127.125Z" fill="white"/>
<path d="M34.1723 127.125H32.415V128.882H34.1723V127.125Z" fill="white"/>
<path d="M35.8793 127.125H34.1221V128.882H35.8793V127.125Z" fill="white"/>
<path d="M37.5844 127.125H35.8271V128.882H37.5844V127.125Z" fill="white"/>
<path d="M39.2914 127.125H37.5342V128.882H39.2914V127.125Z" fill="white"/>
<path d="M40.9965 127.125H39.2393V128.882H40.9965V127.125Z" fill="white"/>
<path d="M44.4086 127.125H42.6514V128.882H44.4086V127.125Z" fill="white"/>
<path d="M49.5278 127.125H47.7705V128.882H49.5278V127.125Z" fill="white"/>
<path d="M52.9399 127.125H51.1826V128.882H52.9399V127.125Z" fill="white"/>
<path d="M58.0571 127.125H56.2998V128.882H58.0571V127.125Z" fill="white"/>
<path d="M61.4692 127.125H59.7119V128.882H61.4692V127.125Z" fill="white"/>
<path d="M64.8813 127.125H63.124V128.882H64.8813V127.125Z" fill="white"/>
<path d="M15.4057 128.832H13.6484V130.589H15.4057V128.832Z" fill="white"/>
<path d="M18.8178 128.832H17.0605V130.589H18.8178V128.832Z" fill="white"/>
<path d="M23.935 128.832H22.1777V130.589H23.935V128.832Z" fill="white"/>
<path d="M27.3471 128.832H25.5898V130.589H27.3471V128.832Z" fill="white"/>
<path d="M29.0541 128.832H27.2969V130.589H29.0541V128.832Z" fill="white"/>
<path d="M35.8793 128.832H34.1221V130.589H35.8793V128.832Z" fill="white"/>
<path d="M44.4086 128.832H42.6514V130.589H44.4086V128.832Z" fill="white"/>
<path d="M46.1156 128.832H44.3584V130.589H46.1156V128.832Z" fill="white"/>
<path d="M47.8207 128.832H46.0635V130.589H47.8207V128.832Z" fill="white"/>
<path d="M52.9399 128.832H51.1826V130.589H52.9399V128.832Z" fill="white"/>
<path d="M56.352 128.832H54.5947V130.589H56.352V128.832Z" fill="white"/>
<path d="M58.0571 128.832H56.2998V130.589H58.0571V128.832Z" fill="white"/>
<path d="M59.7641 128.832H58.0068V130.589H59.7641V128.832Z" fill="white"/>
<path d="M61.4692 128.832H59.7119V130.589H61.4692V128.832Z" fill="white"/>
<path d="M63.1762 128.832H61.4189V130.589H63.1762V128.832Z" fill="white"/>
<path d="M64.8813 128.832H63.124V130.589H64.8813V128.832Z" fill="white"/>
<path d="M66.5883 128.832H64.8311V130.589H66.5883V128.832Z" fill="white"/>
<path d="M18.8178 130.537H17.0605V132.294H18.8178V130.537Z" fill="white"/>
<path d="M22.2299 130.537H20.4727V132.294H22.2299V130.537Z" fill="white"/>
<path d="M23.935 130.537H22.1777V132.294H23.935V130.537Z" fill="white"/>
<path d="M29.0541 130.537H27.2969V132.294H29.0541V130.537Z" fill="white"/>
<path d="M34.1723 130.537H32.415V132.294H34.1723V130.537Z" fill="white"/>
<path d="M35.8793 130.537H34.1221V132.294H35.8793V130.537Z" fill="white"/>
<path d="M37.5844 130.537H35.8271V132.294H37.5844V130.537Z" fill="white"/>
<path d="M39.2914 130.537H37.5342V132.294H39.2914V130.537Z" fill="white"/>
<path d="M40.9965 130.537H39.2393V132.294H40.9965V130.537Z" fill="white"/>
<path d="M46.1156 130.537H44.3584V132.294H46.1156V130.537Z" fill="white"/>
<path d="M47.8207 130.537H46.0635V132.294H47.8207V130.537Z" fill="white"/>
<path d="M49.5278 130.537H47.7705V132.294H49.5278V130.537Z" fill="white"/>
<path d="M54.6449 130.537H52.8877V132.294H54.6449V130.537Z" fill="white"/>
<path d="M56.352 130.537H54.5947V132.294H56.352V130.537Z" fill="white"/>
<path d="M58.0571 130.537H56.2998V132.294H58.0571V130.537Z" fill="white"/>
<path d="M63.1762 130.537H61.4189V132.294H63.1762V130.537Z" fill="white"/>
<path d="M64.8813 130.537H63.124V132.294H64.8813V130.537Z" fill="white"/>
<path d="M68.2934 130.537H66.5361V132.294H68.2934V130.537Z" fill="white"/>
<path d="M15.4057 132.244H13.6484V134.001H15.4057V132.244Z" fill="white"/>
<path d="M17.1108 132.244H15.3535V134.001H17.1108V132.244Z" fill="white"/>
<path d="M18.8178 132.244H17.0605V134.001H18.8178V132.244Z" fill="white"/>
<path d="M20.5229 132.244H18.7656V134.001H20.5229V132.244Z" fill="white"/>
<path d="M23.935 132.244H22.1777V134.001H23.935V132.244Z" fill="white"/>
<path d="M29.0541 132.244H27.2969V134.001H29.0541V132.244Z" fill="white"/>
<path d="M32.4672 132.244H30.71V134.001H32.4672V132.244Z" fill="white"/>
<path d="M34.1723 132.244H32.415V134.001H34.1723V132.244Z" fill="white"/>
<path d="M39.2914 132.244H37.5342V134.001H39.2914V132.244Z" fill="white"/>
<path d="M40.9965 132.244H39.2393V134.001H40.9965V132.244Z" fill="white"/>
<path d="M42.7035 132.244H40.9463V134.001H42.7035V132.244Z" fill="white"/>
<path d="M44.4086 132.244H42.6514V134.001H44.4086V132.244Z" fill="white"/>
<path d="M46.1156 132.244H44.3584V134.001H46.1156V132.244Z" fill="white"/>
<path d="M47.8207 132.244H46.0635V134.001H47.8207V132.244Z" fill="white"/>
<path d="M49.5278 132.244H47.7705V134.001H49.5278V132.244Z" fill="white"/>
<path d="M51.2328 132.244H49.4756V134.001H51.2328V132.244Z" fill="white"/>
<path d="M54.6449 132.244H52.8877V134.001H54.6449V132.244Z" fill="white"/>
<path d="M58.0571 132.244H56.2998V134.001H58.0571V132.244Z" fill="white"/>
<path d="M61.4692 132.244H59.7119V134.001H61.4692V132.244Z" fill="white"/>
<path d="M63.1762 132.244H61.4189V134.001H63.1762V132.244Z" fill="white"/>
<path d="M66.5883 132.244H64.8311V134.001H66.5883V132.244Z" fill="white"/>
<path d="M0 64V75.9425H11.9425V64H0ZM10.2364 74.2364H1.70607V65.7061H10.2364V74.2364Z" fill="white"/>
<path d="M58.0068 64V75.9425H69.9493V64H58.0068ZM68.2432 74.2364H59.7129V65.7061H68.2432V74.2364Z" fill="white"/>
<path d="M0 122.008V133.95H11.9425V122.008H0ZM10.2364 132.244H1.70607V123.714H10.2364V132.244Z" fill="white"/>
<path d="M8.53032 67.4121H3.41211V72.5303H8.53032V67.4121Z" fill="white"/>
<path d="M66.5381 67.4121H61.4199V72.5303H66.5381V67.4121Z" fill="white"/>
<path d="M8.53032 125.42H3.41211V130.538H8.53032V125.42Z" fill="white"/>
</g>
<g clip-path="url(#clip1_10577_15334)">
<path d="M228.557 6.01902C228.476 5.92877 225.567 6.05464 223.035 8.80252C220.503 11.548 220.893 14.6973 220.95 14.778C221.007 14.8588 224.56 14.9846 226.828 11.7903C229.096 8.59589 228.638 6.11164 228.557 6.01902ZM236.428 33.8849C236.314 33.6569 230.906 30.9541 231.409 25.7576C231.913 20.5588 235.388 19.1338 235.442 18.9794C235.497 18.825 234.024 17.1031 232.464 16.2315C231.318 15.617 230.05 15.2649 228.752 15.2008C228.495 15.1936 227.605 14.9751 225.774 15.4763C224.567 15.8064 221.848 16.8751 221.1 16.9179C220.349 16.9606 218.117 15.6781 215.715 15.3385C214.179 15.0416 212.55 15.6496 211.383 16.1175C210.22 16.583 208.006 17.9083 206.458 21.4304C204.909 24.9501 205.719 30.5266 206.299 32.2604C206.878 33.9918 207.783 36.8299 209.322 38.9009C210.69 41.2379 212.504 42.86 213.262 43.411C214.02 43.962 216.157 44.3278 217.639 43.5701C218.831 42.8386 220.983 42.4183 221.833 42.4491C222.681 42.48 224.353 42.8149 226.066 43.7293C227.422 44.1971 228.704 44.0024 229.989 43.4799C231.274 42.955 233.134 40.9648 235.304 36.9296C236.129 35.0534 236.504 34.0393 236.428 33.8849Z" fill="white"/>
<path d="M228.557 6.01902C228.476 5.92877 225.567 6.05464 223.035 8.80252C220.503 11.548 220.893 14.6973 220.95 14.778C221.007 14.8588 224.56 14.9846 226.828 11.7903C229.096 8.59589 228.638 6.11164 228.557 6.01902ZM236.428 33.8849C236.314 33.6569 230.906 30.9541 231.409 25.7576C231.913 20.5588 235.388 19.1338 235.442 18.9794C235.497 18.825 234.024 17.1031 232.464 16.2315C231.318 15.617 230.05 15.2649 228.752 15.2008C228.495 15.1936 227.605 14.9751 225.774 15.4763C224.567 15.8064 221.848 16.8751 221.1 16.9179C220.349 16.9606 218.117 15.6781 215.715 15.3385C214.179 15.0416 212.55 15.6496 211.383 16.1175C210.22 16.583 208.006 17.9083 206.458 21.4304C204.909 24.9501 205.719 30.5266 206.299 32.2604C206.878 33.9918 207.783 36.8299 209.322 38.9009C210.69 41.2379 212.504 42.86 213.262 43.411C214.02 43.962 216.157 44.3278 217.639 43.5701C218.831 42.8386 220.983 42.4183 221.833 42.4491C222.681 42.48 224.353 42.8149 226.066 43.7293C227.422 44.1971 228.704 44.0024 229.989 43.4799C231.274 42.955 233.134 40.9648 235.304 36.9296C236.129 35.0534 236.504 34.0393 236.428 33.8849Z" fill="white"/>
<path d="M206.256 64H204.073V66.1829H206.256V64Z" fill="white"/>
<path d="M208.375 64H206.192V66.1829H208.375V64Z" fill="white"/>
<path d="M212.615 64H210.432V66.1829H212.615V64Z" fill="white"/>
<path d="M221.092 64H218.909V66.1829H221.092V64Z" fill="white"/>
<path d="M225.33 64H223.147V66.1829H225.33V64Z" fill="white"/>
<path d="M227.45 64H225.268V66.1829H227.45V64Z" fill="white"/>
<path d="M229.57 64H227.387V66.1829H229.57V64Z" fill="white"/>
<path d="M235.926 64H233.743V66.1829H235.926V64Z" fill="white"/>
<path d="M218.972 66.1191H216.789V68.302H218.972V66.1191Z" fill="white"/>
<path d="M221.092 66.1191H218.909V68.302H221.092V66.1191Z" fill="white"/>
<path d="M229.57 66.1191H227.387V68.302H229.57V66.1191Z" fill="white"/>
<path d="M231.687 66.1191H229.504V68.302H231.687V66.1191Z" fill="white"/>
<path d="M238.045 66.1191H235.862V68.302H238.045V66.1191Z" fill="white"/>
<path d="M204.136 68.2383H201.953V70.4211H204.136V68.2383Z" fill="white"/>
<path d="M210.494 68.2383H208.312V70.4211H210.494V68.2383Z" fill="white"/>
<path d="M216.853 68.2383H214.67V70.4211H216.853V68.2383Z" fill="white"/>
<path d="M218.972 68.2383H216.789V70.4211H218.972V68.2383Z" fill="white"/>
<path d="M225.33 68.2383H223.147V70.4211H225.33V68.2383Z" fill="white"/>
<path d="M227.45 68.2383H225.268V70.4211H227.45V68.2383Z" fill="white"/>
<path d="M229.57 68.2383H227.387V70.4211H229.57V68.2383Z" fill="white"/>
<path d="M231.687 68.2383H229.504V70.4211H231.687V68.2383Z" fill="white"/>
<path d="M233.807 68.2383H231.624V70.4211H233.807V68.2383Z" fill="white"/>
<path d="M235.926 68.2383H233.743V70.4211H235.926V68.2383Z" fill="white"/>
<path d="M204.136 70.3574H201.953V72.5403H204.136V70.3574Z" fill="white"/>
<path d="M210.494 70.3574H208.312V72.5403H210.494V70.3574Z" fill="white"/>
<path d="M225.33 70.3574H223.147V72.5403H225.33V70.3574Z" fill="white"/>
<path d="M227.45 70.3574H225.268V72.5403H227.45V70.3574Z" fill="white"/>
<path d="M233.807 70.3574H231.624V72.5403H233.807V70.3574Z" fill="white"/>
<path d="M235.926 70.3574H233.743V72.5403H235.926V70.3574Z" fill="white"/>
<path d="M238.045 70.3574H235.862V72.5403H238.045V70.3574Z" fill="white"/>
<path d="M204.136 72.4785H201.953V74.6614H204.136V72.4785Z" fill="white"/>
<path d="M208.375 72.4785H206.192V74.6614H208.375V72.4785Z" fill="white"/>
<path d="M216.853 72.4785H214.67V74.6614H216.853V72.4785Z" fill="white"/>
<path d="M218.972 72.4785H216.789V74.6614H218.972V72.4785Z" fill="white"/>
<path d="M221.092 72.4785H218.909V74.6614H221.092V72.4785Z" fill="white"/>
<path d="M223.211 72.4785H221.028V74.6614H223.211V72.4785Z" fill="white"/>
<path d="M227.45 72.4785H225.268V74.6614H227.45V72.4785Z" fill="white"/>
<path d="M229.57 72.4785H227.387V74.6614H229.57V72.4785Z" fill="white"/>
<path d="M231.687 72.4785H229.504V74.6614H231.687V72.4785Z" fill="white"/>
<path d="M235.926 72.4785H233.743V74.6614H235.926V72.4785Z" fill="white"/>
<path d="M204.136 74.5977H201.953V76.7805H204.136V74.5977Z" fill="white"/>
<path d="M212.615 74.5977H210.432V76.7805H212.615V74.5977Z" fill="white"/>
<path d="M214.734 74.5977H212.551V76.7805H214.734V74.5977Z" fill="white"/>
<path d="M229.57 74.5977H227.387V76.7805H229.57V74.5977Z" fill="white"/>
<path d="M231.687 74.5977H229.504V76.7805H231.687V74.5977Z" fill="white"/>
<path d="M238.045 74.5977H235.862V76.7805H238.045V74.5977Z" fill="white"/>
<path d="M204.136 76.7168H201.953V78.8997H204.136V76.7168Z" fill="white"/>
<path d="M208.375 76.7168H206.192V78.8997H208.375V76.7168Z" fill="white"/>
<path d="M212.615 76.7168H210.432V78.8997H212.615V76.7168Z" fill="white"/>
<path d="M216.853 76.7168H214.67V78.8997H216.853V76.7168Z" fill="white"/>
<path d="M221.092 76.7168H218.909V78.8997H221.092V76.7168Z" fill="white"/>
<path d="M225.33 76.7168H223.147V78.8997H225.33V76.7168Z" fill="white"/>
<path d="M229.57 76.7168H227.387V78.8997H229.57V76.7168Z" fill="white"/>
<path d="M233.807 76.7168H231.624V78.8997H233.807V76.7168Z" fill="white"/>
<path d="M238.045 76.7168H235.862V78.8997H238.045V76.7168Z" fill="white"/>
<path d="M204.136 78.834H201.953V81.0168H204.136V78.834Z" fill="white"/>
<path d="M208.375 78.834H206.192V81.0168H208.375V78.834Z" fill="white"/>
<path d="M212.615 78.834H210.432V81.0168H212.615V78.834Z" fill="white"/>
<path d="M216.853 78.834H214.67V81.0168H216.853V78.834Z" fill="white"/>
<path d="M221.092 78.834H218.909V81.0168H221.092V78.834Z" fill="white"/>
<path d="M231.687 78.834H229.504V81.0168H231.687V78.834Z" fill="white"/>
<path d="M233.807 78.834H231.624V81.0168H233.807V78.834Z" fill="white"/>
<path d="M187.183 80.9531H185V83.136H187.183V80.9531Z" fill="white"/>
<path d="M191.422 80.9531H189.239V83.136H191.422V80.9531Z" fill="white"/>
<path d="M193.541 80.9531H191.358V83.136H193.541V80.9531Z" fill="white"/>
<path d="M195.66 80.9531H193.478V83.136H195.66V80.9531Z" fill="white"/>
<path d="M197.78 80.9531H195.597V83.136H197.78V80.9531Z" fill="white"/>
<path d="M199.9 80.9531H197.717V83.136H199.9V80.9531Z" fill="white"/>
<path d="M206.256 80.9531H204.073V83.136H206.256V80.9531Z" fill="white"/>
<path d="M208.375 80.9531H206.192V83.136H208.375V80.9531Z" fill="white"/>
<path d="M212.615 80.9531H210.432V83.136H212.615V80.9531Z" fill="white"/>
<path d="M214.734 80.9531H212.551V83.136H214.734V80.9531Z" fill="white"/>
<path d="M216.853 80.9531H214.67V83.136H216.853V80.9531Z" fill="white"/>
<path d="M223.211 80.9531H221.028V83.136H223.211V80.9531Z" fill="white"/>
<path d="M225.33 80.9531H223.147V83.136H225.33V80.9531Z" fill="white"/>
<path d="M227.45 80.9531H225.268V83.136H227.45V80.9531Z" fill="white"/>
<path d="M233.807 80.9531H231.624V83.136H233.807V80.9531Z" fill="white"/>
<path d="M238.045 80.9531H235.862V83.136H238.045V80.9531Z" fill="white"/>
<path d="M242.284 80.9531H240.102V83.136H242.284V80.9531Z" fill="white"/>
<path d="M244.404 80.9531H242.221V83.136H244.404V80.9531Z" fill="white"/>
<path d="M246.523 80.9531H244.34V83.136H246.523V80.9531Z" fill="white"/>
<path d="M248.643 80.9531H246.46V83.136H248.643V80.9531Z" fill="white"/>
<path d="M250.762 80.9531H248.579V83.136H250.762V80.9531Z" fill="white"/>
<path d="M187.183 83.0723H185V85.2551H187.183V83.0723Z" fill="white"/>
<path d="M191.422 83.0723H189.239V85.2551H191.422V83.0723Z" fill="white"/>
<path d="M204.136 83.0723H201.953V85.2551H204.136V83.0723Z" fill="white"/>
<path d="M208.375 83.0723H206.192V85.2551H208.375V83.0723Z" fill="white"/>
<path d="M210.494 83.0723H208.312V85.2551H210.494V83.0723Z" fill="white"/>
<path d="M214.734 83.0723H212.551V85.2551H214.734V83.0723Z" fill="white"/>
<path d="M216.853 83.0723H214.67V85.2551H216.853V83.0723Z" fill="white"/>
<path d="M221.092 83.0723H218.909V85.2551H221.092V83.0723Z" fill="white"/>
<path d="M225.33 83.0723H223.147V85.2551H225.33V83.0723Z" fill="white"/>
<path d="M227.45 83.0723H225.268V85.2551H227.45V83.0723Z" fill="white"/>
<path d="M229.57 83.0723H227.387V85.2551H229.57V83.0723Z" fill="white"/>
<path d="M231.687 83.0723H229.504V85.2551H231.687V83.0723Z" fill="white"/>
<path d="M233.807 83.0723H231.624V85.2551H233.807V83.0723Z" fill="white"/>
<path d="M235.926 83.0723H233.743V85.2551H235.926V83.0723Z" fill="white"/>
<path d="M238.045 83.0723H235.862V85.2551H238.045V83.0723Z" fill="white"/>
<path d="M242.284 83.0723H240.102V85.2551H242.284V83.0723Z" fill="white"/>
<path d="M244.404 83.0723H242.221V85.2551H244.404V83.0723Z" fill="white"/>
<path d="M248.643 83.0723H246.46V85.2551H248.643V83.0723Z" fill="white"/>
<path d="M250.762 83.0723H248.579V85.2551H250.762V83.0723Z" fill="white"/>
<path d="M255.001 83.0723H252.818V85.2551H255.001V83.0723Z" fill="white"/>
<path d="M187.183 85.1914H185V87.3743H187.183V85.1914Z" fill="white"/>
<path d="M189.302 85.1914H187.119V87.3743H189.302V85.1914Z" fill="white"/>
<path d="M197.78 85.1914H195.597V87.3743H197.78V85.1914Z" fill="white"/>
<path d="M199.9 85.1914H197.717V87.3743H199.9V85.1914Z" fill="white"/>
<path d="M202.017 85.1914H199.834V87.3743H202.017V85.1914Z" fill="white"/>
<path d="M208.375 85.1914H206.192V87.3743H208.375V85.1914Z" fill="white"/>
<path d="M212.615 85.1914H210.432V87.3743H212.615V85.1914Z" fill="white"/>
<path d="M214.734 85.1914H212.551V87.3743H214.734V85.1914Z" fill="white"/>
<path d="M216.853 85.1914H214.67V87.3743H216.853V85.1914Z" fill="white"/>
<path d="M218.972 85.1914H216.789V87.3743H218.972V85.1914Z" fill="white"/>
<path d="M221.092 85.1914H218.909V87.3743H221.092V85.1914Z" fill="white"/>
<path d="M225.33 85.1914H223.147V87.3743H225.33V85.1914Z" fill="white"/>
<path d="M229.57 85.1914H227.387V87.3743H229.57V85.1914Z" fill="white"/>
<path d="M240.164 85.1914H237.981V87.3743H240.164V85.1914Z" fill="white"/>
<path d="M246.523 85.1914H244.34V87.3743H246.523V85.1914Z" fill="white"/>
<path d="M250.762 85.1914H248.579V87.3743H250.762V85.1914Z" fill="white"/>
<path d="M252.881 85.1914H250.698V87.3743H252.881V85.1914Z" fill="white"/>
<path d="M189.302 87.3125H187.119V89.4954H189.302V87.3125Z" fill="white"/>
<path d="M195.66 87.3125H193.478V89.4954H195.66V87.3125Z" fill="white"/>
<path d="M197.78 87.3125H195.597V89.4954H197.78V87.3125Z" fill="white"/>
<path d="M204.136 87.3125H201.953V89.4954H204.136V87.3125Z" fill="white"/>
<path d="M210.494 87.3125H208.312V89.4954H210.494V87.3125Z" fill="white"/>
<path d="M214.734 87.3125H212.551V89.4954H214.734V87.3125Z" fill="white"/>
<path d="M218.972 87.3125H216.789V89.4954H218.972V87.3125Z" fill="white"/>
<path d="M221.092 87.3125H218.909V89.4954H221.092V87.3125Z" fill="white"/>
<path d="M225.33 87.3125H223.147V89.4954H225.33V87.3125Z" fill="white"/>
<path d="M227.45 87.3125H225.268V89.4954H227.45V87.3125Z" fill="white"/>
<path d="M231.687 87.3125H229.504V89.4954H231.687V87.3125Z" fill="white"/>
<path d="M233.807 87.3125H231.624V89.4954H233.807V87.3125Z" fill="white"/>
<path d="M235.926 87.3125H233.743V89.4954H235.926V87.3125Z" fill="white"/>
<path d="M238.045 87.3125H235.862V89.4954H238.045V87.3125Z" fill="white"/>
<path d="M240.164 87.3125H237.981V89.4954H240.164V87.3125Z" fill="white"/>
<path d="M246.523 87.3125H244.34V89.4954H246.523V87.3125Z" fill="white"/>
<path d="M248.643 87.3125H246.46V89.4954H248.643V87.3125Z" fill="white"/>
<path d="M250.762 87.3125H248.579V89.4954H250.762V87.3125Z" fill="white"/>
<path d="M252.881 87.3125H250.698V89.4954H252.881V87.3125Z" fill="white"/>
<path d="M255.001 87.3125H252.818V89.4954H255.001V87.3125Z" fill="white"/>
<path d="M189.302 89.4316H187.119V91.6145H189.302V89.4316Z" fill="white"/>
<path d="M193.541 89.4316H191.358V91.6145H193.541V89.4316Z" fill="white"/>
<path d="M195.66 89.4316H193.478V91.6145H195.66V89.4316Z" fill="white"/>
<path d="M199.9 89.4316H197.717V91.6145H199.9V89.4316Z" fill="white"/>
<path d="M206.256 89.4316H204.073V91.6145H206.256V89.4316Z" fill="white"/>
<path d="M216.853 89.4316H214.67V91.6145H216.853V89.4316Z" fill="white"/>
<path d="M223.211 89.4316H221.028V91.6145H223.211V89.4316Z" fill="white"/>
<path d="M225.33 89.4316H223.147V91.6145H225.33V89.4316Z" fill="white"/>
<path d="M233.807 89.4316H231.624V91.6145H233.807V89.4316Z" fill="white"/>
<path d="M240.164 89.4316H237.981V91.6145H240.164V89.4316Z" fill="white"/>
<path d="M246.523 89.4316H244.34V91.6145H246.523V89.4316Z" fill="white"/>
<path d="M248.643 89.4316H246.46V91.6145H248.643V89.4316Z" fill="white"/>
<path d="M189.302 91.5508H187.119V93.7336H189.302V91.5508Z" fill="white"/>
<path d="M191.422 91.5508H189.239V93.7336H191.422V91.5508Z" fill="white"/>
<path d="M195.66 91.5508H193.478V93.7336H195.66V91.5508Z" fill="white"/>
<path d="M204.136 91.5508H201.953V93.7336H204.136V91.5508Z" fill="white"/>
<path d="M208.375 91.5508H206.192V93.7336H208.375V91.5508Z" fill="white"/>
<path d="M212.615 91.5508H210.432V93.7336H212.615V91.5508Z" fill="white"/>
<path d="M214.734 91.5508H212.551V93.7336H214.734V91.5508Z" fill="white"/>
<path d="M218.972 91.5508H216.789V93.7336H218.972V91.5508Z" fill="white"/>
<path d="M223.211 91.5508H221.028V93.7336H223.211V91.5508Z" fill="white"/>
<path d="M225.33 91.5508H223.147V93.7336H225.33V91.5508Z" fill="white"/>
<path d="M227.45 91.5508H225.268V93.7336H227.45V91.5508Z" fill="white"/>
<path d="M229.57 91.5508H227.387V93.7336H229.57V91.5508Z" fill="white"/>
<path d="M231.687 91.5508H229.504V93.7336H231.687V91.5508Z" fill="white"/>
<path d="M235.926 91.5508H233.743V93.7336H235.926V91.5508Z" fill="white"/>
<path d="M240.164 91.5508H237.981V93.7336H240.164V91.5508Z" fill="white"/>
<path d="M242.284 91.5508H240.102V93.7336H242.284V91.5508Z" fill="white"/>
<path d="M248.643 91.5508H246.46V93.7336H248.643V91.5508Z" fill="white"/>
<path d="M252.881 91.5508H250.698V93.7336H252.881V91.5508Z" fill="white"/>
<path d="M255.001 91.5508H252.818V93.7336H255.001V91.5508Z" fill="white"/>
<path d="M187.183 93.6699H185V95.8528H187.183V93.6699Z" fill="white"/>
<path d="M189.302 93.6699H187.119V95.8528H189.302V93.6699Z" fill="white"/>
<path d="M191.422 93.6699H189.239V95.8528H191.422V93.6699Z" fill="white"/>
<path d="M195.66 93.6699H193.478V95.8528H195.66V93.6699Z" fill="white"/>
<path d="M197.78 93.6699H195.597V95.8528H197.78V93.6699Z" fill="white"/>
<path d="M199.9 93.6699H197.717V95.8528H199.9V93.6699Z" fill="white"/>
<path d="M204.136 93.6699H201.953V95.8528H204.136V93.6699Z" fill="white"/>
<path d="M206.256 93.6699H204.073V95.8528H206.256V93.6699Z" fill="white"/>
<path d="M208.375 93.6699H206.192V95.8528H208.375V93.6699Z" fill="white"/>
<path d="M212.615 93.6699H210.432V95.8528H212.615V93.6699Z" fill="white"/>
<path d="M216.853 93.6699H214.67V95.8528H216.853V93.6699Z" fill="white"/>
<path d="M218.972 93.6699H216.789V95.8528H218.972V93.6699Z" fill="white"/>
<path d="M223.211 93.6699H221.028V95.8528H223.211V93.6699Z" fill="white"/>
<path d="M229.57 93.6699H227.387V95.8528H229.57V93.6699Z" fill="white"/>
<path d="M231.687 93.6699H229.504V95.8528H231.687V93.6699Z" fill="white"/>
<path d="M238.045 93.6699H235.862V95.8528H238.045V93.6699Z" fill="white"/>
<path d="M240.164 93.6699H237.981V95.8528H240.164V93.6699Z" fill="white"/>
<path d="M242.284 93.6699H240.102V95.8528H242.284V93.6699Z" fill="white"/>
<path d="M248.643 93.6699H246.46V95.8528H248.643V93.6699Z" fill="white"/>
<path d="M252.881 93.6699H250.698V95.8528H252.881V93.6699Z" fill="white"/>
<path d="M187.183 95.7891H185V97.9719H187.183V95.7891Z" fill="white"/>
<path d="M189.302 95.7891H187.119V97.9719H189.302V95.7891Z" fill="white"/>
<path d="M191.422 95.7891H189.239V97.9719H191.422V95.7891Z" fill="white"/>
<path d="M197.78 95.7891H195.597V97.9719H197.78V95.7891Z" fill="white"/>
<path d="M208.375 95.7891H206.192V97.9719H208.375V95.7891Z" fill="white"/>
<path d="M218.972 95.7891H216.789V97.9719H218.972V95.7891Z" fill="white"/>
<path d="M227.45 95.7891H225.268V97.9719H227.45V95.7891Z" fill="white"/>
<path d="M229.57 95.7891H227.387V97.9719H229.57V95.7891Z" fill="white"/>
<path d="M231.687 95.7891H229.504V97.9719H231.687V95.7891Z" fill="white"/>
<path d="M235.926 95.7891H233.743V97.9719H235.926V95.7891Z" fill="white"/>
<path d="M240.164 95.7891H237.981V97.9719H240.164V95.7891Z" fill="white"/>
<path d="M242.284 95.7891H240.102V97.9719H242.284V95.7891Z" fill="white"/>
<path d="M244.404 95.7891H242.221V97.9719H244.404V95.7891Z" fill="white"/>
<path d="M248.643 95.7891H246.46V97.9719H248.643V95.7891Z" fill="white"/>
<path d="M250.762 95.7891H248.579V97.9719H250.762V95.7891Z" fill="white"/>
<path d="M191.422 97.9082H189.239V100.091H191.422V97.9082Z" fill="white"/>
<path d="M193.541 97.9082H191.358V100.091H193.541V97.9082Z" fill="white"/>
<path d="M197.78 97.9082H195.597V100.091H197.78V97.9082Z" fill="white"/>
<path d="M199.9 97.9082H197.717V100.091H199.9V97.9082Z" fill="white"/>
<path d="M202.017 97.9082H199.834V100.091H202.017V97.9082Z" fill="white"/>
<path d="M218.972 97.9082H216.789V100.091H218.972V97.9082Z" fill="white"/>
<path d="M223.211 97.9082H221.028V100.091H223.211V97.9082Z" fill="white"/>
<path d="M227.45 97.9082H225.268V100.091H227.45V97.9082Z" fill="white"/>
<path d="M233.807 97.9082H231.624V100.091H233.807V97.9082Z" fill="white"/>
<path d="M235.926 97.9082H233.743V100.091H235.926V97.9082Z" fill="white"/>
<path d="M240.164 97.9082H237.981V100.091H240.164V97.9082Z" fill="white"/>
<path d="M244.404 97.9082H242.221V100.091H244.404V97.9082Z" fill="white"/>
<path d="M246.523 97.9082H244.34V100.091H246.523V97.9082Z" fill="white"/>
<path d="M255.001 97.9082H252.818V100.091H255.001V97.9082Z" fill="white"/>
<path d="M187.183 100.029H185V102.212H187.183V100.029Z" fill="white"/>
<path d="M189.302 100.029H187.119V102.212H189.302V100.029Z" fill="white"/>
<path d="M191.422 100.029H189.239V102.212H191.422V100.029Z" fill="white"/>
<path d="M195.66 100.029H193.478V102.212H195.66V100.029Z" fill="white"/>
<path d="M204.136 100.029H201.953V102.212H204.136V100.029Z" fill="white"/>
<path d="M210.494 100.029H208.312V102.212H210.494V100.029Z" fill="white"/>
<path d="M221.092 100.029H218.909V102.212H221.092V100.029Z" fill="white"/>
<path d="M225.33 100.029H223.147V102.212H225.33V100.029Z" fill="white"/>
<path d="M227.45 100.029H225.268V102.212H227.45V100.029Z" fill="white"/>
<path d="M229.57 100.029H227.387V102.212H229.57V100.029Z" fill="white"/>
<path d="M231.687 100.029H229.504V102.212H231.687V100.029Z" fill="white"/>
<path d="M233.807 100.029H231.624V102.212H233.807V100.029Z" fill="white"/>
<path d="M235.926 100.029H233.743V102.212H235.926V100.029Z" fill="white"/>
<path d="M242.284 100.029H240.102V102.212H242.284V100.029Z" fill="white"/>
<path d="M244.404 100.029H242.221V102.212H244.404V100.029Z" fill="white"/>
<path d="M248.643 100.029H246.46V102.212H248.643V100.029Z" fill="white"/>
<path d="M250.762 100.029H248.579V102.212H250.762V100.029Z" fill="white"/>
<path d="M252.881 100.029H250.698V102.212H252.881V100.029Z" fill="white"/>
<path d="M255.001 100.029H252.818V102.212H255.001V100.029Z" fill="white"/>
<path d="M187.183 102.148H185V104.331H187.183V102.148Z" fill="white"/>
<path d="M199.9 102.148H197.717V104.331H199.9V102.148Z" fill="white"/>
<path d="M202.017 102.148H199.834V104.331H202.017V102.148Z" fill="white"/>
<path d="M204.136 102.148H201.953V104.331H204.136V102.148Z" fill="white"/>
<path d="M208.375 102.148H206.192V104.331H208.375V102.148Z" fill="white"/>
<path d="M210.494 102.148H208.312V104.331H210.494V102.148Z" fill="white"/>
<path d="M212.615 102.148H210.432V104.331H212.615V102.148Z" fill="white"/>
<path d="M214.734 102.148H212.551V104.331H214.734V102.148Z" fill="white"/>
<path d="M218.972 102.148H216.789V104.331H218.972V102.148Z" fill="white"/>
<path d="M221.092 102.148H218.909V104.331H221.092V102.148Z" fill="white"/>
<path d="M223.211 102.148H221.028V104.331H223.211V102.148Z" fill="white"/>
<path d="M231.687 102.148H229.504V104.331H231.687V102.148Z" fill="white"/>
<path d="M238.045 102.148H235.862V104.331H238.045V102.148Z" fill="white"/>
<path d="M240.164 102.148H237.981V104.331H240.164V102.148Z" fill="white"/>
<path d="M244.404 102.148H242.221V104.331H244.404V102.148Z" fill="white"/>
<path d="M246.523 102.148H244.34V104.331H246.523V102.148Z" fill="white"/>
<path d="M250.762 102.148H248.579V104.331H250.762V102.148Z" fill="white"/>
<path d="M252.881 102.148H250.698V104.331H252.881V102.148Z" fill="white"/>
<path d="M187.183 104.268H185V106.45H187.183V104.268Z" fill="white"/>
<path d="M193.541 104.268H191.358V106.45H193.541V104.268Z" fill="white"/>
<path d="M197.78 104.268H195.597V106.45H197.78V104.268Z" fill="white"/>
<path d="M204.136 104.268H201.953V106.45H204.136V104.268Z" fill="white"/>
<path d="M206.256 104.268H204.073V106.45H206.256V104.268Z" fill="white"/>
<path d="M210.494 104.268H208.312V106.45H210.494V104.268Z" fill="white"/>
<path d="M212.615 104.268H210.432V106.45H212.615V104.268Z" fill="white"/>
<path d="M214.734 104.268H212.551V106.45H214.734V104.268Z" fill="white"/>
<path d="M221.092 104.268H218.909V106.45H221.092V104.268Z" fill="white"/>
<path d="M223.211 104.268H221.028V106.45H223.211V104.268Z" fill="white"/>
<path d="M227.45 104.268H225.268V106.45H227.45V104.268Z" fill="white"/>
<path d="M229.57 104.268H227.387V106.45H229.57V104.268Z" fill="white"/>
<path d="M231.687 104.268H229.504V106.45H231.687V104.268Z" fill="white"/>
<path d="M233.807 104.268H231.624V106.45H233.807V104.268Z" fill="white"/>
<path d="M238.045 104.268H235.862V106.45H238.045V104.268Z" fill="white"/>
<path d="M244.404 104.268H242.221V106.45H244.404V104.268Z" fill="white"/>
<path d="M246.523 104.268H244.34V106.45H246.523V104.268Z" fill="white"/>
<path d="M248.643 104.268H246.46V106.45H248.643V104.268Z" fill="white"/>
<path d="M250.762 104.268H248.579V106.45H250.762V104.268Z" fill="white"/>
<path d="M252.881 104.268H250.698V106.45H252.881V104.268Z" fill="white"/>
<path d="M255.001 104.268H252.818V106.45H255.001V104.268Z" fill="white"/>
<path d="M187.183 106.387H185V108.57H187.183V106.387Z" fill="white"/>
<path d="M195.66 106.387H193.478V108.57H195.66V106.387Z" fill="white"/>
<path d="M199.9 106.387H197.717V108.57H199.9V106.387Z" fill="white"/>
<path d="M202.017 106.387H199.834V108.57H202.017V106.387Z" fill="white"/>
<path d="M208.375 106.387H206.192V108.57H208.375V106.387Z" fill="white"/>
<path d="M210.494 106.387H208.312V108.57H210.494V106.387Z" fill="white"/>
<path d="M212.615 106.387H210.432V108.57H212.615V106.387Z" fill="white"/>
<path d="M227.45 106.387H225.268V108.57H227.45V106.387Z" fill="white"/>
<path d="M233.807 106.387H231.624V108.57H233.807V106.387Z" fill="white"/>
<path d="M238.045 106.387H235.862V108.57H238.045V106.387Z" fill="white"/>
<path d="M240.164 106.387H237.981V108.57H240.164V106.387Z" fill="white"/>
<path d="M244.404 106.387H242.221V108.57H244.404V106.387Z" fill="white"/>
<path d="M246.523 106.387H244.34V108.57H246.523V106.387Z" fill="white"/>
<path d="M248.643 106.387H246.46V108.57H248.643V106.387Z" fill="white"/>
<path d="M252.881 106.387H250.698V108.57H252.881V106.387Z" fill="white"/>
<path d="M255.001 106.387H252.818V108.57H255.001V106.387Z" fill="white"/>
<path d="M187.183 108.504H185V110.687H187.183V108.504Z" fill="white"/>
<path d="M189.302 108.504H187.119V110.687H189.302V108.504Z" fill="white"/>
<path d="M191.422 108.504H189.239V110.687H191.422V108.504Z" fill="white"/>
<path d="M193.541 108.504H191.358V110.687H193.541V108.504Z" fill="white"/>
<path d="M197.78 108.504H195.597V110.687H197.78V108.504Z" fill="white"/>
<path d="M202.017 108.504H199.834V110.687H202.017V108.504Z" fill="white"/>
<path d="M208.375 108.504H206.192V110.687H208.375V108.504Z" fill="white"/>
<path d="M210.494 108.504H208.312V110.687H210.494V108.504Z" fill="white"/>
<path d="M214.734 108.504H212.551V110.687H214.734V108.504Z" fill="white"/>
<path d="M216.853 108.504H214.67V110.687H216.853V108.504Z" fill="white"/>
<path d="M227.45 108.504H225.268V110.687H227.45V108.504Z" fill="white"/>
<path d="M231.687 108.504H229.504V110.687H231.687V108.504Z" fill="white"/>
<path d="M233.807 108.504H231.624V110.687H233.807V108.504Z" fill="white"/>
<path d="M235.926 108.504H233.743V110.687H235.926V108.504Z" fill="white"/>
<path d="M242.284 108.504H240.102V110.687H242.284V108.504Z" fill="white"/>
<path d="M248.643 108.504H246.46V110.687H248.643V108.504Z" fill="white"/>
<path d="M250.762 108.504H248.579V110.687H250.762V108.504Z" fill="white"/>
<path d="M255.001 108.504H252.818V110.687H255.001V108.504Z" fill="white"/>
<path d="M187.183 110.623H185V112.806H187.183V110.623Z" fill="white"/>
<path d="M195.66 110.623H193.478V112.806H195.66V110.623Z" fill="white"/>
<path d="M197.78 110.623H195.597V112.806H197.78V110.623Z" fill="white"/>
<path d="M199.9 110.623H197.717V112.806H199.9V110.623Z" fill="white"/>
<path d="M206.256 110.623H204.073V112.806H206.256V110.623Z" fill="white"/>
<path d="M208.375 110.623H206.192V112.806H208.375V110.623Z" fill="white"/>
<path d="M212.615 110.623H210.432V112.806H212.615V110.623Z" fill="white"/>
<path d="M214.734 110.623H212.551V112.806H214.734V110.623Z" fill="white"/>
<path d="M225.33 110.623H223.147V112.806H225.33V110.623Z" fill="white"/>
<path d="M231.687 110.623H229.504V112.806H231.687V110.623Z" fill="white"/>
<path d="M252.881 110.623H250.698V112.806H252.881V110.623Z" fill="white"/>
<path d="M187.183 112.742H185V114.925H187.183V112.742Z" fill="white"/>
<path d="M191.422 112.742H189.239V114.925H191.422V112.742Z" fill="white"/>
<path d="M193.541 112.742H191.358V114.925H193.541V112.742Z" fill="white"/>
<path d="M195.66 112.742H193.478V114.925H195.66V112.742Z" fill="white"/>
<path d="M202.017 112.742H199.834V114.925H202.017V112.742Z" fill="white"/>
<path d="M204.136 112.742H201.953V114.925H204.136V112.742Z" fill="white"/>
<path d="M206.256 112.742H204.073V114.925H206.256V112.742Z" fill="white"/>
<path d="M208.375 112.742H206.192V114.925H208.375V112.742Z" fill="white"/>
<path d="M210.494 112.742H208.312V114.925H210.494V112.742Z" fill="white"/>
<path d="M216.853 112.742H214.67V114.925H216.853V112.742Z" fill="white"/>
<path d="M218.972 112.742H216.789V114.925H218.972V112.742Z" fill="white"/>
<path d="M221.092 112.742H218.909V114.925H221.092V112.742Z" fill="white"/>
<path d="M227.45 112.742H225.268V114.925H227.45V112.742Z" fill="white"/>
<path d="M231.687 112.742H229.504V114.925H231.687V112.742Z" fill="white"/>
<path d="M240.164 112.742H237.981V114.925H240.164V112.742Z" fill="white"/>
<path d="M246.523 112.742H244.34V114.925H246.523V112.742Z" fill="white"/>
<path d="M248.643 112.742H246.46V114.925H248.643V112.742Z" fill="white"/>
<path d="M250.762 112.742H248.579V114.925H250.762V112.742Z" fill="white"/>
<path d="M252.881 112.742H250.698V114.925H252.881V112.742Z" fill="white"/>
<path d="M187.183 114.863H185V117.046H187.183V114.863Z" fill="white"/>
<path d="M191.422 114.863H189.239V117.046H191.422V114.863Z" fill="white"/>
<path d="M199.9 114.863H197.717V117.046H199.9V114.863Z" fill="white"/>
<path d="M202.017 114.863H199.834V117.046H202.017V114.863Z" fill="white"/>
<path d="M204.136 114.863H201.953V117.046H204.136V114.863Z" fill="white"/>
<path d="M206.256 114.863H204.073V117.046H206.256V114.863Z" fill="white"/>
<path d="M210.494 114.863H208.312V117.046H210.494V114.863Z" fill="white"/>
<path d="M212.615 114.863H210.432V117.046H212.615V114.863Z" fill="white"/>
<path d="M214.734 114.863H212.551V117.046H214.734V114.863Z" fill="white"/>
<path d="M216.853 114.863H214.67V117.046H216.853V114.863Z" fill="white"/>
<path d="M223.211 114.863H221.028V117.046H223.211V114.863Z" fill="white"/>
<path d="M233.807 114.863H231.624V117.046H233.807V114.863Z" fill="white"/>
<path d="M238.045 114.863H235.862V117.046H238.045V114.863Z" fill="white"/>
<path d="M240.164 114.863H237.981V117.046H240.164V114.863Z" fill="white"/>
<path d="M242.284 114.863H240.102V117.046H242.284V114.863Z" fill="white"/>
<path d="M244.404 114.863H242.221V117.046H244.404V114.863Z" fill="white"/>
<path d="M246.523 114.863H244.34V117.046H246.523V114.863Z" fill="white"/>
<path d="M248.643 114.863H246.46V117.046H248.643V114.863Z" fill="white"/>
<path d="M252.881 114.863H250.698V117.046H252.881V114.863Z" fill="white"/>
<path d="M204.136 116.982H201.953V119.165H204.136V116.982Z" fill="white"/>
<path d="M208.375 116.982H206.192V119.165H208.375V116.982Z" fill="white"/>
<path d="M210.494 116.982H208.312V119.165H210.494V116.982Z" fill="white"/>
<path d="M212.615 116.982H210.432V119.165H212.615V116.982Z" fill="white"/>
<path d="M214.734 116.982H212.551V119.165H214.734V116.982Z" fill="white"/>
<path d="M216.853 116.982H214.67V119.165H216.853V116.982Z" fill="white"/>
<path d="M227.45 116.982H225.268V119.165H227.45V116.982Z" fill="white"/>
<path d="M231.687 116.982H229.504V119.165H231.687V116.982Z" fill="white"/>
<path d="M235.926 116.982H233.743V119.165H235.926V116.982Z" fill="white"/>
<path d="M238.045 116.982H235.862V119.165H238.045V116.982Z" fill="white"/>
<path d="M246.523 116.982H244.34V119.165H246.523V116.982Z" fill="white"/>
<path d="M250.762 116.982H248.579V119.165H250.762V116.982Z" fill="white"/>
<path d="M255.001 116.982H252.818V119.165H255.001V116.982Z" fill="white"/>
<path d="M206.256 119.102H204.073V121.284H206.256V119.102Z" fill="white"/>
<path d="M210.494 119.102H208.312V121.284H210.494V119.102Z" fill="white"/>
<path d="M212.615 119.102H210.432V121.284H212.615V119.102Z" fill="white"/>
<path d="M214.734 119.102H212.551V121.284H214.734V119.102Z" fill="white"/>
<path d="M218.972 119.102H216.789V121.284H218.972V119.102Z" fill="white"/>
<path d="M223.211 119.102H221.028V121.284H223.211V119.102Z" fill="white"/>
<path d="M229.57 119.102H227.387V121.284H229.57V119.102Z" fill="white"/>
<path d="M231.687 119.102H229.504V121.284H231.687V119.102Z" fill="white"/>
<path d="M233.807 119.102H231.624V121.284H233.807V119.102Z" fill="white"/>
<path d="M235.926 119.102H233.743V121.284H235.926V119.102Z" fill="white"/>
<path d="M238.045 119.102H235.862V121.284H238.045V119.102Z" fill="white"/>
<path d="M242.284 119.102H240.102V121.284H242.284V119.102Z" fill="white"/>
<path d="M246.523 119.102H244.34V121.284H246.523V119.102Z" fill="white"/>
<path d="M250.762 119.102H248.579V121.284H250.762V119.102Z" fill="white"/>
<path d="M252.881 119.102H250.698V121.284H252.881V119.102Z" fill="white"/>
<path d="M204.136 121.221H201.953V123.404H204.136V121.221Z" fill="white"/>
<path d="M208.375 121.221H206.192V123.404H208.375V121.221Z" fill="white"/>
<path d="M210.494 121.221H208.312V123.404H210.494V121.221Z" fill="white"/>
<path d="M212.615 121.221H210.432V123.404H212.615V121.221Z" fill="white"/>
<path d="M218.972 121.221H216.789V123.404H218.972V121.221Z" fill="white"/>
<path d="M229.57 121.221H227.387V123.404H229.57V121.221Z" fill="white"/>
<path d="M231.687 121.221H229.504V123.404H231.687V121.221Z" fill="white"/>
<path d="M235.926 121.221H233.743V123.404H235.926V121.221Z" fill="white"/>
<path d="M238.045 121.221H235.862V123.404H238.045V121.221Z" fill="white"/>
<path d="M246.523 121.221H244.34V123.404H246.523V121.221Z" fill="white"/>
<path d="M248.643 121.221H246.46V123.404H248.643V121.221Z" fill="white"/>
<path d="M250.762 121.221H248.579V123.404H250.762V121.221Z" fill="white"/>
<path d="M255.001 121.221H252.818V123.404H255.001V121.221Z" fill="white"/>
<path d="M204.136 123.34H201.953V125.523H204.136V123.34Z" fill="white"/>
<path d="M212.615 123.34H210.432V125.523H212.615V123.34Z" fill="white"/>
<path d="M218.972 123.34H216.789V125.523H218.972V123.34Z" fill="white"/>
<path d="M221.092 123.34H218.909V125.523H221.092V123.34Z" fill="white"/>
<path d="M223.211 123.34H221.028V125.523H223.211V123.34Z" fill="white"/>
<path d="M225.33 123.34H223.147V125.523H225.33V123.34Z" fill="white"/>
<path d="M229.57 123.34H227.387V125.523H229.57V123.34Z" fill="white"/>
<path d="M233.807 123.34H231.624V125.523H233.807V123.34Z" fill="white"/>
<path d="M238.045 123.34H235.862V125.523H238.045V123.34Z" fill="white"/>
<path d="M240.164 123.34H237.981V125.523H240.164V123.34Z" fill="white"/>
<path d="M242.284 123.34H240.102V125.523H242.284V123.34Z" fill="white"/>
<path d="M244.404 123.34H242.221V125.523H244.404V123.34Z" fill="white"/>
<path d="M246.523 123.34H244.34V125.523H246.523V123.34Z" fill="white"/>
<path d="M248.643 123.34H246.46V125.523H248.643V123.34Z" fill="white"/>
<path d="M204.136 125.459H201.953V127.642H204.136V125.459Z" fill="white"/>
<path d="M206.256 125.459H204.073V127.642H206.256V125.459Z" fill="white"/>
<path d="M210.494 125.459H208.312V127.642H210.494V125.459Z" fill="white"/>
<path d="M214.734 125.459H212.551V127.642H214.734V125.459Z" fill="white"/>
<path d="M216.853 125.459H214.67V127.642H216.853V125.459Z" fill="white"/>
<path d="M218.972 125.459H216.789V127.642H218.972V125.459Z" fill="white"/>
<path d="M225.33 125.459H223.147V127.642H225.33V125.459Z" fill="white"/>
<path d="M227.45 125.459H225.268V127.642H227.45V125.459Z" fill="white"/>
<path d="M229.57 125.459H227.387V127.642H229.57V125.459Z" fill="white"/>
<path d="M238.045 125.459H235.862V127.642H238.045V125.459Z" fill="white"/>
<path d="M240.164 125.459H237.981V127.642H240.164V125.459Z" fill="white"/>
<path d="M246.523 125.459H244.34V127.642H246.523V125.459Z" fill="white"/>
<path d="M248.643 125.459H246.46V127.642H248.643V125.459Z" fill="white"/>
<path d="M250.762 125.459H248.579V127.642H250.762V125.459Z" fill="white"/>
<path d="M252.881 125.459H250.698V127.642H252.881V125.459Z" fill="white"/>
<path d="M255.001 125.459H252.818V127.642H255.001V125.459Z" fill="white"/>
<path d="M204.136 127.578H201.953V129.761H204.136V127.578Z" fill="white"/>
<path d="M206.256 127.578H204.073V129.761H206.256V127.578Z" fill="white"/>
<path d="M210.494 127.578H208.312V129.761H210.494V127.578Z" fill="white"/>
<path d="M212.615 127.578H210.432V129.761H212.615V127.578Z" fill="white"/>
<path d="M218.972 127.578H216.789V129.761H218.972V127.578Z" fill="white"/>
<path d="M221.092 127.578H218.909V129.761H221.092V127.578Z" fill="white"/>
<path d="M225.33 127.578H223.147V129.761H225.33V127.578Z" fill="white"/>
<path d="M229.57 127.578H227.387V129.761H229.57V127.578Z" fill="white"/>
<path d="M231.687 127.578H229.504V129.761H231.687V127.578Z" fill="white"/>
<path d="M233.807 127.578H231.624V129.761H233.807V127.578Z" fill="white"/>
<path d="M238.045 127.578H235.862V129.761H238.045V127.578Z" fill="white"/>
<path d="M240.164 127.578H237.981V129.761H240.164V127.578Z" fill="white"/>
<path d="M242.284 127.578H240.102V129.761H242.284V127.578Z" fill="white"/>
<path d="M244.404 127.578H242.221V129.761H244.404V127.578Z" fill="white"/>
<path d="M250.762 127.578H248.579V129.761H250.762V127.578Z" fill="white"/>
<path d="M206.256 129.699H204.073V131.882H206.256V129.699Z" fill="white"/>
<path d="M212.615 129.699H210.432V131.882H212.615V129.699Z" fill="white"/>
<path d="M214.734 129.699H212.551V131.882H214.734V129.699Z" fill="white"/>
<path d="M216.853 129.699H214.67V131.882H216.853V129.699Z" fill="white"/>
<path d="M221.092 129.699H218.909V131.882H221.092V129.699Z" fill="white"/>
<path d="M225.33 129.699H223.147V131.882H225.33V129.699Z" fill="white"/>
<path d="M227.45 129.699H225.268V131.882H227.45V129.699Z" fill="white"/>
<path d="M229.57 129.699H227.387V131.882H229.57V129.699Z" fill="white"/>
<path d="M231.687 129.699H229.504V131.882H231.687V129.699Z" fill="white"/>
<path d="M242.284 129.699H240.102V131.882H242.284V129.699Z" fill="white"/>
<path d="M246.523 129.699H244.34V131.882H246.523V129.699Z" fill="white"/>
<path d="M250.762 129.699H248.579V131.882H250.762V129.699Z" fill="white"/>
<path d="M204.136 131.818H201.953V134.001H204.136V131.818Z" fill="white"/>
<path d="M206.256 131.818H204.073V134.001H206.256V131.818Z" fill="white"/>
<path d="M208.375 131.818H206.192V134.001H208.375V131.818Z" fill="white"/>
<path d="M212.615 131.818H210.432V134.001H212.615V131.818Z" fill="white"/>
<path d="M218.972 131.818H216.789V134.001H218.972V131.818Z" fill="white"/>
<path d="M221.092 131.818H218.909V134.001H221.092V131.818Z" fill="white"/>
<path d="M223.211 131.818H221.028V134.001H223.211V131.818Z" fill="white"/>
<path d="M227.45 131.818H225.268V134.001H227.45V131.818Z" fill="white"/>
<path d="M233.807 131.818H231.624V134.001H233.807V131.818Z" fill="white"/>
<path d="M235.926 131.818H233.743V134.001H235.926V131.818Z" fill="white"/>
<path d="M238.045 131.818H235.862V134.001H238.045V131.818Z" fill="white"/>
<path d="M244.404 131.818H242.221V134.001H244.404V131.818Z" fill="white"/>
<path d="M252.881 131.818H250.698V134.001H252.881V131.818Z" fill="white"/>
<path d="M185 64V78.835H199.835V64H185ZM197.716 76.7157H187.119V66.1193H197.716V76.7157Z" fill="white"/>
<path d="M240.102 64V78.835H254.937V64H240.102ZM252.817 76.7157H242.221V66.1193H252.817V76.7157Z" fill="white"/>
<path d="M185 119.102V133.937H199.835V119.102H185ZM197.716 131.817H187.119V121.221H197.716V131.817Z" fill="white"/>
<path d="M195.597 68.2383H189.239V74.5961H195.597V68.2383Z" fill="white"/>
<path d="M250.698 68.2383H244.34V74.5961H250.698V68.2383Z" fill="white"/>
<path d="M195.597 123.34H189.239V129.698H195.597V123.34Z" fill="white"/>
</g>
<line x1="127.5" y1="-2.18557e-08" x2="127.5" y2="133" stroke="black" stroke-opacity="0.2"/>
<defs>
<clipPath id="clip0_10577_15334">
<rect width="69" height="133" fill="white"/>
</clipPath>
<clipPath id="clip1_10577_15334">
<rect width="69" height="133" fill="white" transform="translate(186)"/>
</clipPath>
</defs>
</svg>
