<svg width="65" height="92" viewBox="0 0 65 92" fill="none" xmlns="http://www.w3.org/2000/svg">
<path fill-rule="evenodd" clip-rule="evenodd" d="M28.1567 91.2053H57.9173C61.7951 91.2053 64.95 88.0379 64.95 84.1447V7.06062C64.95 3.16736 61.7951 0 57.9173 0H28.1567C24.2789 0 21.124 3.16736 21.124 7.06062V84.1447C21.124 88.0379 24.2789 91.2053 28.1567 91.2053ZM28.1639 89.4272H57.9094C60.8116 89.4272 63.1729 87.0553 63.1729 84.1399V7.06268C63.1729 4.1473 60.8116 1.77539 57.9094 1.77539H28.1639C25.2616 1.77539 22.9004 4.1473 22.9004 7.06268V84.14C22.9004 87.0553 25.2616 89.4272 28.1639 89.4272Z" fill="#6D7174"/>
<path d="M58.4569 25.4676H27.618C27.4666 25.4674 27.3214 25.4066 27.2143 25.2984C27.1073 25.1902 27.0471 25.0436 27.0469 24.8906V17.161C27.0471 17.008 27.1073 16.8614 27.2143 16.7532C27.3214 16.645 27.4666 16.5842 27.618 16.584H58.4569C58.6083 16.5842 58.7534 16.645 58.8605 16.7532C58.9676 16.8614 59.0278 17.008 59.028 17.161V24.8906C59.0278 25.0436 58.9676 25.1902 58.8605 25.2984C58.7534 25.4066 58.6083 25.4674 58.4569 25.4676ZM27.618 16.8148C27.5271 16.8149 27.44 16.8514 27.3758 16.9163C27.3115 16.9812 27.2754 17.0692 27.2753 17.161V24.8906C27.2754 24.9824 27.3115 25.0704 27.3758 25.1353C27.44 25.2002 27.5271 25.2367 27.618 25.2368H58.4569C58.5477 25.2367 58.6348 25.2002 58.699 25.1353C58.7633 25.0704 58.7994 24.9824 58.7995 24.8906V17.161C58.7994 17.0692 58.7633 16.9812 58.699 16.9163C58.6348 16.8514 58.5477 16.8149 58.4569 16.8148L27.618 16.8148Z" fill="#6D7174"/>
<circle cx="32.999" cy="21" r="3" fill="#6D7174"/>
<path d="M38.0933 18.9512C38.0426 18.9511 37.9924 18.9587 37.9455 18.9736C37.8986 18.9884 37.8561 19.0102 37.8202 19.0377C37.7843 19.0652 37.7559 19.0979 37.7364 19.1339C37.717 19.1698 37.707 19.2084 37.707 19.2473C37.707 19.2862 37.717 19.3248 37.7364 19.3607C37.7559 19.3967 37.7843 19.4293 37.8202 19.4568C37.8561 19.4844 37.8986 19.5062 37.9455 19.521C37.9924 19.5359 38.0426 19.5435 38.0933 19.5434H56.2731C56.3754 19.5434 56.4735 19.5122 56.5458 19.4567C56.6182 19.4011 56.6588 19.3258 56.6588 19.2473C56.6588 19.1688 56.6182 19.0934 56.5458 19.0379C56.4735 18.9824 56.3754 18.9512 56.2731 18.9512H38.0933Z" fill="#6D7174"/>
<path d="M38.0791 21.3223C37.9804 21.3223 37.8858 21.3535 37.816 21.409C37.7462 21.4645 37.707 21.5399 37.707 21.6184C37.707 21.6969 37.7462 21.7722 37.816 21.8278C37.8858 21.8833 37.9804 21.9145 38.0791 21.9145H45.6264C45.725 21.9145 45.8197 21.8833 45.8894 21.8278C45.9592 21.7722 45.9984 21.6969 45.9984 21.6184C45.9984 21.5399 45.9592 21.4645 45.8894 21.409C45.8197 21.3535 45.725 21.3223 45.6264 21.3223H38.0791Z" fill="#6D7174"/>
<path d="M47.6308 6.51679H38.4435C37.3842 6.51679 36.5225 5.58695 36.5225 4.44394C36.5225 3.30094 37.3842 2.37109 38.4435 2.37109H47.6308C48.6901 2.37109 49.5518 3.30094 49.5518 4.44394C49.5518 5.58695 48.6901 6.51679 47.6308 6.51679Z" fill="#6D7174"/>
<path d="M57.2512 29.6113H27.0469V37.9027H57.2512V29.6113Z" fill="#E4002B"/>
<path d="M58.3197 36.7191H29.5312C29.3435 36.7189 29.1635 36.6461 29.0308 36.5165C28.8981 36.387 28.8234 36.2114 28.8232 36.0282V29.1187C28.8234 28.9355 28.8981 28.7599 29.0308 28.6303C29.1635 28.5008 29.3435 28.4279 29.5312 28.4277H58.3197C58.5074 28.4279 58.6873 28.5008 58.82 28.6303C58.9527 28.7599 59.0274 28.9355 59.0276 29.1187V36.0282C59.0274 36.2114 58.9527 36.387 58.82 36.5165C58.6873 36.6461 58.5074 36.7189 58.3197 36.7191ZM29.5312 28.8884C29.4686 28.8884 29.4086 28.9127 29.3644 28.9559C29.3201 28.9991 29.2952 29.0576 29.2952 29.1187V36.0282C29.2952 36.0892 29.3201 36.1478 29.3643 36.191C29.4086 36.2342 29.4686 36.2585 29.5312 36.2585H58.3197C58.3823 36.2585 58.4422 36.2342 58.4865 36.191C58.5307 36.1478 58.5556 36.0892 58.5557 36.0282V29.1187C58.5556 29.0576 58.5307 28.9991 58.4865 28.9559C58.4423 28.9127 58.3822 28.8884 58.3197 28.8884H29.5312Z" fill="#6D7174"/>
<path opacity="0.5" d="M13.2235 81.8738C12.7916 81.8724 12.3616 81.8168 11.9436 81.7083L11.8612 81.6855L11.7847 81.6472C9.02139 80.2617 6.6901 78.4316 4.85561 76.2079C3.33704 74.3562 2.1531 72.2539 1.35701 69.9954C0.405018 67.2914 -0.0529831 64.4383 0.00487003 61.5722C0.0060374 61.5121 0.00702535 61.4656 0.00702535 61.4336C0.00702535 60.0404 0.780369 58.8179 1.97721 58.3193C2.89321 57.9376 11.2101 54.5215 11.811 54.2747C12.9426 53.7077 14.15 54.1809 14.3432 54.2637C14.7765 54.4409 22.4649 57.5855 24.1264 58.3767C25.8387 59.1921 26.2956 60.6569 26.2956 61.3938C26.2956 64.7303 25.7177 67.8485 24.5781 70.6618C23.6577 72.939 22.3532 75.0413 20.7215 76.8771C17.5733 80.42 14.4242 81.6759 14.3938 81.687C14.0175 81.8165 13.6215 81.8797 13.2235 81.8738ZM12.483 80.0395C12.756 80.1007 13.3846 80.1925 13.7942 80.043C14.3147 79.8532 16.9504 78.4864 19.4134 75.7147C22.8164 71.8851 24.5431 67.071 24.5456 61.4061C24.5396 61.2914 24.4581 60.4728 23.374 59.9566C21.7448 59.1808 13.7534 55.9131 13.6728 55.8802L13.6507 55.8708C13.4833 55.8006 12.9503 55.6528 12.5829 55.8453L12.5093 55.8796C12.4202 55.9162 3.59182 59.5422 2.65026 59.9346C1.99162 60.209 1.75694 60.8889 1.75694 61.4336C1.75694 61.4734 1.75591 61.5313 1.75446 61.6062C1.67921 65.4823 2.57617 75.0203 12.483 80.0395Z" fill="#6D7174"/>
<path opacity="0.2" d="M12.303 55.1944C12.303 55.1944 3.39437 58.8534 2.43987 59.2511C1.48537 59.6488 1.00812 60.6033 1.00812 61.5578C1.00812 62.5123 0.292247 74.9672 12.303 80.9892C12.303 80.9892 13.3931 81.2908 14.2202 80.9892C15.0472 80.6875 25.5467 75.5969 25.5467 61.518C25.5467 61.518 25.5467 60.0863 23.8764 59.2908C22.206 58.4954 14.13 55.1944 14.13 55.1944C14.13 55.1944 13.1382 54.757 12.303 55.1944Z" fill="#C8D0D0"/>
<path opacity="0.5" d="M11.8632 72.0681L9 68.3866L10.6651 67.0916L12.0208 68.8347L16.6006 64L18.1322 65.451L11.8632 72.0681Z" fill="#6D7174"/>
</svg>
